SeanSlab_1.ufo
<glyph name="numbersign" format="1">
  <advance width="538"/>
  <unicode hex="0023"/>
  <outline>
    <contour>
      <point x="40" y="217" type="line"/>
      <point x="431" y="217" type="line"/>
      <point x="456" y="328" type="line"/>
      <point x="65" y="328" type="line"/>
    </contour>
    <contour>
      <point x="83" y="430" type="line"/>
      <point x="475" y="430" type="line"/>
      <point x="500" y="540" type="line"/>
      <point x="106" y="540" type="line"/>
    </contour>
    <contour>
      <point x="362" y="39" type="line"/>
      <point x="506" y="722" type="line"/>
      <point x="365" y="722" type="line"/>
      <point x="221" y="39" type="line"/>
    </contour>
    <contour>
      <point x="168" y="46" type="line"/>
      <point x="313" y="722" type="line"/>
      <point x="172" y="722" type="line"/>
      <point x="34" y="46" type="line"/>
    </contour>
  </outline>
</glyph>
<glyph name="ampersand" format="1">
  <advance width="558"/>
  <unicode hex="0026"/>
  <outline>
    <contour>
      <point x="538" y="39" type="line"/>
      <point x="469" y="137"/>
      <point x="387" y="275"/>
      <point x="313" y="378" type="curve"/>
      <point x="275" y="432"/>
      <point x="221" y="482"/>
      <point x="221" y="549" type="curve"/>
      <point x="221" y="581"/>
      <point x="221" y="618"/>
      <point x="247" y="618" type="curve"/>
      <point x="273" y="618"/>
      <point x="272" y="584"/>
      <point x="272" y="551" type="curve"/>
      <point x="272" y="496"/>
      <point x="248" y="453"/>
      <point x="203" y="420" type="curve"/>
      <point x="120" y="357"/>
      <point x="47" y="302"/>
      <point x="47" y="201" type="curve"/>
      <point x="47" y="81"/>
      <point x="123" y="-5"/>
      <point x="241" y="-5" type="curve"/>
      <point x="407" y="-5"/>
      <point x="480" y="140"/>
      <point x="518" y="312" type="curve"/>
      <point x="398" y="340"/>
      <point x="518" y="312"/>
      <point x="398" y="340" type="curve"/>
      <point x="371" y="224"/>
      <point x="356" y="105"/>
      <point x="248" y="105" type="curve"/>
      <point x="204" y="105"/>
      <point x="188" y="150"/>
      <point x="188" y="201" type="curve"/>
      <point x="188" y="257"/>
      <point x="215" y="297"/>
      <point x="261" y="332" type="curve"/>
      <point x="343" y="394"/>
      <point x="412" y="451"/>
      <point x="413" y="551" type="curve"/>
      <point x="413" y="654"/>
      <point x="350" y="727"/>
      <point x="252" y="727" type="curve"/>
      <point x="153" y="727"/>
      <point x="93" y="652"/>
      <point x="93" y="549" type="curve"/>
      <point x="93" y="453"/>
      <point x="156" y="388"/>
      <point x="212" y="311" type="curve"/>
      <point x="279" y="214"/>
      <point x="369" y="68"/>
      <point x="430" y="-22" type="curve"/>
    </contour>
  </outline>
</glyph>
<glyph name="quotesingle" format="1">
  <advance width="232"/>
  <unicode hex="0027"/>
  <outline>
    <contour>
      <point x="175" y="631" type="line"/>
      <point x="185" y="846" type="line"/>
      <point x="47" y="846" type="line"/>
      <point x="57" y="631" type="line"/>
    </contour>
  </outline>
</glyph>
<glyph name="parenleft" format="1">
  <advance width="313"/>
  <unicode hex="0028"/>
  <outline>
    <contour>
      <point x="311" y="-204" type="curve"/>
      <point x="192" y="-33"/>
      <point x="172" y="119"/>
      <point x="172" y="326" type="curve"/>
      <point x="172" y="534"/>
      <point x="194" y="687"/>
      <point x="310" y="860" type="curve"/>
      <point x="226" y="931"/>
      <point x="310" y="860"/>
      <point x="226" y="931" type="curve"/>
      <point x="89" y="732"/>
      <point x="36" y="567"/>
      <point x="36" y="326" type="curve"/>
      <point x="36" y="84"/>
      <point x="90" y="-81"/>
      <point x="227" y="-282" type="curve"/>
      <point x="311" y="-204"/>
      <point x="227" y="-282"/>
    </contour>
  </outline>
</glyph>
<glyph name="plus" format="1">
  <advance width="574"/>
  <unicode hex="002B"/>
  <outline>
    <contour>
      <point x="36" y="256" type="curve"/>
      <point x="538" y="256" type="line"/>
      <point x="538" y="376"/>
      <point x="538" y="256"/>
      <point x="538" y="376" type="curve"/>
      <point x="36" y="376" type="line"/>
      <point x="36" y="256"/>
      <point x="36" y="376"/>
    </contour>
    <contour>
      <point x="351" y="64" type="curve"/>
      <point x="351" y="577" type="line"/>
      <point x="211" y="577"/>
      <point x="361" y="577"/>
      <point x="221" y="577" type="curve"/>
      <point x="221" y="64" type="line"/>
      <point x="361" y="64"/>
      <point x="211" y="64"/>
    </contour>
  </outline>
</glyph>
<glyph name="five" format="1">
  <advance width="441"/>
  <unicode hex="0035"/>
  <outline>
    <contour>
      <point x="47" y="722" type="curve"/>
      <point x="47" y="624"/>
      <point x="47" y="517"/>
      <point x="47" y="379" type="curve"/>
      <point x="181" y="335"/>
      <point x="47" y="379"/>
      <point x="181" y="335" type="curve"/>
      <point x="181" y="425"/>
      <point x="181" y="523"/>
      <point x="181" y="613" type="curve"/>
      <point x="47" y="722"/>
      <point x="181" y="613"/>
    </contour>
    <contour>
      <point x="181" y="335" type="curve"/>
      <point x="187" y="352"/>
      <point x="193" y="365"/>
      <point x="214" y="365" type="curve"/>
      <point x="255" y="365"/>
      <point x="258" y="307"/>
      <point x="258" y="244" type="curve"/>
      <point x="258" y="178"/>
      <point x="241" y="109"/>
      <point x="187" y="109" type="curve"/>
      <point x="154" y="109"/>
      <point x="135" y="121"/>
      <point x="112" y="141" type="curve"/>
      <point x="40" y="43"/>
      <point x="112" y="141"/>
      <point x="40" y="43" type="curve"/>
      <point x="85" y="10"/>
      <point x="125" y="-5"/>
      <point x="180" y="-5" type="curve"/>
      <point x="311" y="-5"/>
      <point x="399" y="104"/>
      <point x="399" y="242" type="curve"/>
      <point x="399" y="375"/>
      <point x="347" y="482"/>
      <point x="237" y="482" type="curve"/>
      <point x="172" y="482"/>
      <point x="117" y="465"/>
      <point x="47" y="379" type="curve"/>
      <point x="181" y="335"/>
      <point x="47" y="379"/>
    </contour>
    <contour>
      <point x="374" y="722" type="curve"/>
      <point x="283" y="722"/>
      <point x="143" y="722"/>
      <point x="47" y="722" type="curve"/>
      <point x="181" y="613"/>
      <point x="47" y="722"/>
      <point x="181" y="613" type="curve"/>
      <point x="232" y="613"/>
      <point x="327" y="613"/>
      <point x="374" y="613" type="curve"/>
      <point x="374" y="722"/>
      <point x="374" y="613"/>
    </contour>
  </outline>
</glyph>
<glyph name="semicolon" format="1">
  <advance width="282"/>
  <unicode hex="003B"/>
  <outline>
    <contour>
      <point x="58" y="-223" type="line"/>
      <point x="162" y="-223"/>
      <point x="228" y="-153"/>
      <point x="228" y="-47" type="curve"/>
      <point x="228" y="43"/>
      <point x="192" y="87"/>
      <point x="144" y="87" type="curve"/>
      <point x="98" y="87"/>
      <point x="66" y="62"/>
      <point x="66" y="15" type="curve"/>
      <point x="66" y="-21"/>
      <point x="86" y="-51"/>
      <point x="127" y="-51" type="curve"/>
      <point x="127" y="-75"/>
      <point x="128" y="-133"/>
      <point x="58" y="-145" type="curve"/>
    </contour>
    <contour>
      <point x="214" y="376" type="curve"/>
      <point x="214" y="424"/>
      <point x="184" y="448"/>
      <point x="143" y="448" type="curve"/>
      <point x="100" y="448"/>
      <point x="73" y="422"/>
      <point x="73" y="376" type="curve"/>
      <point x="214" y="376"/>
      <point x="73" y="376"/>
      <point x="214" y="376" type="curve"/>
      <point x="214" y="328"/>
      <point x="185" y="306"/>
      <point x="143" y="306" type="curve"/>
      <point x="99" y="306"/>
      <point x="73" y="330"/>
      <point x="73" y="376" type="curve"/>
      <point x="214" y="376"/>
      <point x="73" y="376"/>
    </contour>
  </outline>
</glyph>
<glyph name="greater" format="1">
  <advance width="503"/>
  <unicode hex="003E"/>
  <outline>
    <contour>
      <point x="63" y="-25" type="curve"/>
      <point x="198" y="65"/>
      <point x="334" y="155"/>
      <point x="470" y="245" type="curve"/>
      <point x="470" y="367"/>
      <point x="470" y="245"/>
      <point x="470" y="367" type="curve"/>
      <point x="334" y="277"/>
      <point x="198" y="187"/>
      <point x="63" y="97" type="curve"/>
      <point x="63" y="-25"/>
      <point x="63" y="97"/>
    </contour>
    <contour>
      <point x="57" y="509" type="curve"/>
      <point x="194" y="421"/>
      <point x="332" y="333"/>
      <point x="470" y="245" type="curve"/>
      <point x="470" y="367"/>
      <point x="470" y="245"/>
      <point x="470" y="367" type="curve"/>
      <point x="332" y="455"/>
      <point x="194" y="543"/>
      <point x="57" y="631" type="curve"/>
      <point x="57" y="509"/>
      <point x="57" y="631"/>
    </contour>
  </outline>
</glyph>
<glyph name="question" format="1">
  <advance width="455"/>
  <unicode hex="003F"/>
  <outline>
    <contour>
      <point x="157" y="379" type="curve"/>
      <point x="157" y="342"/>
      <point x="157" y="258"/>
      <point x="157" y="221" type="curve"/>
      <point x="283" y="221"/>
      <point x="157" y="221"/>
      <point x="283" y="221" type="curve"/>
      <point x="283" y="258"/>
      <point x="283" y="342"/>
      <point x="283" y="379" type="curve"/>
      <point x="157" y="379"/>
      <point x="283" y="379"/>
    </contour>
    <contour>
      <point x="103" y="584" type="line"/>
      <point x="134" y="617"/>
      <point x="155" y="634"/>
      <point x="194" y="634" type="curve"/>
      <point x="254" y="634"/>
      <point x="281" y="582"/>
      <point x="281" y="518" type="curve"/>
      <point x="281" y="438"/>
      <point x="243" y="379"/>
      <point x="170" y="379" type="curve"/>
      <point x="170" y="341"/>
      <point x="169" y="313"/>
      <point x="169" y="275" type="curve"/>
      <point x="321" y="275"/>
      <point x="415" y="370"/>
      <point x="415" y="518" type="curve"/>
      <point x="415" y="662"/>
      <point x="330" y="751"/>
      <point x="200" y="751" type="curve"/>
      <point x="126" y="751"/>
      <point x="69" y="728"/>
      <point x="29" y="676" type="curve"/>
    </contour>
    <contour>
      <point x="292" y="69" type="curve"/>
      <point x="292" y="116"/>
      <point x="262" y="140"/>
      <point x="220" y="140" type="curve"/>
      <point x="177" y="140"/>
      <point x="150" y="114"/>
      <point x="150" y="69" type="curve"/>
      <point x="292" y="69"/>
      <point x="150" y="69"/>
      <point x="292" y="69" type="curve"/>
      <point x="292" y="20"/>
      <point x="263" y="-2"/>
      <point x="220" y="-2" type="curve"/>
      <point x="177" y="-2"/>
      <point x="150" y="22"/>
      <point x="150" y="69" type="curve"/>
      <point x="292" y="69"/>
      <point x="150" y="69"/>
    </contour>
  </outline>
</glyph>
<glyph name="B" format="1">
  <advance width="568"/>
  <unicode hex="0042"/>
  <outline>
    <contour>
      <point x="189" y="722" type="curve"/>
      <point x="147" y="722"/>
      <point x="103" y="722"/>
      <point x="61" y="722" type="curve"/>
      <point x="61" y="613"/>
      <point x="61" y="722"/>
      <point x="61" y="613" type="curve"/>
      <point x="189" y="613"/>
      <point x="61" y="613"/>
      <point x="189" y="613" type="curve"/>
      <point x="189" y="722"/>
      <point x="189" y="613"/>
    </contour>
    <contour>
      <point x="188" y="109" type="curve"/>
      <point x="60" y="109"/>
      <point x="188" y="109"/>
      <point x="60" y="109" type="curve"/>
      <point x="60" y="0"/>
      <point x="60" y="109"/>
      <point x="60" y="0" type="curve"/>
      <point x="103" y="0"/>
      <point x="147" y="0"/>
      <point x="188" y="0" type="curve"/>
      <point x="188" y="109"/>
      <point x="188" y="0"/>
    </contour>
    <contour>
      <point x="182" y="613" type="curve"/>
      <point x="227" y="613"/>
      <point x="249" y="613"/>
      <point x="293" y="613" type="curve"/>
      <point x="341" y="613"/>
      <point x="354" y="579"/>
      <point x="354" y="537" type="curve"/>
      <point x="354" y="495"/>
      <point x="343" y="459"/>
      <point x="301" y="459" type="curve"/>
      <point x="255" y="459"/>
      <point x="229" y="459"/>
      <point x="182" y="459" type="curve"/>
      <point x="182" y="428"/>
      <point x="182" y="379"/>
      <point x="182" y="348" type="curve"/>
      <point x="212" y="348"/>
      <point x="228" y="348"/>
      <point x="259" y="348" type="curve"/>
      <point x="374" y="348"/>
      <point x="492" y="403"/>
      <point x="492" y="530" type="curve"/>
      <point x="492" y="650"/>
      <point x="424" y="722"/>
      <point x="304" y="722" type="curve"/>
      <point x="256" y="722"/>
      <point x="230" y="722"/>
      <point x="182" y="722" type="curve"/>
      <point x="182" y="691"/>
      <point x="182" y="644"/>
    </contour>
    <contour>
      <point x="262" y="0" type="curve"/>
      <point x="262" y="241"/>
      <point x="262" y="481"/>
      <point x="262" y="722" type="curve"/>
      <point x="116" y="722"/>
      <point x="262" y="722"/>
      <point x="116" y="722" type="curve"/>
      <point x="116" y="481"/>
      <point x="116" y="241"/>
      <point x="116" y="0" type="curve"/>
      <point x="262" y="0"/>
      <point x="116" y="0"/>
    </contour>
    <contour>
      <point x="182" y="348" type="curve"/>
      <point x="229" y="348"/>
      <point x="255" y="348"/>
      <point x="301" y="348" type="curve"/>
      <point x="368" y="348"/>
      <point x="385" y="294"/>
      <point x="385" y="228" type="curve"/>
      <point x="385" y="162"/>
      <point x="362" y="109"/>
      <point x="299" y="109" type="curve"/>
      <point x="253" y="109"/>
      <point x="229" y="109"/>
      <point x="182" y="109" type="curve"/>
      <point x="182" y="78"/>
      <point x="182" y="31"/>
      <point x="182" y="0" type="curve"/>
      <point x="232" y="0"/>
      <point x="260" y="0"/>
      <point x="310" y="0" type="curve"/>
      <point x="446" y="0"/>
      <point x="526" y="86"/>
      <point x="526" y="224" type="curve"/>
      <point x="526" y="376"/>
      <point x="412" y="459"/>
      <point x="259" y="459" type="curve"/>
      <point x="228" y="459"/>
      <point x="212" y="459"/>
      <point x="182" y="459" type="curve"/>
      <point x="182" y="428"/>
      <point x="182" y="379"/>
    </contour>
  </outline>
</glyph>
<glyph name="F" format="1">
  <advance width="482"/>
  <unicode hex="0046"/>
  <outline>
    <contour>
      <point x="193" y="0" type="curve"/>
      <point x="237" y="0"/>
      <point x="193" y="0"/>
      <point x="327" y="0" type="curve"/>
      <point x="327" y="109"/>
      <point x="327" y="0"/>
      <point x="327" y="109" type="curve"/>
      <point x="193" y="109"/>
      <point x="327" y="109"/>
      <point x="193" y="109" type="curve"/>
      <point x="193" y="0"/>
      <point x="193" y="109"/>
    </contour>
    <contour>
      <point x="193" y="722" type="curve"/>
      <point x="149" y="722"/>
      <point x="104" y="722"/>
      <point x="60" y="722" type="curve"/>
      <point x="60" y="613"/>
      <point x="60" y="722"/>
      <point x="60" y="613" type="curve"/>
      <point x="193" y="613"/>
      <point x="60" y="613"/>
      <point x="193" y="613" type="curve"/>
      <point x="193" y="722"/>
      <point x="193" y="613"/>
    </contour>
    <contour>
      <point x="193" y="109" type="curve"/>
      <point x="60" y="109"/>
      <point x="193" y="109"/>
      <point x="60" y="109" type="curve"/>
      <point x="60" y="0"/>
      <point x="60" y="109"/>
      <point x="60" y="0" type="curve"/>
      <point x="104" y="0"/>
      <point x="149" y="0"/>
      <point x="193" y="0" type="curve"/>
      <point x="193" y="109"/>
      <point x="193" y="0"/>
    </contour>
    <contour>
      <point x="350" y="667" type="curve"/>
      <point x="350" y="547"/>
      <point x="350" y="667"/>
      <point x="350" y="547" type="curve"/>
      <point x="460" y="547"/>
      <point x="350" y="547"/>
      <point x="460" y="547" type="curve"/>
      <point x="460" y="667"/>
      <point x="460" y="547"/>
      <point x="460" y="667" type="curve"/>
      <point x="350" y="667"/>
      <point x="460" y="667"/>
    </contour>
    <contour>
      <point x="195" y="317" type="curve"/>
      <point x="268" y="317"/>
      <point x="339" y="317"/>
      <point x="411" y="317" type="curve"/>
      <point x="411" y="428"/>
      <point x="411" y="317"/>
      <point x="411" y="428" type="curve"/>
      <point x="339" y="428"/>
      <point x="268" y="428"/>
      <point x="195" y="428" type="curve"/>
      <point x="195" y="317"/>
      <point x="195" y="428"/>
    </contour>
    <contour>
      <point x="263" y="0" type="curve"/>
      <point x="263" y="722" type="line"/>
      <point x="123" y="722"/>
      <point x="263" y="722"/>
      <point x="123" y="722" type="curve"/>
      <point x="123" y="481"/>
      <point x="123" y="241"/>
      <point x="123" y="0" type="curve"/>
      <point x="263" y="0"/>
      <point x="123" y="0"/>
    </contour>
    <contour>
      <point x="186" y="613" type="curve"/>
      <point x="276" y="613"/>
      <point x="368" y="613"/>
      <point x="460" y="613" type="curve"/>
      <point x="460" y="722"/>
      <point x="460" y="613"/>
      <point x="460" y="722" type="curve"/>
      <point x="368" y="722"/>
      <point x="276" y="722"/>
      <point x="186" y="722" type="curve"/>
      <point x="186" y="613"/>
      <point x="186" y="722"/>
    </contour>
  </outline>
</glyph>
<glyph name="H" format="1">
  <advance width="665"/>
  <unicode hex="0048"/>
  <outline>
    <contour>
      <point x="496" y="613" type="curve"/>
      <point x="625" y="613"/>
      <point x="501" y="613"/>
      <point x="629" y="613" type="curve"/>
      <point x="629" y="722"/>
      <point x="629" y="613"/>
      <point x="629" y="722" type="curve"/>
      <point x="586" y="722"/>
      <point x="538" y="722"/>
      <point x="496" y="722" type="curve"/>
      <point x="496" y="613"/>
      <point x="496" y="722"/>
    </contour>
    <contour>
      <point x="496" y="0" type="curve"/>
      <point x="538" y="0"/>
      <point x="586" y="0"/>
      <point x="629" y="0" type="curve"/>
      <point x="629" y="109"/>
      <point x="629" y="0"/>
      <point x="629" y="109" type="curve"/>
      <point x="501" y="109"/>
      <point x="625" y="109"/>
      <point x="496" y="109" type="curve"/>
      <point x="496" y="0"/>
      <point x="496" y="109"/>
    </contour>
    <contour>
      <point x="496" y="109" type="curve"/>
      <point x="368" y="109"/>
      <point x="492" y="109"/>
      <point x="363" y="109" type="curve"/>
      <point x="363" y="0"/>
      <point x="363" y="109"/>
      <point x="363" y="0" type="curve"/>
      <point x="405" y="0"/>
      <point x="453" y="0"/>
      <point x="496" y="0" type="curve"/>
      <point x="496" y="109"/>
      <point x="496" y="0"/>
    </contour>
    <contour>
      <point x="496" y="722" type="curve"/>
      <point x="453" y="722"/>
      <point x="405" y="722"/>
      <point x="363" y="722" type="curve"/>
      <point x="363" y="613"/>
      <point x="363" y="722"/>
      <point x="363" y="613" type="curve"/>
      <point x="492" y="613"/>
      <point x="368" y="613"/>
      <point x="496" y="613" type="curve"/>
      <point x="496" y="722"/>
      <point x="496" y="613"/>
    </contour>
    <contour>
      <point x="170" y="613" type="curve"/>
      <point x="299" y="613"/>
      <point x="174" y="613"/>
      <point x="304" y="613" type="curve"/>
      <point x="304" y="722"/>
      <point x="304" y="613"/>
      <point x="304" y="722" type="curve"/>
      <point x="260" y="722"/>
      <point x="213" y="722"/>
      <point x="170" y="722" type="curve"/>
      <point x="170" y="613"/>
      <point x="170" y="722"/>
    </contour>
    <contour>
      <point x="170" y="722" type="curve"/>
      <point x="127" y="722"/>
      <point x="80" y="722"/>
      <point x="37" y="722" type="curve"/>
      <point x="37" y="613"/>
      <point x="37" y="722"/>
      <point x="37" y="613" type="curve"/>
      <point x="165" y="613"/>
      <point x="41" y="613"/>
      <point x="170" y="613" type="curve"/>
      <point x="170" y="722"/>
      <point x="170" y="613"/>
    </contour>
    <contour>
      <point x="170" y="0" type="curve"/>
      <point x="213" y="0"/>
      <point x="174" y="0"/>
      <point x="304" y="0" type="curve"/>
      <point x="304" y="109"/>
      <point x="304" y="0"/>
      <point x="304" y="109" type="curve"/>
      <point x="174" y="109"/>
      <point x="299" y="109"/>
      <point x="170" y="109" type="curve"/>
      <point x="170" y="0"/>
      <point x="170" y="109"/>
    </contour>
    <contour>
      <point x="170" y="109" type="curve"/>
      <point x="41" y="109"/>
      <point x="165" y="109"/>
      <point x="37" y="109" type="curve"/>
      <point x="37" y="0"/>
      <point x="37" y="109"/>
      <point x="37" y="0" type="curve"/>
      <point x="80" y="0"/>
      <point x="127" y="0"/>
      <point x="170" y="0" type="curve"/>
      <point x="170" y="109"/>
      <point x="170" y="0"/>
    </contour>
    <contour>
      <point x="240" y="0" type="curve"/>
      <point x="240" y="722" type="line"/>
      <point x="100" y="722"/>
      <point x="240" y="722"/>
      <point x="100" y="722" type="curve"/>
      <point x="100" y="481"/>
      <point x="100" y="241"/>
      <point x="100" y="0" type="curve"/>
      <point x="240" y="0"/>
      <point x="100" y="0"/>
    </contour>
    <contour>
      <point x="495" y="418" type="curve"/>
      <point x="386" y="418"/>
      <point x="277" y="418"/>
      <point x="170" y="418" type="curve"/>
      <point x="170" y="307"/>
      <point x="170" y="418"/>
      <point x="170" y="307" type="curve"/>
      <point x="277" y="307"/>
      <point x="386" y="307"/>
      <point x="495" y="307" type="curve"/>
      <point x="495" y="418"/>
      <point x="495" y="307"/>
    </contour>
    <contour>
      <point x="566" y="47" type="curve"/>
      <point x="566" y="256"/>
      <point x="566" y="466"/>
      <point x="566" y="675" type="curve"/>
      <point x="426" y="675"/>
      <point x="566" y="675"/>
      <point x="426" y="675" type="curve"/>
      <point x="426" y="47" type="line"/>
      <point x="566" y="47"/>
      <point x="426" y="47"/>
    </contour>
  </outline>
</glyph>
<glyph name="I" format="1">
  <advance width="341"/>
  <unicode hex="0049"/>
  <outline>
    <contour>
      <point x="173" y="780" type="move" name="top"/>
    </contour>
    <contour>
      <point x="228" y="6" type="move" name="bottom"/>
    </contour>
    <contour>
      <point x="172" y="722" type="curve"/>
      <point x="128" y="722"/>
      <point x="81" y="722"/>
      <point x="38" y="722" type="curve"/>
      <point x="38" y="613"/>
      <point x="38" y="722"/>
      <point x="38" y="613" type="curve"/>
      <point x="167" y="613"/>
      <point x="42" y="613"/>
      <point x="172" y="613" type="curve"/>
      <point x="172" y="722"/>
      <point x="172" y="613"/>
    </contour>
    <contour>
      <point x="172" y="613" type="curve"/>
      <point x="300" y="613"/>
      <point x="176" y="613"/>
      <point x="305" y="613" type="curve"/>
      <point x="305" y="722"/>
      <point x="305" y="613"/>
      <point x="305" y="722" type="curve"/>
      <point x="261" y="722"/>
      <point x="214" y="722"/>
      <point x="172" y="722" type="curve"/>
      <point x="172" y="613"/>
      <point x="172" y="722"/>
    </contour>
    <contour>
      <point x="172" y="0" type="curve"/>
      <point x="214" y="0"/>
      <point x="261" y="0"/>
      <point x="305" y="0" type="curve"/>
      <point x="305" y="109"/>
      <point x="305" y="0"/>
      <point x="305" y="109" type="curve"/>
      <point x="176" y="109"/>
      <point x="300" y="109"/>
      <point x="172" y="109" type="curve"/>
      <point x="172" y="0"/>
      <point x="172" y="109"/>
    </contour>
    <contour>
      <point x="172" y="109" type="curve"/>
      <point x="42" y="109"/>
      <point x="167" y="109"/>
      <point x="38" y="109" type="curve"/>
      <point x="38" y="0"/>
      <point x="38" y="109"/>
      <point x="38" y="0" type="curve"/>
      <point x="81" y="0"/>
      <point x="128" y="0"/>
      <point x="172" y="0" type="curve"/>
      <point x="172" y="109"/>
      <point x="172" y="0"/>
    </contour>
    <contour>
      <point x="240" y="0" type="curve"/>
      <point x="240" y="241"/>
      <point x="240" y="481"/>
      <point x="240" y="722" type="curve"/>
      <point x="100" y="722"/>
      <point x="240" y="722"/>
      <point x="100" y="722" type="curve"/>
      <point x="100" y="481"/>
      <point x="100" y="241"/>
      <point x="100" y="0" type="curve"/>
      <point x="240" y="0"/>
      <point x="100" y="0"/>
    </contour>
  </outline>
</glyph>
<glyph name="J" format="1">
  <advance width="368"/>
  <unicode hex="004A"/>
  <outline>
    <contour>
      <point x="219" y="722" type="curve"/>
      <point x="178" y="722"/>
      <point x="133" y="722"/>
      <point x="91" y="722" type="curve"/>
      <point x="91" y="613"/>
      <point x="91" y="722"/>
      <point x="91" y="613" type="curve"/>
      <point x="215" y="613"/>
      <point x="95" y="613"/>
      <point x="219" y="613" type="curve"/>
      <point x="219" y="722"/>
      <point x="219" y="613"/>
    </contour>
    <contour>
      <point x="219" y="613" type="curve"/>
      <point x="343" y="613"/>
      <point x="224" y="613"/>
      <point x="347" y="613" type="curve"/>
      <point x="347" y="722"/>
      <point x="347" y="613"/>
      <point x="347" y="722" type="curve"/>
      <point x="306" y="722"/>
      <point x="260" y="722"/>
      <point x="219" y="722" type="curve"/>
      <point x="219" y="613"/>
      <point x="219" y="722"/>
    </contour>
    <contour>
      <point x="-4" y="45" type="curve"/>
      <point x="19" y="23"/>
      <point x="56" y="-4"/>
      <point x="103" y="-4" type="curve"/>
      <point x="235" y="-4"/>
      <point x="289" y="87"/>
      <point x="289" y="246" type="curve"/>
      <point x="289" y="403"/>
      <point x="289" y="564"/>
      <point x="289" y="722" type="curve"/>
      <point x="148" y="722"/>
      <point x="289" y="722"/>
      <point x="148" y="722" type="curve"/>
      <point x="148" y="564"/>
      <point x="148" y="403"/>
      <point x="148" y="246" type="curve"/>
      <point x="148" y="174"/>
      <point x="158" y="109"/>
      <point x="103" y="109" type="curve"/>
      <point x="83" y="109"/>
      <point x="74" y="121"/>
      <point x="60" y="132" type="curve"/>
      <point x="-4" y="45"/>
      <point x="60" y="132"/>
    </contour>
  </outline>
</glyph>
<glyph name="W" format="1">
  <advance width="735"/>
  <unicode hex="0057"/>
  <outline>
    <contour>
      <point x="132" y="613" type="curve"/>
      <point x="232" y="613"/>
      <point x="132" y="613"/>
      <point x="232" y="613" type="curve"/>
      <point x="232" y="722"/>
      <point x="232" y="613"/>
      <point x="232" y="722" type="curve"/>
      <point x="200" y="722"/>
      <point x="166" y="722"/>
      <point x="132" y="722" type="curve"/>
      <point x="132" y="613"/>
      <point x="132" y="722"/>
    </contour>
    <contour>
      <point x="121" y="722" type="curve"/>
      <point x="84" y="722"/>
      <point x="47" y="722"/>
      <point x="11" y="722" type="curve"/>
      <point x="11" y="613"/>
      <point x="11" y="722"/>
      <point x="11" y="613" type="curve"/>
      <point x="121" y="613"/>
      <point x="11" y="613"/>
      <point x="121" y="613" type="curve"/>
      <point x="121" y="722"/>
      <point x="121" y="613"/>
    </contour>
    <contour>
      <point x="612" y="722" type="curve"/>
      <point x="578" y="722"/>
      <point x="545" y="722"/>
      <point x="512" y="722" type="curve"/>
      <point x="512" y="613"/>
      <point x="512" y="722"/>
      <point x="512" y="613" type="curve"/>
      <point x="612" y="613"/>
      <point x="512" y="613"/>
      <point x="612" y="613" type="curve"/>
      <point x="612" y="722"/>
      <point x="612" y="613"/>
    </contour>
    <contour>
      <point x="618" y="613" type="curve"/>
      <point x="728" y="613"/>
      <point x="618" y="613"/>
      <point x="728" y="613" type="curve"/>
      <point x="728" y="722"/>
      <point x="728" y="613"/>
      <point x="728" y="722" type="curve"/>
      <point x="692" y="722"/>
      <point x="655" y="722"/>
      <point x="618" y="722" type="curve"/>
      <point x="618" y="613"/>
      <point x="618" y="722"/>
    </contour>
    <contour>
      <point x="293" y="0" type="curve"/>
      <point x="339" y="241"/>
      <point x="384" y="481"/>
      <point x="429" y="722" type="curve"/>
      <point x="315" y="722"/>
      <point x="428" y="722"/>
      <point x="314" y="722" type="curve"/>
      <point x="273" y="482"/>
      <point x="234" y="243"/>
      <point x="193" y="0" type="curve"/>
      <point x="303" y="0"/>
      <point x="183" y="0"/>
    </contour>
    <contour>
      <point x="317" y="722" type="curve"/>
      <point x="357" y="481"/>
      <point x="398" y="241"/>
      <point x="440" y="0" type="curve"/>
      <point x="550" y="0"/>
      <point x="426" y="0"/>
      <point x="536" y="0" type="curve"/>
      <point x="499" y="246"/>
      <point x="467" y="481"/>
      <point x="432" y="722" type="curve"/>
      <point x="318" y="722"/>
      <point x="431" y="722"/>
    </contour>
    <contour>
      <point x="56" y="722" type="curve"/>
      <point x="98" y="481"/>
      <point x="139" y="241"/>
      <point x="179" y="0" type="curve"/>
      <point x="290" y="0"/>
      <point x="180" y="0"/>
      <point x="291" y="0" type="curve"/>
      <point x="252" y="241"/>
      <point x="212" y="481"/>
      <point x="174" y="722" type="curve"/>
      <point x="56" y="722"/>
      <point x="174" y="722"/>
    </contour>
    <contour>
      <point x="565" y="722" type="curve"/>
      <point x="525" y="481"/>
      <point x="482" y="241"/>
      <point x="441" y="0" type="curve"/>
      <point x="552" y="0"/>
      <point x="443" y="0"/>
      <point x="554" y="0" type="curve"/>
      <point x="596" y="241"/>
      <point x="639" y="481"/>
      <point x="682" y="722" type="curve"/>
      <point x="565" y="722"/>
      <point x="682" y="722"/>
    </contour>
  </outline>
</glyph>
<glyph name="bracketright" format="1">
  <advance width="276"/>
  <unicode hex="005D"/>
  <outline>
    <contour>
      <point x="44" y="649" type="curve"/>
      <point x="77" y="649"/>
      <point x="111" y="649"/>
      <point x="145" y="649" type="curve"/>
      <point x="134" y="662"/>
      <point x="113" y="661"/>
      <point x="102" y="674" type="curve"/>
      <point x="92" y="687"/>
      <point x="81" y="701"/>
      <point x="71" y="715" type="curve"/>
      <point x="71" y="456"/>
      <point x="70" y="199"/>
      <point x="71" y="-60" type="curve"/>
      <point x="81" y="-45"/>
      <point x="94" y="-34"/>
      <point x="106" y="-21" type="curve"/>
      <point x="116" y="-8"/>
      <point x="136" y="-6"/>
      <point x="146" y="8" type="curve"/>
      <point x="112" y="8"/>
      <point x="77" y="8"/>
      <point x="44" y="8" type="curve"/>
      <point x="42" y="-113"/>
      <point x="44" y="8"/>
      <point x="42" y="-113" type="curve"/>
      <point x="77" y="-113"/>
      <point x="112" y="-113"/>
      <point x="146" y="-113" type="curve"/>
      <point x="211" y="-113"/>
      <point x="146" y="-113"/>
      <point x="211" y="-113" type="curve"/>
      <point x="211" y="-60"/>
      <point x="211" y="-113"/>
      <point x="211" y="-60" type="curve"/>
      <point x="210" y="199"/>
      <point x="211" y="456"/>
      <point x="211" y="715" type="curve"/>
      <point x="211" y="769"/>
      <point x="211" y="715"/>
      <point x="211" y="769" type="curve"/>
      <point x="145" y="769"/>
      <point x="211" y="769"/>
      <point x="145" y="769" type="curve"/>
      <point x="111" y="769"/>
      <point x="77" y="769"/>
      <point x="44" y="769" type="curve"/>
      <point x="44" y="649"/>
      <point x="44" y="769"/>
    </contour>
  </outline>
</glyph>
<glyph name="b" format="1">
  <advance width="551"/>
  <unicode hex="0062"/>
  <outline>
    <contour>
      <point x="165" y="800" type="curve"/>
      <point x="120" y="800"/>
      <point x="74" y="800"/>
      <point x="32" y="800" type="curve"/>
      <point x="31" y="680"/>
      <point x="32" y="811"/>
      <point x="31" y="691" type="curve"/>
      <point x="180" y="690"/>
      <point x="16" y="691"/>
      <point x="165" y="690" type="curve"/>
      <point x="165" y="811"/>
      <point x="165" y="679"/>
    </contour>
    <contour>
      <point x="203" y="356" type="curve"/>
      <point x="220" y="380"/>
      <point x="256" y="424"/>
      <point x="303" y="424" type="curve"/>
      <point x="371" y="424"/>
      <point x="375" y="343"/>
      <point x="375" y="261" type="curve"/>
      <point x="376" y="183"/>
      <point x="369" y="109"/>
      <point x="306" y="109" type="curve"/>
      <point x="268" y="109"/>
      <point x="241" y="126"/>
      <point x="213" y="158" type="curve"/>
      <point x="135" y="107"/>
      <point x="222" y="164"/>
      <point x="144" y="113" type="curve"/>
      <point x="183" y="46"/>
      <point x="232" y="-5"/>
      <point x="318" y="-5" type="curve"/>
      <point x="446" y="-5"/>
      <point x="515" y="117"/>
      <point x="515" y="267" type="curve"/>
      <point x="515" y="417"/>
      <point x="449" y="538"/>
      <point x="322" y="538" type="curve"/>
      <point x="233" y="538"/>
      <point x="176" y="460"/>
      <point x="145" y="397" type="curve"/>
      <point x="209" y="347"/>
      <point x="139" y="405"/>
    </contour>
    <contour>
      <point x="234" y="0" type="curve"/>
      <point x="234" y="261"/>
      <point x="234" y="539"/>
      <point x="234" y="800" type="curve"/>
      <point x="79" y="800"/>
      <point x="249" y="800"/>
      <point x="93" y="800" type="curve"/>
      <point x="93" y="539"/>
      <point x="93" y="261"/>
      <point x="93" y="0" type="curve"/>
      <point x="249" y="0"/>
      <point x="79" y="0"/>
    </contour>
    <contour>
      <point x="165" y="109" type="curve"/>
      <point x="17" y="109"/>
      <point x="180" y="109"/>
      <point x="32" y="109" type="curve"/>
      <point x="32" y="-11"/>
      <point x="32" y="120"/>
      <point x="32" y="0" type="curve"/>
      <point x="74" y="0"/>
      <point x="121" y="0"/>
      <point x="165" y="0" type="curve"/>
      <point x="165" y="120"/>
      <point x="165" y="-11"/>
    </contour>
  </outline>
</glyph>
<glyph name="f" format="1">
  <advance width="370"/>
  <unicode hex="0066"/>
  <outline>
    <contour>
      <point x="238" y="770" type="curve"/>
      <point x="238" y="659"/>
      <point x="238" y="770"/>
      <point x="238" y="659" type="curve"/>
      <point x="348" y="659"/>
      <point x="238" y="659"/>
      <point x="348" y="659" type="curve"/>
      <point x="348" y="770"/>
      <point x="348" y="659"/>
      <point x="348" y="770" type="curve"/>
      <point x="238" y="770"/>
      <point x="348" y="770"/>
    </contour>
    <contour>
      <point x="149" y="-1" type="curve"/>
      <point x="191" y="-1"/>
      <point x="238" y="0"/>
      <point x="280" y="0" type="curve"/>
      <point x="280" y="110"/>
      <point x="280" y="0"/>
      <point x="280" y="110" type="curve"/>
      <point x="153" y="109"/>
      <point x="275" y="110"/>
      <point x="149" y="109" type="curve"/>
      <point x="149" y="-1"/>
      <point x="149" y="109"/>
    </contour>
    <contour>
      <point x="149" y="109" type="curve"/>
      <point x="22" y="110"/>
      <point x="144" y="109"/>
      <point x="17" y="110" type="curve"/>
      <point x="17" y="0"/>
      <point x="17" y="110"/>
      <point x="17" y="0" type="curve"/>
      <point x="60" y="0"/>
      <point x="107" y="-1"/>
      <point x="149" y="-1" type="curve"/>
      <point x="149" y="109"/>
      <point x="149" y="-1"/>
    </contour>
    <contour>
      <point x="22" y="424" type="curve"/>
      <point x="308" y="424" type="line"/>
      <point x="308" y="533"/>
      <point x="308" y="424"/>
      <point x="308" y="533" type="curve"/>
      <point x="22" y="533" type="line"/>
      <point x="22" y="424"/>
      <point x="22" y="533"/>
    </contour>
    <contour>
      <point x="218" y="0" type="curve"/>
      <point x="218" y="604" type="line"/>
      <point x="219" y="652"/>
      <point x="210" y="701"/>
      <point x="251" y="701" type="curve"/>
      <point x="267" y="701"/>
      <point x="279" y="691"/>
      <point x="291" y="683" type="curve"/>
      <point x="348" y="770"/>
      <point x="291" y="683"/>
      <point x="348" y="770" type="curve"/>
      <point x="320" y="791"/>
      <point x="286" y="806"/>
      <point x="251" y="806" type="curve"/>
      <point x="139" y="806"/>
      <point x="77" y="721"/>
      <point x="78" y="604" type="curve"/>
      <point x="78" y="0" type="line"/>
      <point x="218" y="0"/>
      <point x="78" y="0"/>
    </contour>
  </outline>
</glyph>
<glyph name="g" format="1">
  <advance width="470"/>
  <unicode hex="0067"/>
  <outline>
    <contour>
      <point x="245" y="610" type="move" name="top"/>
    </contour>
    <contour>
      <point x="343" y="424" type="curve"/>
      <point x="436" y="477" type="line"/>
      <point x="379" y="575" type="line"/>
      <point x="265" y="513" type="line"/>
      <point x="343" y="425"/>
      <point x="264" y="513"/>
    </contour>
    <contour>
      <point x="199" y="336" type="curve"/>
      <point x="199" y="381"/>
      <point x="208" y="428"/>
      <point x="245" y="428" type="curve"/>
      <point x="285" y="428"/>
      <point x="290" y="380"/>
      <point x="290" y="334" type="curve"/>
      <point x="290" y="293"/>
      <point x="283" y="249"/>
      <point x="245" y="249" type="curve"/>
      <point x="211" y="249"/>
      <point x="199" y="292"/>
      <point x="199" y="336" type="curve"/>
      <point x="58" y="330"/>
      <point x="199" y="336"/>
      <point x="58" y="330" type="curve"/>
      <point x="58" y="220"/>
      <point x="130" y="140"/>
      <point x="240" y="140" type="curve"/>
      <point x="354" y="140"/>
      <point x="430" y="222"/>
      <point x="430" y="339" type="curve"/>
      <point x="430" y="453"/>
      <point x="358" y="537"/>
      <point x="245" y="537" type="curve"/>
      <point x="129" y="537"/>
      <point x="58" y="449"/>
      <point x="58" y="330" type="curve"/>
      <point x="199" y="336"/>
      <point x="58" y="330"/>
    </contour>
    <contour>
      <point x="146" y="246" type="curve"/>
      <point x="95" y="212"/>
      <point x="61" y="172"/>
      <point x="61" y="112" type="curve"/>
      <point x="61" y="23"/>
      <point x="135" y="-24"/>
      <point x="229" y="-34" type="curve"/>
      <point x="286" y="-40"/>
      <point x="334" y="-60"/>
      <point x="334" y="-120" type="curve"/>
      <point x="334" y="-172"/>
      <point x="295" y="-196"/>
      <point x="243" y="-196" type="curve"/>
      <point x="196" y="-196"/>
      <point x="166" y="-157"/>
      <point x="166" y="-105" type="curve"/>
      <point x="166" y="-60"/>
      <point x="175" y="-16"/>
      <point x="212" y="3" type="curve"/>
      <point x="141" y="68"/>
      <point x="212" y="3"/>
      <point x="141" y="68" type="curve"/>
      <point x="69" y="32"/>
      <point x="26" y="-27"/>
      <point x="26" y="-110" type="curve"/>
      <point x="26" y="-230"/>
      <point x="114" y="-305"/>
      <point x="238" y="-305" type="curve"/>
      <point x="366" y="-305"/>
      <point x="464" y="-231"/>
      <point x="462" y="-109" type="curve"/>
      <point x="462" y="3"/>
      <point x="370" y="59"/>
      <point x="255" y="70" type="curve"/>
      <point x="224" y="73"/>
      <point x="201" y="90"/>
      <point x="201" y="123" type="curve"/>
      <point x="201" y="145"/>
      <point x="205" y="158"/>
      <point x="221" y="173" type="curve"/>
      <point x="146" y="246"/>
      <point x="221" y="173"/>
    </contour>
  </outline>
</glyph>
<glyph name="h" format="1">
  <advance width="525"/>
  <unicode hex="0068"/>
  <outline>
    <contour>
      <point x="388" y="-1" type="curve"/>
      <point x="431" y="-1"/>
      <point x="478" y="0"/>
      <point x="521" y="0" type="curve"/>
      <point x="521" y="109"/>
      <point x="521" y="0"/>
      <point x="521" y="109" type="curve"/>
      <point x="393" y="109"/>
      <point x="517" y="109"/>
      <point x="388" y="109" type="curve"/>
      <point x="388" y="-1"/>
      <point x="388" y="109"/>
    </contour>
    <contour>
      <point x="141" y="-1" type="curve"/>
      <point x="177" y="-1"/>
      <point x="145" y="-1"/>
      <point x="253" y="0" type="curve"/>
      <point x="253" y="109"/>
      <point x="253" y="0"/>
      <point x="253" y="109" type="curve"/>
      <point x="145" y="109"/>
      <point x="248" y="109"/>
      <point x="141" y="109" type="curve"/>
      <point x="141" y="-1"/>
      <point x="141" y="109"/>
    </contour>
    <contour>
      <point x="141" y="799" type="curve"/>
      <point x="98" y="799"/>
      <point x="50" y="800"/>
      <point x="8" y="800" type="curve"/>
      <point x="7" y="691"/>
      <point x="8" y="800"/>
      <point x="7" y="691" type="curve"/>
      <point x="136" y="690"/>
      <point x="11" y="691"/>
      <point x="141" y="690" type="curve"/>
      <point x="141" y="799"/>
      <point x="141" y="690"/>
    </contour>
    <contour>
      <point x="141" y="109" type="curve"/>
      <point x="12" y="109"/>
      <point x="136" y="109"/>
      <point x="8" y="109" type="curve"/>
      <point x="7" y="0"/>
      <point x="8" y="109"/>
      <point x="7" y="0" type="curve"/>
      <point x="50" y="0"/>
      <point x="98" y="-1"/>
      <point x="141" y="-1" type="curve"/>
      <point x="141" y="109"/>
      <point x="141" y="-1"/>
    </contour>
    <contour>
      <point x="179" y="306" type="curve"/>
      <point x="195" y="360"/>
      <point x="219" y="423"/>
      <point x="271" y="423" type="curve"/>
      <point x="326" y="423"/>
      <point x="318" y="371"/>
      <point x="318" y="311" type="curve"/>
      <point x="318" y="207"/>
      <point x="318" y="103"/>
      <point x="318" y="0" type="curve"/>
      <point x="459" y="0"/>
      <point x="318" y="0"/>
      <point x="459" y="0" type="curve"/>
      <point x="459" y="106"/>
      <point x="459" y="213"/>
      <point x="459" y="319" type="curve"/>
      <point x="459" y="439"/>
      <point x="434" y="532"/>
      <point x="315" y="532" type="curve"/>
      <point x="231" y="532"/>
      <point x="166" y="454"/>
      <point x="150" y="361" type="curve"/>
      <point x="179" y="307"/>
      <point x="150" y="361"/>
    </contour>
    <contour>
      <point x="210" y="0" type="curve"/>
      <point x="210" y="267"/>
      <point x="210" y="533"/>
      <point x="210" y="800" type="curve"/>
      <point x="70" y="800"/>
      <point x="210" y="800"/>
      <point x="70" y="800" type="curve"/>
      <point x="70" y="533"/>
      <point x="70" y="267"/>
      <point x="70" y="0" type="curve"/>
      <point x="210" y="0"/>
      <point x="70" y="0"/>
    </contour>
  </outline>
</glyph>
<glyph name="k" format="1">
  <advance width="500"/>
  <unicode hex="006B"/>
  <outline>
    <contour>
      <point x="341" y="0" type="move" name="bottom"/>
    </contour>
    <contour>
      <point x="139" y="109" type="curve"/>
      <point x="10" y="109"/>
      <point x="134" y="109"/>
      <point x="6" y="109" type="curve"/>
      <point x="6" y="0"/>
      <point x="6" y="109"/>
      <point x="6" y="0" type="curve"/>
      <point x="49" y="0"/>
      <point x="96" y="-1"/>
      <point x="139" y="-1" type="curve"/>
      <point x="139" y="109"/>
      <point x="139" y="-1"/>
    </contour>
    <contour>
      <point x="359" y="0" type="curve"/>
      <point x="398" y="0"/>
      <point x="445" y="0"/>
      <point x="484" y="0" type="curve"/>
      <point x="484" y="109"/>
      <point x="484" y="0"/>
      <point x="484" y="109" type="curve"/>
      <point x="370" y="109"/>
      <point x="476" y="109"/>
      <point x="363" y="109" type="curve"/>
      <point x="363" y="0"/>
      <point x="359" y="109"/>
    </contour>
    <contour>
      <point x="375" y="424" type="curve"/>
      <point x="459" y="424"/>
      <point x="382" y="424"/>
      <point x="466" y="424" type="curve"/>
      <point x="466" y="533"/>
      <point x="466" y="424"/>
      <point x="466" y="533" type="curve"/>
      <point x="439" y="533"/>
      <point x="402" y="533"/>
      <point x="375" y="533" type="curve"/>
      <point x="375" y="424"/>
      <point x="375" y="533"/>
    </contour>
    <contour>
      <point x="139" y="-1" type="curve"/>
      <point x="178" y="-1"/>
      <point x="139" y="-1"/>
      <point x="253" y="0" type="curve"/>
      <point x="253" y="109"/>
      <point x="253" y="0"/>
      <point x="253" y="109" type="curve"/>
      <point x="139" y="109"/>
      <point x="253" y="109"/>
      <point x="139" y="109" type="curve"/>
      <point x="139" y="-1"/>
      <point x="139" y="109"/>
    </contour>
    <contour>
      <point x="406" y="533" type="curve"/>
      <point x="352" y="533"/>
      <point x="294" y="533"/>
      <point x="238" y="533" type="curve"/>
      <point x="238" y="424"/>
      <point x="238" y="533"/>
      <point x="238" y="424" type="curve"/>
      <point x="405" y="424"/>
      <point x="239" y="424"/>
      <point x="406" y="424" type="curve"/>
      <point x="406" y="533"/>
      <point x="406" y="424"/>
    </contour>
    <contour>
      <point x="141" y="799" type="curve"/>
      <point x="98" y="799"/>
      <point x="50" y="800"/>
      <point x="7" y="800" type="curve"/>
      <point x="7" y="691"/>
      <point x="7" y="800"/>
      <point x="7" y="691" type="curve"/>
      <point x="136" y="690"/>
      <point x="11" y="691"/>
      <point x="141" y="690" type="curve"/>
      <point x="141" y="799"/>
      <point x="141" y="690"/>
    </contour>
    <contour>
      <point x="209" y="0" type="curve"/>
      <point x="209" y="800" type="line"/>
      <point x="69" y="800"/>
      <point x="209" y="800"/>
      <point x="69" y="800" type="curve"/>
      <point x="69" y="533"/>
      <point x="69" y="267"/>
      <point x="69" y="0" type="curve"/>
      <point x="209" y="0"/>
      <point x="69" y="0"/>
    </contour>
    <contour>
      <point x="342" y="533" type="curve"/>
      <point x="191" y="275" type="line"/>
      <point x="316" y="275"/>
      <point x="191" y="275"/>
      <point x="316" y="275" type="curve"/>
      <point x="448" y="479" type="line"/>
      <point x="351" y="479"/>
      <point x="439" y="533"/>
    </contour>
    <contour>
      <point x="456" y="72" type="curve"/>
      <point x="317" y="275" type="line"/>
      <point x="191" y="275"/>
      <point x="317" y="275"/>
      <point x="191" y="275" type="curve"/>
      <point x="360" y="0" type="line"/>
      <point x="445" y="0"/>
      <point x="371" y="72"/>
    </contour>
  </outline>
</glyph>
<glyph name="m" format="1">
  <advance width="799"/>
  <unicode hex="006D"/>
  <outline>
    <contour>
      <point x="403" y="0" type="curve"/>
      <point x="523" y="0"/>
      <point x="403" y="0"/>
      <point x="523" y="0" type="curve"/>
      <point x="523" y="109"/>
      <point x="523" y="0"/>
      <point x="523" y="109" type="curve"/>
      <point x="403" y="109"/>
      <point x="523" y="109"/>
      <point x="403" y="109" type="curve"/>
      <point x="403" y="0"/>
      <point x="403" y="109"/>
    </contour>
    <contour>
      <point x="626" y="0" type="curve"/>
      <point x="671" y="0"/>
      <point x="717" y="0"/>
      <point x="763" y="0" type="curve"/>
      <point x="763" y="109"/>
      <point x="763" y="0"/>
      <point x="763" y="109" type="curve"/>
      <point x="626" y="109"/>
      <point x="763" y="109"/>
      <point x="626" y="109" type="curve"/>
      <point x="626" y="0"/>
      <point x="626" y="109"/>
    </contour>
    <contour>
      <point x="181" y="109" type="curve"/>
      <point x="48" y="109"/>
      <point x="181" y="109"/>
      <point x="48" y="109" type="curve"/>
      <point x="47" y="0"/>
      <point x="48" y="109"/>
      <point x="47" y="0" type="curve"/>
      <point x="92" y="0"/>
      <point x="137" y="0"/>
      <point x="181" y="0" type="curve"/>
      <point x="181" y="109"/>
      <point x="181" y="0"/>
    </contour>
    <contour>
      <point x="181" y="0" type="curve"/>
      <point x="220" y="0"/>
      <point x="181" y="0"/>
      <point x="301" y="0" type="curve"/>
      <point x="301" y="109"/>
      <point x="301" y="0"/>
      <point x="301" y="109" type="curve"/>
      <point x="181" y="109"/>
      <point x="301" y="109"/>
      <point x="181" y="109" type="curve"/>
      <point x="181" y="0"/>
      <point x="181" y="109"/>
    </contour>
    <contour>
      <point x="181" y="533" type="curve"/>
      <point x="137" y="533"/>
      <point x="92" y="533"/>
      <point x="48" y="533" type="curve"/>
      <point x="47" y="424"/>
      <point x="48" y="533"/>
      <point x="47" y="424" type="curve"/>
      <point x="181" y="424"/>
      <point x="47" y="424"/>
      <point x="181" y="424" type="curve"/>
      <point x="181" y="533"/>
      <point x="181" y="424"/>
    </contour>
    <contour>
      <point x="441" y="273" type="curve"/>
      <point x="454" y="342"/>
      <point x="462" y="424"/>
      <point x="516" y="424" type="curve"/>
      <point x="571" y="424"/>
      <point x="554" y="373"/>
      <point x="554" y="308" type="curve"/>
      <point x="554" y="205"/>
      <point x="554" y="103"/>
      <point x="554" y="0" type="curve"/>
      <point x="694" y="0"/>
      <point x="554" y="0"/>
      <point x="694" y="0" type="curve"/>
      <point x="694" y="106"/>
      <point x="694" y="213"/>
      <point x="694" y="319" type="curve"/>
      <point x="694" y="447"/>
      <point x="694" y="538"/>
      <point x="571" y="538" type="curve"/>
      <point x="484" y="538"/>
      <point x="430" y="453"/>
      <point x="412" y="339" type="curve"/>
      <point x="446" y="277"/>
      <point x="407" y="336"/>
    </contour>
    <contour>
      <point x="220" y="272" type="curve"/>
      <point x="231" y="341"/>
      <point x="240" y="424"/>
      <point x="295" y="424" type="curve"/>
      <point x="349" y="424"/>
      <point x="332" y="373"/>
      <point x="332" y="308" type="curve"/>
      <point x="332" y="205"/>
      <point x="332" y="103"/>
      <point x="332" y="0" type="curve"/>
      <point x="473" y="0"/>
      <point x="332" y="0"/>
      <point x="473" y="0" type="curve"/>
      <point x="473" y="106"/>
      <point x="473" y="213"/>
      <point x="473" y="319" type="curve"/>
      <point x="473" y="447"/>
      <point x="472" y="538"/>
      <point x="349" y="538" type="curve"/>
      <point x="261" y="538"/>
      <point x="208" y="453"/>
      <point x="191" y="338" type="curve"/>
      <point x="224" y="276"/>
      <point x="185" y="335"/>
    </contour>
    <contour>
      <point x="251" y="0" type="curve"/>
      <point x="251" y="178"/>
      <point x="251" y="355"/>
      <point x="251" y="533" type="curve"/>
      <point x="111" y="533"/>
      <point x="251" y="533"/>
      <point x="111" y="533" type="curve"/>
      <point x="111" y="355"/>
      <point x="111" y="178"/>
      <point x="111" y="0" type="curve"/>
      <point x="251" y="0"/>
      <point x="111" y="0"/>
    </contour>
  </outline>
</glyph>
<glyph name="n" format="1">
  <advance width="543"/>
  <unicode hex="006E"/>
  <outline>
    <contour>
      <point x="275" y="610" type="move" name="top"/>
    </contour>
    <contour>
      <point x="346" y="-2" type="move" name="bottom"/>
    </contour>
    <contour>
      <point x="201" y="266" type="curve"/>
      <point x="212" y="342"/>
      <point x="237" y="424"/>
      <point x="286" y="424" type="curve"/>
      <point x="338" y="424"/>
      <point x="336" y="371"/>
      <point x="336" y="308" type="curve"/>
      <point x="336" y="207"/>
      <point x="336" y="102"/>
      <point x="336" y="0" type="curve"/>
      <point x="492" y="0"/>
      <point x="321" y="0"/>
      <point x="476" y="0" type="curve"/>
      <point x="476" y="105"/>
      <point x="476" y="215"/>
      <point x="476" y="319" type="curve"/>
      <point x="476" y="442"/>
      <point x="457" y="538"/>
      <point x="341" y="538" type="curve"/>
      <point x="256" y="538"/>
      <point x="188" y="462"/>
      <point x="168" y="331" type="curve"/>
      <point x="210" y="262"/>
      <point x="158" y="334"/>
    </contour>
    <contour>
      <point x="406" y="0" type="curve"/>
      <point x="448" y="0"/>
      <point x="495" y="0"/>
      <point x="539" y="0" type="curve"/>
      <point x="539" y="109"/>
      <point x="539" y="0"/>
      <point x="539" y="109" type="curve"/>
      <point x="410" y="109"/>
      <point x="534" y="109"/>
      <point x="406" y="109" type="curve"/>
      <point x="406" y="0"/>
      <point x="406" y="109"/>
    </contour>
    <contour>
      <point x="158" y="109" type="curve"/>
      <point x="29" y="109"/>
      <point x="154" y="109"/>
      <point x="24" y="109" type="curve"/>
      <point x="24" y="0"/>
      <point x="24" y="109"/>
      <point x="24" y="0" type="curve"/>
      <point x="67" y="0"/>
      <point x="115" y="0"/>
      <point x="158" y="0" type="curve"/>
      <point x="158" y="109"/>
      <point x="158" y="0"/>
    </contour>
    <contour>
      <point x="158" y="0" type="curve"/>
      <point x="199" y="0"/>
      <point x="163" y="0"/>
      <point x="284" y="0" type="curve"/>
      <point x="284" y="109"/>
      <point x="284" y="0"/>
      <point x="284" y="109" type="curve"/>
      <point x="163" y="109"/>
      <point x="280" y="109"/>
      <point x="158" y="109" type="curve"/>
      <point x="158" y="0"/>
      <point x="158" y="109"/>
    </contour>
    <contour>
      <point x="228" y="0" type="curve"/>
      <point x="228" y="178"/>
      <point x="228" y="355"/>
      <point x="228" y="533" type="curve"/>
      <point x="88" y="533"/>
      <point x="228" y="533"/>
      <point x="88" y="533" type="curve"/>
      <point x="88" y="355"/>
      <point x="88" y="178"/>
      <point x="88" y="0" type="curve"/>
      <point x="228" y="0"/>
      <point x="88" y="0"/>
    </contour>
    <contour>
      <point x="158" y="533" type="curve"/>
      <point x="115" y="533"/>
      <point x="67" y="533"/>
      <point x="24" y="533" type="curve"/>
      <point x="24" y="424"/>
      <point x="24" y="533"/>
      <point x="24" y="424" type="curve"/>
      <point x="154" y="424"/>
      <point x="29" y="424"/>
      <point x="158" y="424" type="curve"/>
      <point x="158" y="533"/>
      <point x="158" y="424"/>
    </contour>
  </outline>
</glyph>
<glyph name="x" format="1">
  <advance width="514"/>
  <unicode hex="0078"/>
  <outline>
    <contour>
      <point x="100" y="109" type="curve"/>
      <point x="49" y="109"/>
      <point x="82" y="109"/>
      <point x="31" y="109" type="curve"/>
      <point x="31" y="0"/>
      <point x="31" y="109"/>
      <point x="31" y="0" type="curve"/>
      <point x="48" y="0"/>
      <point x="82" y="0"/>
      <point x="100" y="0" type="curve"/>
      <point x="100" y="109"/>
      <point x="100" y="0"/>
    </contour>
    <contour>
      <point x="444" y="109" type="curve"/>
      <point x="308" y="109"/>
      <point x="420" y="109"/>
      <point x="284" y="109" type="curve"/>
      <point x="284" y="0"/>
      <point x="284" y="109"/>
      <point x="284" y="0" type="curve"/>
      <point x="329" y="0"/>
      <point x="398" y="0"/>
      <point x="444" y="0" type="curve"/>
      <point x="444" y="109"/>
      <point x="444" y="0"/>
    </contour>
    <contour>
      <point x="421" y="0" type="curve"/>
      <point x="440" y="0"/>
      <point x="486" y="0"/>
      <point x="505" y="0" type="curve"/>
      <point x="505" y="109"/>
      <point x="505" y="0"/>
      <point x="505" y="109" type="curve"/>
      <point x="450" y="109"/>
      <point x="476" y="109"/>
      <point x="421" y="109" type="curve"/>
      <point x="421" y="0"/>
      <point x="421" y="109"/>
    </contour>
    <contour>
      <point x="77" y="0" type="curve"/>
      <point x="124" y="0"/>
      <point x="97" y="0"/>
      <point x="236" y="0" type="curve"/>
      <point x="236" y="109"/>
      <point x="236" y="0"/>
      <point x="236" y="109" type="curve"/>
      <point x="97" y="109"/>
      <point x="215" y="109"/>
      <point x="77" y="109" type="curve"/>
      <point x="77" y="0"/>
      <point x="77" y="109"/>
    </contour>
    <contour>
      <point x="413" y="424" type="curve"/>
      <point x="473" y="424"/>
      <point x="448" y="424"/>
      <point x="508" y="424" type="curve"/>
      <point x="508" y="533"/>
      <point x="508" y="424"/>
      <point x="508" y="533" type="curve"/>
      <point x="488" y="533"/>
      <point x="433" y="533"/>
      <point x="413" y="533" type="curve"/>
      <point x="413" y="424"/>
      <point x="413" y="533"/>
    </contour>
    <contour>
      <point x="151" y="533" type="curve"/>
      <point x="125" y="533"/>
      <point x="77" y="533"/>
      <point x="52" y="533" type="curve"/>
      <point x="52" y="424"/>
      <point x="52" y="533"/>
      <point x="52" y="424" type="curve"/>
      <point x="127" y="424"/>
      <point x="76" y="424"/>
      <point x="151" y="424" type="curve"/>
      <point x="151" y="533"/>
      <point x="151" y="424"/>
    </contour>
    <contour>
      <point x="121" y="424" type="curve"/>
      <point x="245" y="424"/>
      <point x="131" y="424"/>
      <point x="255" y="424" type="curve"/>
      <point x="255" y="533"/>
      <point x="255" y="424"/>
      <point x="255" y="533" type="curve"/>
      <point x="216" y="533"/>
      <point x="162" y="533"/>
      <point x="121" y="533" type="curve"/>
      <point x="121" y="424"/>
      <point x="121" y="533"/>
    </contour>
    <contour>
      <point x="448" y="533" type="curve"/>
      <point x="400" y="533"/>
      <point x="342" y="533"/>
      <point x="295" y="533" type="curve"/>
      <point x="295" y="424"/>
      <point x="295" y="533"/>
      <point x="295" y="424" type="curve"/>
      <point x="438" y="424"/>
      <point x="306" y="424"/>
      <point x="448" y="424" type="curve"/>
      <point x="448" y="533"/>
      <point x="448" y="424"/>
    </contour>
    <contour>
      <point x="481" y="40" type="curve"/>
      <point x="171" y="533" type="line"/>
      <point x="100" y="533"/>
      <point x="133" y="484"/>
      <point x="62" y="484" type="curve"/>
      <point x="368" y="0" type="line"/>
      <point x="443" y="0"/>
      <point x="406" y="40"/>
    </contour>
    <contour>
      <point x="383" y="533" type="curve"/>
      <point x="51" y="51" type="line"/>
      <point x="117" y="51"/>
      <point x="89" y="0"/>
      <point x="155" y="0" type="curve"/>
      <point x="495" y="494" type="line"/>
      <point x="422" y="494"/>
      <point x="456" y="533"/>
    </contour>
  </outline>
</glyph>
<glyph name="y" format="1">
  <advance width="572"/>
  <unicode hex="0079"/>
  <outline>
    <contour>
      <point x="287" y="610" type="move" name="top"/>
    </contour>
    <contour>
      <point x="196" y="-189" type="curve"/>
      <point x="92" y="-191"/>
      <point x="196" y="-189"/>
      <point x="92" y="-191" type="curve"/>
      <point x="92" y="-300"/>
      <point x="92" y="-191"/>
      <point x="92" y="-300" type="curve"/>
      <point x="127" y="-300"/>
      <point x="161" y="-299"/>
      <point x="196" y="-299" type="curve"/>
      <point x="196" y="-189"/>
      <point x="196" y="-299"/>
    </contour>
    <contour>
      <point x="118" y="534" type="curve"/>
      <point x="85" y="534"/>
      <point x="51" y="533"/>
      <point x="18" y="533" type="curve"/>
      <point x="17" y="424"/>
      <point x="18" y="533"/>
      <point x="17" y="424" type="curve"/>
      <point x="118" y="425"/>
      <point x="17" y="424"/>
      <point x="118" y="425" type="curve"/>
      <point x="118" y="534"/>
      <point x="118" y="425"/>
    </contour>
    <contour>
      <point x="118" y="425" type="curve"/>
      <point x="250" y="424"/>
      <point x="118" y="425"/>
      <point x="250" y="424" type="curve"/>
      <point x="250" y="533"/>
      <point x="250" y="424"/>
      <point x="250" y="533" type="curve"/>
      <point x="206" y="533"/>
      <point x="162" y="534"/>
      <point x="118" y="534" type="curve"/>
      <point x="118" y="425"/>
      <point x="118" y="534"/>
    </contour>
    <contour>
      <point x="467" y="534" type="curve"/>
      <point x="424" y="534"/>
      <point x="380" y="533"/>
      <point x="337" y="533" type="curve"/>
      <point x="337" y="424"/>
      <point x="337" y="533"/>
      <point x="337" y="424" type="curve"/>
      <point x="467" y="425"/>
      <point x="337" y="424"/>
      <point x="467" y="425" type="curve"/>
      <point x="467" y="534"/>
      <point x="467" y="425"/>
    </contour>
    <contour>
      <point x="467" y="425" type="curve"/>
      <point x="563" y="424"/>
      <point x="467" y="425"/>
      <point x="563" y="424" type="curve"/>
      <point x="563" y="533"/>
      <point x="563" y="424"/>
      <point x="563" y="533" type="curve"/>
      <point x="531" y="533"/>
      <point x="498" y="534"/>
      <point x="467" y="534" type="curve"/>
      <point x="467" y="425"/>
      <point x="467" y="534"/>
    </contour>
    <contour>
      <point x="353" y="-26" type="curve"/>
      <point x="284" y="188"/>
      <point x="256" y="318"/>
      <point x="187" y="533" type="curve"/>
      <point x="44" y="533"/>
      <point x="187" y="533"/>
      <point x="44" y="533" type="curve"/>
      <point x="118" y="320"/>
      <point x="148" y="189"/>
      <point x="223" y="-24" type="curve"/>
      <point x="353" y="-24"/>
      <point x="223" y="-26"/>
    </contour>
    <contour>
      <point x="260" y="-300" type="curve"/>
      <point x="376" y="20"/>
      <point x="425" y="213"/>
      <point x="541" y="533" type="curve"/>
      <point x="399" y="533"/>
      <point x="541" y="533"/>
      <point x="399" y="533" type="curve"/>
      <point x="281" y="213"/>
      <point x="233" y="20"/>
      <point x="117" y="-300" type="curve"/>
      <point x="260" y="-300"/>
      <point x="117" y="-300"/>
    </contour>
  </outline>
</glyph>
<glyph name="braceleft" format="1">
  <advance width="230"/>
  <unicode hex="007B"/>
  <outline>
    <contour>
      <point x="187" y="1" type="curve"/>
      <point x="160" y="1"/>
      <point x="173" y="35"/>
      <point x="173" y="66" type="curve"/>
      <point x="173" y="117"/>
      <point x="173" y="168"/>
      <point x="173" y="219" type="curve"/>
      <point x="173" y="320"/>
      <point x="126" y="398"/>
      <point x="33" y="398" type="curve"/>
      <point x="33" y="283"/>
      <point x="33" y="398"/>
      <point x="33" y="283" type="curve"/>
      <point x="53" y="283"/>
      <point x="46" y="255"/>
      <point x="46" y="230" type="curve"/>
      <point x="46" y="177"/>
      <point x="46" y="124"/>
      <point x="46" y="72" type="curve"/>
      <point x="46" y="-32"/>
      <point x="91" y="-108"/>
      <point x="187" y="-108" type="curve"/>
      <point x="187" y="1"/>
      <point x="187" y="-108"/>
    </contour>
    <contour>
      <point x="187" y="790" type="curve"/>
      <point x="91" y="790"/>
      <point x="46" y="716"/>
      <point x="46" y="614" type="curve"/>
      <point x="46" y="559"/>
      <point x="46" y="504"/>
      <point x="46" y="449" type="curve"/>
      <point x="46" y="425"/>
      <point x="52" y="398"/>
      <point x="33" y="398" type="curve"/>
      <point x="33" y="283"/>
      <point x="33" y="398"/>
      <point x="33" y="283" type="curve"/>
      <point x="127" y="283"/>
      <point x="173" y="362"/>
      <point x="173" y="466" type="curve"/>
      <point x="173" y="515"/>
      <point x="173" y="564"/>
      <point x="173" y="614" type="curve"/>
      <point x="173" y="646"/>
      <point x="159" y="680"/>
      <point x="187" y="680" type="curve"/>
      <point x="187" y="790"/>
      <point x="187" y="680"/>
    </contour>
  </outline>
</glyph>
<glyph name="bar" format="1">
  <advance width="271"/>
  <unicode hex="007C"/>
  <outline>
    <contour>
      <point x="206" y="-300" type="curve"/>
      <point x="206" y="67"/>
      <point x="206" y="433"/>
      <point x="206" y="800" type="curve"/>
      <point x="65" y="800"/>
      <point x="206" y="800"/>
      <point x="65" y="800" type="curve"/>
      <point x="65" y="433"/>
      <point x="65" y="67"/>
      <point x="65" y="-300" type="curve"/>
      <point x="206" y="-300"/>
      <point x="65" y="-300"/>
    </contour>
  </outline>
</glyph>
<glyph name="sterling" format="1">
  <advance width="385"/>
  <unicode hex="00A3"/>
  <outline>
    <contour>
      <point x="322" y="110" type="curve"/>
      <point x="233" y="110"/>
      <point x="133" y="110"/>
      <point x="44" y="110" type="curve"/>
      <point x="44" y="0"/>
      <point x="44" y="110"/>
      <point x="44" y="0" type="curve"/>
      <point x="133" y="0"/>
      <point x="232" y="0"/>
      <point x="322" y="0" type="curve"/>
      <point x="322" y="110"/>
      <point x="322" y="0"/>
    </contour>
    <contour>
      <point x="282" y="430" type="curve"/>
      <point x="210" y="430"/>
      <point x="126" y="430"/>
      <point x="55" y="430" type="curve"/>
      <point x="55" y="321"/>
      <point x="55" y="430"/>
      <point x="55" y="321" type="curve"/>
      <point x="126" y="321"/>
      <point x="210" y="321"/>
      <point x="282" y="321" type="curve"/>
      <point x="282" y="430"/>
      <point x="282" y="321"/>
    </contour>
    <contour>
      <point x="352" y="660" type="curve"/>
      <point x="316" y="707"/>
      <point x="281" y="720"/>
      <point x="233" y="720" type="curve"/>
      <point x="80" y="720"/>
      <point x="57" y="556"/>
      <point x="87" y="362" type="curve"/>
      <point x="107" y="234"/>
      <point x="109" y="110"/>
      <point x="44" y="110" type="curve"/>
      <point x="44" y="0"/>
      <point x="44" y="110"/>
      <point x="44" y="0" type="curve"/>
      <point x="213" y="0"/>
      <point x="239" y="177"/>
      <point x="208" y="386" type="curve"/>
      <point x="191" y="501"/>
      <point x="176" y="616"/>
      <point x="226" y="616" type="curve"/>
      <point x="251" y="616"/>
      <point x="263" y="598"/>
      <point x="280" y="580" type="curve"/>
      <point x="352" y="660"/>
      <point x="280" y="580"/>
    </contour>
  </outline>
</glyph>
<glyph name="currency" format="1">
  <advance width="575"/>
  <unicode hex="00A4"/>
  <outline>
    <contour>
      <point x="250" y="317" type="curve"/>
      <point x="250" y="357"/>
      <point x="250" y="401"/>
      <point x="284" y="401" type="curve"/>
      <point x="320" y="401"/>
      <point x="321" y="363"/>
      <point x="321" y="318" type="curve"/>
      <point x="321" y="276"/>
      <point x="320" y="227"/>
      <point x="285" y="227" type="curve"/>
      <point x="248" y="227"/>
      <point x="250" y="272"/>
      <point x="250" y="317" type="curve"/>
      <point x="110" y="317"/>
      <point x="260" y="317"/>
      <point x="119" y="317" type="curve"/>
      <point x="119" y="201"/>
      <point x="179" y="118"/>
      <point x="288" y="118" type="curve"/>
      <point x="397" y="118"/>
      <point x="455" y="204"/>
      <point x="455" y="320" type="curve"/>
      <point x="455" y="430"/>
      <point x="400" y="510"/>
      <point x="295" y="510" type="curve"/>
      <point x="185" y="510"/>
      <point x="119" y="430"/>
      <point x="119" y="317" type="curve"/>
      <point x="260" y="317"/>
      <point x="110" y="317"/>
    </contour>
    <contour>
      <point x="364" y="344" type="line"/>
      <point x="523" y="489" type="line"/>
      <point x="426" y="587" type="line"/>
      <point x="281" y="427" type="line"/>
    </contour>
    <contour>
      <point x="288" y="210" type="line"/>
      <point x="433" y="51" type="line"/>
      <point x="530" y="148" type="line"/>
      <point x="371" y="293" type="line"/>
    </contour>
    <contour>
      <point x="205" y="292" type="line"/>
      <point x="46" y="146" type="line"/>
      <point x="143" y="49" type="line"/>
      <point x="288" y="208" type="line"/>
    </contour>
    <contour>
      <point x="298" y="428" type="line"/>
      <point x="153" y="587" type="line"/>
      <point x="55" y="490" type="line"/>
      <point x="214" y="345" type="line"/>
    </contour>
  </outline>
</glyph>
<glyph name="section" format="1">
  <advance width="449"/>
  <unicode hex="00A7"/>
  <outline>
    <contour>
      <point x="353" y="697" type="curve"/>
      <point x="310" y="733"/>
      <point x="278" y="748"/>
      <point x="230" y="748" type="curve"/>
      <point x="130" y="748"/>
      <point x="69" y="687"/>
      <point x="69" y="594" type="curve"/>
      <point x="69" y="513"/>
      <point x="108" y="460"/>
      <point x="182" y="427" type="curve"/>
      <point x="221" y="408"/>
      <point x="264" y="399"/>
      <point x="264" y="362" type="curve"/>
      <point x="264" y="321"/>
      <point x="245" y="291"/>
      <point x="206" y="282" type="curve"/>
      <point x="290" y="193"/>
      <point x="206" y="282"/>
      <point x="290" y="193" type="curve"/>
      <point x="368" y="217"/>
      <point x="405" y="278"/>
      <point x="405" y="361" type="curve"/>
      <point x="404" y="451"/>
      <point x="338" y="495"/>
      <point x="252" y="531" type="curve"/>
      <point x="224" y="543"/>
      <point x="199" y="563"/>
      <point x="199" y="594" type="curve"/>
      <point x="199" y="615"/>
      <point x="209" y="639"/>
      <point x="233" y="639" type="curve"/>
      <point x="261" y="639"/>
      <point x="269" y="627"/>
      <point x="285" y="611" type="curve"/>
      <point x="353" y="697"/>
      <point x="285" y="611"/>
    </contour>
    <contour>
      <point x="161" y="528" type="curve"/>
      <point x="86" y="498"/>
      <point x="45" y="446"/>
      <point x="45" y="366" type="curve"/>
      <point x="45" y="279"/>
      <point x="98" y="228"/>
      <point x="180" y="194" type="curve"/>
      <point x="213" y="179"/>
      <point x="251" y="172"/>
      <point x="251" y="134" type="curve"/>
      <point x="251" y="109"/>
      <point x="241" y="83"/>
      <point x="223" y="83" type="curve"/>
      <point x="192" y="83"/>
      <point x="179" y="99"/>
      <point x="160" y="120" type="curve"/>
      <point x="80" y="45"/>
      <point x="160" y="120"/>
      <point x="80" y="45" type="curve"/>
      <point x="123" y="-8"/>
      <point x="163" y="-26"/>
      <point x="222" y="-26" type="curve"/>
      <point x="320" y="-26"/>
      <point x="385" y="34"/>
      <point x="385" y="133" type="curve"/>
      <point x="384" y="213"/>
      <point x="344" y="267"/>
      <point x="269" y="298" type="curve"/>
      <point x="228" y="316"/>
      <point x="186" y="326"/>
      <point x="186" y="364" type="curve"/>
      <point x="186" y="402"/>
      <point x="198" y="432"/>
      <point x="231" y="445" type="curve"/>
      <point x="161" y="528"/>
      <point x="231" y="445"/>
    </contour>
    <contour>
      <point x="191" y="45" type="curve"/>
      <point x="191" y="165"/>
      <point x="191" y="37"/>
      <point x="191" y="157" type="curve"/>
      <point x="80" y="157"/>
      <point x="191" y="157"/>
      <point x="80" y="157" type="curve"/>
      <point x="80" y="37"/>
      <point x="80" y="165"/>
      <point x="80" y="45" type="curve"/>
      <point x="191" y="45"/>
      <point x="80" y="45"/>
    </contour>
    <contour>
      <point x="353" y="585" type="curve"/>
      <point x="353" y="705"/>
      <point x="353" y="577"/>
      <point x="353" y="697" type="curve"/>
      <point x="242" y="697"/>
      <point x="353" y="697"/>
      <point x="242" y="697" type="curve"/>
      <point x="242" y="577"/>
      <point x="242" y="705"/>
      <point x="242" y="585" type="curve"/>
      <point x="353" y="585"/>
      <point x="242" y="585"/>
    </contour>
  </outline>
</glyph>
<glyph name="dieresis" format="1">
  <advance width="366"/>
  <unicode hex="00A8"/>
  <outline>
    <contour>
      <point x="188" y="621" type="move" name="_top"/>
    </contour>
    <contour>
      <point x="163" y="685" type="curve"/>
      <point x="163" y="733"/>
      <point x="133" y="757"/>
      <point x="91" y="757" type="curve"/>
      <point x="49" y="757"/>
      <point x="21" y="731"/>
      <point x="21" y="685" type="curve"/>
      <point x="163" y="685"/>
      <point x="21" y="685"/>
      <point x="163" y="685" type="curve"/>
      <point x="163" y="637"/>
      <point x="135" y="615"/>
      <point x="91" y="615" type="curve"/>
      <point x="49" y="615"/>
      <point x="21" y="639"/>
      <point x="21" y="685" type="curve"/>
      <point x="163" y="685"/>
      <point x="21" y="685"/>
    </contour>
    <contour>
      <point x="357" y="685" type="curve"/>
      <point x="357" y="733"/>
      <point x="327" y="757"/>
      <point x="285" y="757" type="curve"/>
      <point x="243" y="757"/>
      <point x="215" y="731"/>
      <point x="215" y="685" type="curve"/>
      <point x="357" y="685"/>
      <point x="215" y="685"/>
      <point x="357" y="685" type="curve"/>
      <point x="357" y="637"/>
      <point x="328" y="615"/>
      <point x="285" y="615" type="curve"/>
      <point x="243" y="615"/>
      <point x="215" y="639"/>
      <point x="215" y="685" type="curve"/>
      <point x="357" y="685"/>
      <point x="215" y="685"/>
    </contour>
  </outline>
</glyph>
<glyph name="ordfeminine" format="1">
  <advance width="356"/>
  <unicode hex="00AA"/>
  <outline>
    <contour>
      <point x="57" y="719" type="curve"/>
      <point x="57" y="648"/>
      <point x="57" y="719"/>
      <point x="57" y="649" type="curve"/>
      <point x="129" y="649"/>
      <point x="57" y="649"/>
      <point x="129" y="649" type="curve"/>
      <point x="129" y="719"/>
      <point x="129" y="648"/>
      <point x="129" y="719" type="curve"/>
      <point x="57" y="719"/>
      <point x="129" y="719"/>
    </contour>
    <contour>
      <point x="279" y="424" type="curve"/>
      <point x="279" y="502"/>
      <point x="279" y="583"/>
      <point x="279" y="661" type="curve"/>
      <point x="279" y="734"/>
      <point x="234" y="767"/>
      <point x="165" y="767" type="curve"/>
      <point x="115" y="767"/>
      <point x="81" y="746"/>
      <point x="57" y="719" type="curve"/>
      <point x="91" y="660"/>
      <point x="56" y="719"/>
      <point x="90" y="660" type="curve"/>
      <point x="104" y="677"/>
      <point x="123" y="694"/>
      <point x="152" y="694" type="curve"/>
      <point x="179" y="694"/>
      <point x="190" y="677"/>
      <point x="190" y="651" type="curve"/>
      <point x="190" y="575"/>
      <point x="190" y="499"/>
      <point x="190" y="424" type="curve"/>
      <point x="279" y="424"/>
      <point x="190" y="424"/>
    </contour>
    <contour>
      <point x="235" y="424" type="curve"/>
      <point x="260" y="424"/>
      <point x="287" y="424"/>
      <point x="312" y="424" type="curve"/>
      <point x="312" y="494"/>
      <point x="312" y="424"/>
      <point x="312" y="494" type="curve"/>
      <point x="235" y="494"/>
      <point x="312" y="494"/>
      <point x="235" y="494" type="curve"/>
      <point x="235" y="424"/>
      <point x="235" y="494"/>
    </contour>
    <contour>
      <point x="233" y="647" type="curve"/>
      <point x="199" y="642"/>
      <point x="180" y="640"/>
      <point x="148" y="634" type="curve"/>
      <point x="82" y="624"/>
      <point x="40" y="593"/>
      <point x="40" y="529" type="curve"/>
      <point x="40" y="463"/>
      <point x="72" y="421"/>
      <point x="136" y="421" type="curve"/>
      <point x="200" y="421"/>
      <point x="223" y="480"/>
      <point x="257" y="522" type="curve"/>
      <point x="211" y="561"/>
      <point x="258" y="522"/>
      <point x="211" y="561" type="curve"/>
      <point x="200" y="524"/>
      <point x="193" y="491"/>
      <point x="159" y="491" type="curve"/>
      <point x="134" y="491"/>
      <point x="127" y="507"/>
      <point x="127" y="534" type="curve"/>
      <point x="127" y="552"/>
      <point x="138" y="570"/>
      <point x="152" y="573" type="curve"/>
      <point x="187" y="579"/>
      <point x="200" y="581"/>
      <point x="235" y="588" type="curve"/>
      <point x="233" y="647"/>
      <point x="235" y="588"/>
    </contour>
  </outline>
</glyph>
<glyph name="guillemotleft" format="1">
  <advance width="407"/>
  <unicode hex="00AB"/>
  <outline>
    <contour>
      <point x="181" y="490" type="curve"/>
      <point x="144" y="455"/>
      <point x="79" y="394"/>
      <point x="40" y="359" type="curve"/>
      <point x="40" y="238"/>
      <point x="40" y="336"/>
      <point x="40" y="215" type="curve"/>
      <point x="79" y="250"/>
      <point x="144" y="324"/>
      <point x="181" y="359" type="curve"/>
      <point x="181" y="479"/>
      <point x="181" y="370"/>
    </contour>
    <contour>
      <point x="181" y="218" type="curve"/>
      <point x="144" y="253"/>
      <point x="79" y="324"/>
      <point x="40" y="359" type="curve"/>
      <point x="40" y="238"/>
      <point x="40" y="336"/>
      <point x="40" y="215" type="curve"/>
      <point x="79" y="180"/>
      <point x="144" y="121"/>
      <point x="181" y="87" type="curve"/>
      <point x="181" y="207"/>
      <point x="181" y="98"/>
    </contour>
    <contour>
      <point x="345" y="490" type="curve"/>
      <point x="307" y="455"/>
      <point x="242" y="394"/>
      <point x="204" y="359" type="curve"/>
      <point x="204" y="238"/>
      <point x="204" y="336"/>
      <point x="204" y="215" type="curve"/>
      <point x="242" y="250"/>
      <point x="307" y="324"/>
      <point x="345" y="359" type="curve"/>
      <point x="345" y="479"/>
      <point x="345" y="370"/>
    </contour>
    <contour>
      <point x="345" y="218" type="curve"/>
      <point x="307" y="253"/>
      <point x="242" y="324"/>
      <point x="204" y="359" type="curve"/>
      <point x="204" y="238"/>
      <point x="204" y="336"/>
      <point x="204" y="215" type="curve"/>
      <point x="242" y="180"/>
      <point x="307" y="121"/>
      <point x="345" y="87" type="curve"/>
      <point x="345" y="207"/>
      <point x="345" y="98"/>
    </contour>
  </outline>
</glyph>
<glyph name="ordmasculine" format="1">
  <advance width="343"/>
  <unicode hex="00BA"/>
  <outline>
    <contour>
      <point x="118" y="591" type="curve"/>
      <point x="118" y="639"/>
      <point x="123" y="691"/>
      <point x="168" y="691" type="curve"/>
      <point x="211" y="691"/>
      <point x="218" y="642"/>
      <point x="218" y="591" type="curve"/>
      <point x="218" y="540"/>
      <point x="215" y="493"/>
      <point x="174" y="493" type="curve"/>
      <point x="122" y="493"/>
      <point x="118" y="539"/>
      <point x="118" y="591" type="curve"/>
      <point x="134" y="591"/>
      <point x="20" y="591"/>
      <point x="37" y="591" type="curve"/>
      <point x="37" y="492"/>
      <point x="79" y="420"/>
      <point x="170" y="420" type="curve"/>
      <point x="262" y="420"/>
      <point x="307" y="491"/>
      <point x="307" y="591" type="curve"/>
      <point x="307" y="692"/>
      <point x="264" y="764"/>
      <point x="172" y="764" type="curve"/>
      <point x="79" y="764"/>
      <point x="37" y="692"/>
      <point x="37" y="591" type="curve"/>
      <point x="20" y="591"/>
      <point x="134" y="591"/>
    </contour>
  </outline>
</glyph>
<glyph name="guillemotright" format="1">
  <advance width="407"/>
  <unicode hex="00BB"/>
  <outline>
    <contour>
      <point x="226" y="490" type="curve"/>
      <point x="263" y="455"/>
      <point x="328" y="394"/>
      <point x="367" y="359" type="curve"/>
      <point x="367" y="238"/>
      <point x="367" y="336"/>
      <point x="367" y="215" type="curve"/>
      <point x="328" y="250"/>
      <point x="263" y="324"/>
      <point x="226" y="359" type="curve"/>
      <point x="226" y="479"/>
      <point x="226" y="370"/>
    </contour>
    <contour>
      <point x="226" y="218" type="curve"/>
      <point x="263" y="253"/>
      <point x="328" y="324"/>
      <point x="367" y="359" type="curve"/>
      <point x="367" y="238"/>
      <point x="367" y="336"/>
      <point x="367" y="215" type="curve"/>
      <point x="328" y="180"/>
      <point x="263" y="121"/>
      <point x="226" y="87" type="curve"/>
      <point x="226" y="207"/>
      <point x="226" y="98"/>
    </contour>
    <contour>
      <point x="63" y="490" type="curve"/>
      <point x="100" y="455"/>
      <point x="165" y="394"/>
      <point x="204" y="359" type="curve"/>
      <point x="204" y="238"/>
      <point x="204" y="336"/>
      <point x="204" y="215" type="curve"/>
      <point x="165" y="250"/>
      <point x="100" y="324"/>
      <point x="63" y="359" type="curve"/>
      <point x="63" y="479"/>
      <point x="63" y="370"/>
    </contour>
    <contour>
      <point x="63" y="218" type="curve"/>
      <point x="100" y="253"/>
      <point x="165" y="324"/>
      <point x="204" y="359" type="curve"/>
      <point x="204" y="238"/>
      <point x="204" y="336"/>
      <point x="204" y="215" type="curve"/>
      <point x="165" y="180"/>
      <point x="100" y="121"/>
      <point x="63" y="87" type="curve"/>
      <point x="63" y="207"/>
      <point x="63" y="98"/>
    </contour>
  </outline>
</glyph>
<glyph name="questiondown" format="1">
  <advance width="453"/>
  <unicode hex="00BF"/>
  <outline>
    <contour>
      <point x="297" y="373" type="curve"/>
      <point x="297" y="410"/>
      <point x="297" y="494"/>
      <point x="297" y="531" type="curve"/>
      <point x="172" y="531"/>
      <point x="297" y="531"/>
      <point x="172" y="531" type="curve"/>
      <point x="172" y="494"/>
      <point x="172" y="410"/>
      <point x="172" y="373" type="curve"/>
      <point x="297" y="373"/>
      <point x="172" y="373"/>
    </contour>
    <contour>
      <point x="351" y="168" type="line"/>
      <point x="321" y="135"/>
      <point x="299" y="118"/>
      <point x="260" y="118" type="curve"/>
      <point x="200" y="118"/>
      <point x="173" y="170"/>
      <point x="173" y="234" type="curve"/>
      <point x="173" y="314"/>
      <point x="211" y="373"/>
      <point x="284" y="373" type="curve"/>
      <point x="284" y="411"/>
      <point x="285" y="438"/>
      <point x="285" y="477" type="curve"/>
      <point x="134" y="477"/>
      <point x="40" y="382"/>
      <point x="40" y="234" type="curve"/>
      <point x="40" y="90"/>
      <point x="124" y="1"/>
      <point x="254" y="1" type="curve"/>
      <point x="328" y="1"/>
      <point x="386" y="24"/>
      <point x="425" y="76" type="curve"/>
    </contour>
    <contour>
      <point x="163" y="683" type="curve"/>
      <point x="163" y="636"/>
      <point x="193" y="612"/>
      <point x="235" y="612" type="curve"/>
      <point x="277" y="612"/>
      <point x="305" y="638"/>
      <point x="305" y="683" type="curve"/>
      <point x="163" y="683"/>
      <point x="305" y="683"/>
      <point x="163" y="683" type="curve"/>
      <point x="163" y="732"/>
      <point x="192" y="754"/>
      <point x="234" y="754" type="curve"/>
      <point x="278" y="754"/>
      <point x="305" y="730"/>
      <point x="305" y="683" type="curve"/>
      <point x="163" y="683"/>
      <point x="305" y="683"/>
    </contour>
  </outline>
</glyph>
<glyph name="Ccedilla" format="1">
  <advance width="563"/>
  <unicode hex="00C7"/>
  <outline>
    <contour>
      <point x="396" y="654" type="curve"/>
      <point x="396" y="534"/>
      <point x="396" y="662"/>
      <point x="396" y="542" type="curve"/>
      <point x="506" y="542"/>
      <point x="396" y="542"/>
      <point x="506" y="542" type="curve"/>
      <point x="506" y="662"/>
      <point x="506" y="534"/>
      <point x="506" y="654" type="curve"/>
      <point x="396" y="654"/>
      <point x="506" y="654"/>
    </contour>
    <contour>
      <point x="506" y="654" type="curve"/>
      <point x="455" y="697"/>
      <point x="390" y="727"/>
      <point x="316" y="727" type="curve"/>
      <point x="125" y="727"/>
      <point x="45" y="565"/>
      <point x="45" y="345" type="curve"/>
      <point x="45" y="144"/>
      <point x="124" y="-5"/>
      <point x="305" y="-5" type="curve"/>
      <point x="400" y="-5"/>
      <point x="467" y="30"/>
      <point x="520" y="101" type="curve"/>
      <point x="434" y="180"/>
      <point x="520" y="101"/>
      <point x="434" y="180" type="curve"/>
      <point x="399" y="138"/>
      <point x="367" y="109"/>
      <point x="312" y="109" type="curve"/>
      <point x="204" y="109"/>
      <point x="186" y="220"/>
      <point x="186" y="350" type="curve"/>
      <point x="186" y="492"/>
      <point x="199" y="613"/>
      <point x="311" y="613" type="curve"/>
      <point x="358" y="613"/>
      <point x="399" y="594"/>
      <point x="430" y="567" type="curve"/>
      <point x="506" y="654"/>
      <point x="430" y="567"/>
    </contour>
    <contour>
      <point x="246" y="81" type="curve"/>
      <point x="237" y="60"/>
      <point x="203" y="-34"/>
      <point x="194" y="-56" type="curve"/>
      <point x="291" y="-143"/>
      <point x="194" y="-56"/>
      <point x="291" y="-143" type="curve"/>
      <point x="301" y="-117"/>
      <point x="343" y="-21"/>
      <point x="353" y="5" type="curve"/>
      <point x="246" y="81"/>
      <point x="353" y="5"/>
    </contour>
    <contour>
      <point x="291" y="-143" type="curve"/>
      <point x="296" y="-139"/>
      <point x="300" y="-135"/>
      <point x="306" y="-135" type="curve"/>
      <point x="313" y="-135"/>
      <point x="317" y="-138"/>
      <point x="317" y="-147" type="curve"/>
      <point x="317" y="-161"/>
      <point x="304" y="-165"/>
      <point x="289" y="-165" type="curve"/>
      <point x="273" y="-165"/>
      <point x="259" y="-161"/>
      <point x="246" y="-152" type="curve"/>
      <point x="191" y="-231"/>
      <point x="246" y="-152"/>
      <point x="191" y="-231" type="curve"/>
      <point x="219" y="-251"/>
      <point x="247" y="-259"/>
      <point x="282" y="-259" type="curve"/>
      <point x="349" y="-259"/>
      <point x="392" y="-217"/>
      <point x="392" y="-146" type="curve"/>
      <point x="392" y="-77"/>
      <point x="352" y="-32"/>
      <point x="286" y="-32" type="curve"/>
      <point x="251" y="-32"/>
      <point x="225" y="-37"/>
      <point x="194" y="-56" type="curve"/>
      <point x="291" y="-143"/>
      <point x="194" y="-56"/>
    </contour>
  </outline>
</glyph>
<glyph name="Iacute" format="1">
  <advance width="342"/>
  <unicode hex="00CD"/>
  <outline>
    <contour>
      <point x="172" y="722" type="curve"/>
      <point x="128" y="722"/>
      <point x="81" y="722"/>
      <point x="38" y="722" type="curve"/>
      <point x="38" y="613"/>
      <point x="38" y="722"/>
      <point x="38" y="613" type="curve"/>
      <point x="167" y="613"/>
      <point x="42" y="613"/>
      <point x="172" y="613" type="curve"/>
      <point x="172" y="722"/>
      <point x="172" y="613"/>
    </contour>
    <contour>
      <point x="172" y="613" type="curve"/>
      <point x="300" y="613"/>
      <point x="176" y="613"/>
      <point x="305" y="613" type="curve"/>
      <point x="305" y="722"/>
      <point x="305" y="613"/>
      <point x="305" y="722" type="curve"/>
      <point x="261" y="722"/>
      <point x="214" y="722"/>
      <point x="172" y="722" type="curve"/>
      <point x="172" y="613"/>
      <point x="172" y="722"/>
    </contour>
    <contour>
      <point x="172" y="0" type="curve"/>
      <point x="214" y="0"/>
      <point x="261" y="0"/>
      <point x="305" y="0" type="curve"/>
      <point x="305" y="109"/>
      <point x="305" y="0"/>
      <point x="305" y="109" type="curve"/>
      <point x="176" y="109"/>
      <point x="300" y="109"/>
      <point x="172" y="109" type="curve"/>
      <point x="172" y="0"/>
      <point x="172" y="109"/>
    </contour>
    <contour>
      <point x="172" y="109" type="curve"/>
      <point x="42" y="109"/>
      <point x="167" y="109"/>
      <point x="38" y="109" type="curve"/>
      <point x="38" y="0"/>
      <point x="38" y="109"/>
      <point x="38" y="0" type="curve"/>
      <point x="81" y="0"/>
      <point x="128" y="0"/>
      <point x="172" y="0" type="curve"/>
      <point x="172" y="109"/>
      <point x="172" y="0"/>
    </contour>
    <contour>
      <point x="240" y="0" type="curve"/>
      <point x="240" y="241"/>
      <point x="240" y="481"/>
      <point x="240" y="722" type="curve"/>
      <point x="100" y="722"/>
      <point x="240" y="722"/>
      <point x="100" y="722" type="curve"/>
      <point x="100" y="481"/>
      <point x="100" y="241"/>
      <point x="100" y="0" type="curve"/>
      <point x="240" y="0"/>
      <point x="100" y="0"/>
    </contour>
    <contour>
      <point x="237" y="779" type="line"/>
      <point x="351" y="945" type="line"/>
      <point x="181" y="945" type="line"/>
      <point x="106" y="779" type="line"/>
    </contour>
  </outline>
</glyph>
<glyph name="Icircumflex" format="1">
  <advance width="337"/>
  <unicode hex="00CE"/>
  <outline>
    <contour>
      <point x="166" y="722" type="curve"/>
      <point x="123" y="722"/>
      <point x="75" y="722"/>
      <point x="32" y="722" type="curve"/>
      <point x="32" y="613"/>
      <point x="32" y="722"/>
      <point x="32" y="613" type="curve"/>
      <point x="162" y="613"/>
      <point x="36" y="613"/>
      <point x="166" y="613" type="curve"/>
      <point x="166" y="722"/>
      <point x="166" y="613"/>
    </contour>
    <contour>
      <point x="166" y="613" type="curve"/>
      <point x="294" y="613"/>
      <point x="171" y="613"/>
      <point x="299" y="613" type="curve"/>
      <point x="299" y="722"/>
      <point x="299" y="613"/>
      <point x="299" y="722" type="curve"/>
      <point x="256" y="722"/>
      <point x="208" y="722"/>
      <point x="166" y="722" type="curve"/>
      <point x="166" y="613"/>
      <point x="166" y="722"/>
    </contour>
    <contour>
      <point x="166" y="0" type="curve"/>
      <point x="208" y="0"/>
      <point x="256" y="0"/>
      <point x="299" y="0" type="curve"/>
      <point x="299" y="109"/>
      <point x="299" y="0"/>
      <point x="299" y="109" type="curve"/>
      <point x="171" y="109"/>
      <point x="294" y="109"/>
      <point x="166" y="109" type="curve"/>
      <point x="166" y="0"/>
      <point x="166" y="109"/>
    </contour>
    <contour>
      <point x="166" y="109" type="curve"/>
      <point x="36" y="109"/>
      <point x="162" y="109"/>
      <point x="32" y="109" type="curve"/>
      <point x="32" y="0"/>
      <point x="32" y="109"/>
      <point x="32" y="0" type="curve"/>
      <point x="75" y="0"/>
      <point x="123" y="0"/>
      <point x="166" y="0" type="curve"/>
      <point x="166" y="109"/>
      <point x="166" y="0"/>
    </contour>
    <contour>
      <point x="235" y="0" type="curve"/>
      <point x="235" y="241"/>
      <point x="235" y="481"/>
      <point x="235" y="722" type="curve"/>
      <point x="94" y="722"/>
      <point x="235" y="722"/>
      <point x="94" y="722" type="curve"/>
      <point x="94" y="481"/>
      <point x="94" y="241"/>
      <point x="94" y="0" type="curve"/>
      <point x="235" y="0"/>
      <point x="94" y="0"/>
    </contour>
    <contour>
      <point x="111" y="780" type="line"/>
      <point x="225" y="946" type="line"/>
      <point x="55" y="946" type="line"/>
      <point x="-20" y="780" type="line"/>
    </contour>
    <contour>
      <point x="355" y="780" type="line"/>
      <point x="281" y="946" type="line"/>
      <point x="111" y="946" type="line"/>
      <point x="224" y="780" type="line"/>
    </contour>
  </outline>
</glyph>
<glyph name="Idieresis" format="1">
  <advance width="341"/>
  <unicode hex="00CF"/>
  <outline>
    <contour>
      <point x="172" y="722" type="curve"/>
      <point x="129" y="722"/>
      <point x="81" y="722"/>
      <point x="38" y="722" type="curve"/>
      <point x="38" y="613"/>
      <point x="38" y="722"/>
      <point x="38" y="613" type="curve"/>
      <point x="167" y="613"/>
      <point x="42" y="613"/>
      <point x="172" y="613" type="curve"/>
      <point x="172" y="722"/>
      <point x="172" y="613"/>
    </contour>
    <contour>
      <point x="172" y="613" type="curve"/>
      <point x="300" y="613"/>
      <point x="176" y="613"/>
      <point x="305" y="613" type="curve"/>
      <point x="305" y="722"/>
      <point x="305" y="613"/>
      <point x="305" y="722" type="curve"/>
      <point x="262" y="722"/>
      <point x="214" y="722"/>
      <point x="172" y="722" type="curve"/>
      <point x="172" y="613"/>
      <point x="172" y="722"/>
    </contour>
    <contour>
      <point x="172" y="0" type="curve"/>
      <point x="214" y="0"/>
      <point x="262" y="0"/>
      <point x="305" y="0" type="curve"/>
      <point x="305" y="109"/>
      <point x="305" y="0"/>
      <point x="305" y="109" type="curve"/>
      <point x="176" y="109"/>
      <point x="300" y="109"/>
      <point x="172" y="109" type="curve"/>
      <point x="172" y="0"/>
      <point x="172" y="109"/>
    </contour>
    <contour>
      <point x="172" y="109" type="curve"/>
      <point x="42" y="109"/>
      <point x="167" y="109"/>
      <point x="38" y="109" type="curve"/>
      <point x="38" y="0"/>
      <point x="38" y="109"/>
      <point x="38" y="0" type="curve"/>
      <point x="81" y="0"/>
      <point x="129" y="0"/>
      <point x="172" y="0" type="curve"/>
      <point x="172" y="109"/>
      <point x="172" y="0"/>
    </contour>
    <contour>
      <point x="240" y="0" type="curve"/>
      <point x="240" y="241"/>
      <point x="240" y="481"/>
      <point x="240" y="722" type="curve"/>
      <point x="100" y="722"/>
      <point x="240" y="722"/>
      <point x="100" y="722" type="curve"/>
      <point x="100" y="481"/>
      <point x="100" y="241"/>
      <point x="100" y="0" type="curve"/>
      <point x="240" y="0"/>
      <point x="100" y="0"/>
    </contour>
    <contour>
      <point x="148" y="844" type="curve"/>
      <point x="148" y="891"/>
      <point x="118" y="915"/>
      <point x="76" y="915" type="curve"/>
      <point x="34" y="915"/>
      <point x="6" y="890"/>
      <point x="6" y="844" type="curve"/>
      <point x="148" y="844"/>
      <point x="6" y="844"/>
      <point x="148" y="844" type="curve"/>
      <point x="148" y="796"/>
      <point x="119" y="774"/>
      <point x="77" y="774" type="curve"/>
      <point x="33" y="774"/>
      <point x="6" y="797"/>
      <point x="6" y="844" type="curve"/>
      <point x="148" y="844"/>
      <point x="6" y="844"/>
    </contour>
    <contour>
      <point x="342" y="844" type="curve"/>
      <point x="342" y="891"/>
      <point x="312" y="915"/>
      <point x="270" y="915" type="curve"/>
      <point x="228" y="915"/>
      <point x="200" y="890"/>
      <point x="200" y="844" type="curve"/>
      <point x="342" y="844"/>
      <point x="200" y="844"/>
      <point x="342" y="844" type="curve"/>
      <point x="342" y="796"/>
      <point x="313" y="774"/>
      <point x="270" y="774" type="curve"/>
      <point x="227" y="774"/>
      <point x="200" y="797"/>
      <point x="200" y="844" type="curve"/>
      <point x="342" y="844"/>
      <point x="200" y="844"/>
    </contour>
  </outline>
</glyph>
<glyph name="Otilde" format="1">
  <advance width="619"/>
  <unicode hex="00D5"/>
  <outline>
    <contour>
      <point x="186" y="360" type="curve"/>
      <point x="186" y="492"/>
      <point x="194" y="613"/>
      <point x="307" y="613" type="curve"/>
      <point x="413" y="613"/>
      <point x="433" y="494"/>
      <point x="433" y="363" type="curve"/>
      <point x="433" y="230"/>
      <point x="423" y="110"/>
      <point x="311" y="110" type="curve"/>
      <point x="203" y="110"/>
      <point x="186" y="228"/>
      <point x="186" y="360" type="curve"/>
      <point x="45" y="360"/>
      <point x="186" y="360"/>
      <point x="45" y="360" type="curve"/>
      <point x="45" y="156"/>
      <point x="125" y="-5"/>
      <point x="307" y="-5" type="curve"/>
      <point x="491" y="-5"/>
      <point x="574" y="157"/>
      <point x="574" y="363" type="curve"/>
      <point x="574" y="565"/>
      <point x="495" y="727"/>
      <point x="312" y="727" type="curve"/>
      <point x="129" y="727"/>
      <point x="45" y="565"/>
      <point x="45" y="360" type="curve"/>
      <point x="186" y="360"/>
      <point x="45" y="360"/>
    </contour>
    <contour>
      <point x="394" y="974" type="curve"/>
      <point x="376" y="939"/>
      <point x="364" y="938"/>
      <point x="353" y="938" type="curve"/>
      <point x="329" y="938"/>
      <point x="319" y="943"/>
      <point x="302" y="956" type="curve" smooth="yes"/>
      <point x="279" y="974"/>
      <point x="270" y="981"/>
      <point x="245" y="981" type="curve"/>
      <point x="180" y="981"/>
      <point x="147" y="908"/>
      <point x="128" y="849" type="curve"/>
      <point x="231" y="787"/>
      <point x="128" y="850"/>
      <point x="231" y="787" type="curve"/>
      <point x="251" y="826"/>
      <point x="267" y="829"/>
      <point x="283" y="829" type="curve"/>
      <point x="300" y="829"/>
      <point x="309" y="824"/>
      <point x="321" y="813" type="curve" smooth="yes"/>
      <point x="349" y="791"/>
      <point x="361" y="780"/>
      <point x="393" y="780" type="curve"/>
      <point x="458" y="780"/>
      <point x="479" y="847"/>
      <point x="505" y="914" type="curve"/>
      <point x="394" y="974"/>
      <point x="505" y="913"/>
    </contour>
  </outline>
</glyph>
<glyph name="multiply" format="1">
  <advance width="604"/>
  <unicode hex="00D7"/>
  <outline>
    <contour>
      <point x="125" y="42" type="line"/>
      <point x="559" y="499" type="line"/>
      <point x="479" y="579" type="line"/>
      <point x="45" y="122" type="line"/>
    </contour>
    <contour>
      <point x="559" y="119" type="line"/>
      <point x="125" y="576" type="line"/>
      <point x="45" y="496" type="line"/>
      <point x="479" y="39" type="line"/>
    </contour>
  </outline>
</glyph>
<glyph name="Yacute" format="1">
  <advance width="541"/>
  <unicode hex="00DD"/>
  <outline>
    <contour>
      <point x="266" y="109" type="curve"/>
      <point x="133" y="109"/>
      <point x="266" y="109"/>
      <point x="133" y="109" type="curve"/>
      <point x="133" y="0"/>
      <point x="133" y="109"/>
      <point x="133" y="0" type="curve"/>
      <point x="176" y="0"/>
      <point x="221" y="0"/>
      <point x="266" y="0" type="curve"/>
      <point x="266" y="109"/>
      <point x="266" y="0"/>
    </contour>
    <contour>
      <point x="266" y="0" type="curve"/>
      <point x="310" y="0"/>
      <point x="355" y="0"/>
      <point x="398" y="0" type="curve"/>
      <point x="398" y="109"/>
      <point x="398" y="0"/>
      <point x="398" y="109" type="curve"/>
      <point x="266" y="109"/>
      <point x="398" y="109"/>
      <point x="266" y="109" type="curve"/>
      <point x="266" y="0"/>
      <point x="266" y="109"/>
    </contour>
    <contour>
      <point x="409" y="722" type="curve"/>
      <point x="369" y="722"/>
      <point x="328" y="722"/>
      <point x="288" y="722" type="curve"/>
      <point x="288" y="613"/>
      <point x="288" y="722"/>
      <point x="288" y="613" type="curve"/>
      <point x="409" y="613"/>
      <point x="288" y="613"/>
      <point x="409" y="613" type="curve"/>
      <point x="409" y="722"/>
      <point x="409" y="613"/>
    </contour>
    <contour>
      <point x="108" y="722" type="curve"/>
      <point x="77" y="722"/>
      <point x="45" y="722"/>
      <point x="15" y="722" type="curve"/>
      <point x="13" y="613"/>
      <point x="15" y="722"/>
      <point x="13" y="613" type="curve"/>
      <point x="108" y="613"/>
      <point x="13" y="613"/>
      <point x="108" y="613" type="curve"/>
      <point x="108" y="722"/>
      <point x="108" y="613"/>
    </contour>
    <contour>
      <point x="131" y="613" type="curve"/>
      <point x="252" y="613"/>
      <point x="131" y="613"/>
      <point x="252" y="613" type="curve"/>
      <point x="252" y="722"/>
      <point x="252" y="613"/>
      <point x="252" y="722" type="curve"/>
      <point x="212" y="722"/>
      <point x="171" y="722"/>
      <point x="131" y="722" type="curve"/>
      <point x="131" y="613"/>
      <point x="131" y="722"/>
    </contour>
    <contour>
      <point x="432" y="613" type="curve"/>
      <point x="534" y="613"/>
      <point x="432" y="613"/>
      <point x="534" y="613" type="curve"/>
      <point x="534" y="722"/>
      <point x="534" y="613"/>
      <point x="534" y="722" type="curve"/>
      <point x="501" y="722"/>
      <point x="467" y="722"/>
      <point x="432" y="722" type="curve"/>
      <point x="432" y="613"/>
      <point x="432" y="722"/>
    </contour>
    <contour>
      <point x="32" y="728" type="curve"/>
      <point x="86" y="598"/>
      <point x="136" y="472"/>
      <point x="188" y="337" type="curve"/>
      <point x="330" y="337"/>
      <point x="163" y="337"/>
      <point x="305" y="337" type="curve"/>
      <point x="264" y="471"/>
      <point x="225" y="591"/>
      <point x="180" y="722" type="curve"/>
      <point x="32" y="722"/>
      <point x="180" y="728"/>
    </contour>
    <contour>
      <point x="360" y="722" type="curve"/>
      <point x="309" y="588"/>
      <point x="267" y="470"/>
      <point x="214" y="337" type="curve"/>
      <point x="357" y="337"/>
      <point x="201" y="337"/>
      <point x="343" y="337" type="curve"/>
      <point x="399" y="470"/>
      <point x="451" y="598"/>
      <point x="508" y="728" type="curve"/>
      <point x="360" y="728"/>
      <point x="508" y="722"/>
    </contour>
    <contour>
      <point x="342" y="0" type="curve"/>
      <point x="342" y="115"/>
      <point x="342" y="221"/>
      <point x="342" y="336" type="curve"/>
      <point x="189" y="336"/>
      <point x="342" y="336"/>
      <point x="189" y="336" type="curve"/>
      <point x="189" y="221"/>
      <point x="189" y="115"/>
      <point x="189" y="0" type="curve"/>
      <point x="342" y="0"/>
      <point x="189" y="0"/>
    </contour>
    <contour>
      <point x="336" y="779" type="line"/>
      <point x="449" y="945" type="line"/>
      <point x="279" y="945" type="line"/>
      <point x="204" y="779" type="line"/>
    </contour>
  </outline>
</glyph>
<glyph name="ccedilla" format="1">
  <advance width="450"/>
  <unicode hex="00E7"/>
  <outline>
    <contour>
      <point x="290" y="469" type="curve"/>
      <point x="290" y="356"/>
      <point x="290" y="469"/>
      <point x="290" y="356" type="curve"/>
      <point x="400" y="356"/>
      <point x="290" y="356"/>
      <point x="400" y="356" type="curve"/>
      <point x="400" y="469"/>
      <point x="400" y="356"/>
      <point x="400" y="469" type="curve"/>
      <point x="290" y="469"/>
      <point x="400" y="469"/>
    </contour>
    <contour>
      <point x="400" y="469" type="curve"/>
      <point x="362" y="508"/>
      <point x="310" y="538"/>
      <point x="253" y="538" type="curve"/>
      <point x="106" y="538"/>
      <point x="36" y="430"/>
      <point x="36" y="267" type="curve"/>
      <point x="36" y="105"/>
      <point x="104" y="-5"/>
      <point x="251" y="-5" type="curve"/>
      <point x="316" y="-5"/>
      <point x="379" y="25"/>
      <point x="414" y="99" type="curve"/>
      <point x="317" y="161"/>
      <point x="414" y="99"/>
      <point x="317" y="161" type="curve"/>
      <point x="302" y="138"/>
      <point x="285" y="109"/>
      <point x="258" y="109" type="curve"/>
      <point x="188" y="109"/>
      <point x="176" y="180"/>
      <point x="176" y="267" type="curve"/>
      <point x="176" y="353"/>
      <point x="184" y="424"/>
      <point x="252" y="424" type="curve"/>
      <point x="277" y="424"/>
      <point x="300" y="410"/>
      <point x="317" y="393" type="curve"/>
      <point x="400" y="469"/>
      <point x="317" y="393"/>
    </contour>
    <contour>
      <point x="190" y="81" type="curve"/>
      <point x="181" y="60"/>
      <point x="148" y="-34"/>
      <point x="139" y="-56" type="curve"/>
      <point x="235" y="-143"/>
      <point x="139" y="-56"/>
      <point x="235" y="-143" type="curve"/>
      <point x="246" y="-117"/>
      <point x="288" y="-21"/>
      <point x="298" y="5" type="curve"/>
      <point x="190" y="81"/>
      <point x="298" y="5"/>
    </contour>
    <contour>
      <point x="235" y="-143" type="curve"/>
      <point x="240" y="-139"/>
      <point x="244" y="-135"/>
      <point x="251" y="-135" type="curve"/>
      <point x="256" y="-135"/>
      <point x="262" y="-138"/>
      <point x="262" y="-147" type="curve"/>
      <point x="262" y="-160"/>
      <point x="248" y="-165"/>
      <point x="234" y="-165" type="curve"/>
      <point x="217" y="-165"/>
      <point x="204" y="-161"/>
      <point x="191" y="-152" type="curve"/>
      <point x="135" y="-230"/>
      <point x="191" y="-152"/>
      <point x="135" y="-230" type="curve"/>
      <point x="163" y="-251"/>
      <point x="192" y="-258"/>
      <point x="227" y="-258" type="curve"/>
      <point x="293" y="-258"/>
      <point x="337" y="-217"/>
      <point x="337" y="-146" type="curve"/>
      <point x="337" y="-77"/>
      <point x="297" y="-32"/>
      <point x="231" y="-32" type="curve"/>
      <point x="196" y="-32"/>
      <point x="170" y="-37"/>
      <point x="139" y="-56" type="curve"/>
      <point x="235" y="-143"/>
      <point x="139" y="-56"/>
    </contour>
  </outline>
</glyph>
<glyph name="igrave" format="1">
  <advance width="300"/>
  <unicode hex="00EC"/>
  <outline>
    <contour>
      <point x="154" y="109" type="curve"/>
      <point x="21" y="109"/>
      <point x="154" y="109"/>
      <point x="21" y="109" type="curve"/>
      <point x="19" y="0"/>
      <point x="21" y="109"/>
      <point x="19" y="0" type="curve"/>
      <point x="64" y="0"/>
      <point x="109" y="0"/>
      <point x="154" y="0" type="curve"/>
      <point x="154" y="109"/>
      <point x="154" y="0"/>
    </contour>
    <contour>
      <point x="154" y="0" type="curve"/>
      <point x="195" y="0"/>
      <point x="236" y="0"/>
      <point x="279" y="0" type="curve"/>
      <point x="279" y="109"/>
      <point x="279" y="0"/>
      <point x="279" y="109" type="curve"/>
      <point x="154" y="109"/>
      <point x="279" y="109"/>
      <point x="154" y="109" type="curve"/>
      <point x="154" y="0"/>
      <point x="154" y="109"/>
    </contour>
    <contour>
      <point x="154" y="533" type="curve"/>
      <point x="109" y="533"/>
      <point x="64" y="533"/>
      <point x="21" y="533" type="curve"/>
      <point x="19" y="424"/>
      <point x="21" y="533"/>
      <point x="19" y="424" type="curve"/>
      <point x="154" y="424"/>
      <point x="19" y="424"/>
      <point x="154" y="424" type="curve"/>
      <point x="154" y="533"/>
      <point x="154" y="424"/>
    </contour>
    <contour>
      <point x="227" y="0" type="curve"/>
      <point x="227" y="178"/>
      <point x="227" y="355"/>
      <point x="227" y="533" type="curve"/>
      <point x="80" y="533"/>
      <point x="227" y="533"/>
      <point x="80" y="533" type="curve"/>
      <point x="80" y="355"/>
      <point x="80" y="178"/>
      <point x="80" y="0" type="curve"/>
      <point x="227" y="0"/>
      <point x="80" y="0"/>
    </contour>
    <contour>
      <point x="221" y="611" type="line"/>
      <point x="146" y="777" type="line"/>
      <point x="-24" y="777" type="line"/>
      <point x="90" y="611" type="line"/>
    </contour>
  </outline>
</glyph>
<glyph name="icircumflex" format="1">
  <advance width="325"/>
  <unicode hex="00EE"/>
  <outline>
    <contour>
      <point x="167" y="109" type="curve"/>
      <point x="34" y="109"/>
      <point x="167" y="109"/>
      <point x="34" y="109" type="curve"/>
      <point x="33" y="0"/>
      <point x="34" y="109"/>
      <point x="33" y="0" type="curve"/>
      <point x="77" y="0"/>
      <point x="122" y="0"/>
      <point x="167" y="0" type="curve"/>
      <point x="167" y="109"/>
      <point x="167" y="0"/>
    </contour>
    <contour>
      <point x="167" y="0" type="curve"/>
      <point x="208" y="0"/>
      <point x="249" y="0"/>
      <point x="292" y="0" type="curve"/>
      <point x="292" y="109"/>
      <point x="292" y="0"/>
      <point x="292" y="109" type="curve"/>
      <point x="167" y="109"/>
      <point x="292" y="109"/>
      <point x="167" y="109" type="curve"/>
      <point x="167" y="0"/>
      <point x="167" y="109"/>
    </contour>
    <contour>
      <point x="167" y="533" type="curve"/>
      <point x="122" y="533"/>
      <point x="77" y="533"/>
      <point x="34" y="533" type="curve"/>
      <point x="33" y="424"/>
      <point x="34" y="533"/>
      <point x="33" y="424" type="curve"/>
      <point x="167" y="424"/>
      <point x="33" y="424"/>
      <point x="167" y="424" type="curve"/>
      <point x="167" y="533"/>
      <point x="167" y="424"/>
    </contour>
    <contour>
      <point x="240" y="0" type="curve"/>
      <point x="240" y="178"/>
      <point x="240" y="355"/>
      <point x="240" y="533" type="curve"/>
      <point x="93" y="533"/>
      <point x="240" y="533"/>
      <point x="93" y="533" type="curve"/>
      <point x="93" y="355"/>
      <point x="93" y="178"/>
      <point x="93" y="0" type="curve"/>
      <point x="240" y="0"/>
      <point x="93" y="0"/>
    </contour>
    <contour>
      <point x="114" y="610" type="line"/>
      <point x="227" y="776" type="line"/>
      <point x="57" y="776" type="line"/>
      <point x="-18" y="610" type="line"/>
    </contour>
    <contour>
      <point x="357" y="610" type="line"/>
      <point x="283" y="776" type="line"/>
      <point x="113" y="776" type="line"/>
      <point x="227" y="610" type="line"/>
    </contour>
  </outline>
</glyph>
<glyph name="idieresis" format="1">
  <advance width="317"/>
  <unicode hex="00EF"/>
  <outline>
    <contour>
      <point x="162" y="109" type="curve"/>
      <point x="29" y="109"/>
      <point x="162" y="109"/>
      <point x="29" y="109" type="curve"/>
      <point x="28" y="0"/>
      <point x="29" y="109"/>
      <point x="28" y="0" type="curve"/>
      <point x="73" y="0"/>
      <point x="117" y="0"/>
      <point x="162" y="0" type="curve"/>
      <point x="162" y="109"/>
      <point x="162" y="0"/>
    </contour>
    <contour>
      <point x="162" y="0" type="curve"/>
      <point x="204" y="0"/>
      <point x="245" y="0"/>
      <point x="288" y="0" type="curve"/>
      <point x="288" y="109"/>
      <point x="288" y="0"/>
      <point x="288" y="109" type="curve"/>
      <point x="162" y="109"/>
      <point x="288" y="109"/>
      <point x="162" y="109" type="curve"/>
      <point x="162" y="0"/>
      <point x="162" y="109"/>
    </contour>
    <contour>
      <point x="162" y="533" type="curve"/>
      <point x="117" y="533"/>
      <point x="73" y="533"/>
      <point x="29" y="533" type="curve"/>
      <point x="28" y="424"/>
      <point x="29" y="533"/>
      <point x="28" y="424" type="curve"/>
      <point x="162" y="424"/>
      <point x="28" y="424"/>
      <point x="162" y="424" type="curve"/>
      <point x="162" y="533"/>
      <point x="162" y="424"/>
    </contour>
    <contour>
      <point x="236" y="0" type="curve"/>
      <point x="236" y="178"/>
      <point x="236" y="355"/>
      <point x="236" y="533" type="curve"/>
      <point x="88" y="533"/>
      <point x="236" y="533"/>
      <point x="88" y="533" type="curve"/>
      <point x="88" y="355"/>
      <point x="88" y="178"/>
      <point x="88" y="0" type="curve"/>
      <point x="236" y="0"/>
      <point x="88" y="0"/>
    </contour>
    <contour>
      <point x="140" y="674" type="curve"/>
      <point x="140" y="721"/>
      <point x="110" y="745"/>
      <point x="69" y="745" type="curve"/>
      <point x="26" y="745"/>
      <point x="-1" y="720"/>
      <point x="-1" y="674" type="curve"/>
      <point x="140" y="674"/>
      <point x="-1" y="674"/>
      <point x="140" y="674" type="curve"/>
      <point x="140" y="626"/>
      <point x="111" y="604"/>
      <point x="69" y="604" type="curve"/>
      <point x="25" y="604"/>
      <point x="-1" y="627"/>
      <point x="-1" y="674" type="curve"/>
      <point x="140" y="674"/>
      <point x="-1" y="674"/>
    </contour>
    <contour>
      <point x="334" y="674" type="curve"/>
      <point x="334" y="721"/>
      <point x="304" y="745"/>
      <point x="262" y="745" type="curve"/>
      <point x="220" y="745"/>
      <point x="192" y="720"/>
      <point x="192" y="674" type="curve"/>
      <point x="334" y="674"/>
      <point x="192" y="674"/>
      <point x="334" y="674" type="curve"/>
      <point x="334" y="626"/>
      <point x="305" y="604"/>
      <point x="263" y="604" type="curve"/>
      <point x="219" y="604"/>
      <point x="192" y="627"/>
      <point x="192" y="674" type="curve"/>
      <point x="334" y="674"/>
      <point x="192" y="674"/>
    </contour>
  </outline>
</glyph>
<glyph name="eth" format="1">
  <advance width="479"/>
  <unicode hex="00F0"/>
  <outline>
    <contour>
      <point x="104" y="549" type="curve"/>
      <point x="158" y="602"/>
      <point x="243" y="688"/>
      <point x="295" y="741" type="curve"/>
      <point x="359" y="676"/>
      <point x="298" y="738"/>
      <point x="363" y="673" type="curve"/>
      <point x="311" y="620"/>
      <point x="225" y="535"/>
      <point x="172" y="481" type="curve"/>
      <point x="108" y="546"/>
      <point x="169" y="485"/>
    </contour>
    <contour>
      <point x="340" y="256" type="curve"/>
      <point x="320" y="320"/>
      <point x="294" y="341"/>
      <point x="238" y="341" type="curve"/>
      <point x="185" y="341"/>
      <point x="165" y="287"/>
      <point x="165" y="226" type="curve"/>
      <point x="165" y="173"/>
      <point x="183" y="125"/>
      <point x="227" y="125" type="curve"/>
      <point x="292" y="125"/>
      <point x="308" y="189"/>
      <point x="308" y="266" type="curve"/>
      <point x="308" y="444"/>
      <point x="239" y="572"/>
      <point x="77" y="638" type="curve"/>
      <point x="135" y="744"/>
      <point x="77" y="638"/>
      <point x="135" y="744" type="curve"/>
      <point x="320" y="668"/>
      <point x="442" y="497"/>
      <point x="442" y="260" type="curve"/>
      <point x="442" y="106"/>
      <point x="374" y="-6"/>
      <point x="232" y="-6" type="curve"/>
      <point x="100" y="-6"/>
      <point x="32" y="93"/>
      <point x="32" y="232" type="curve"/>
      <point x="32" y="365"/>
      <point x="99" y="456"/>
      <point x="225" y="456" type="curve"/>
      <point x="332" y="456"/>
      <point x="386" y="344"/>
      <point x="407" y="281" type="curve"/>
      <point x="340" y="256"/>
      <point x="407" y="281"/>
    </contour>
  </outline>
</glyph>
<glyph name="ocircumflex" format="1">
  <advance width="502"/>
  <unicode hex="00F4"/>
  <outline>
    <contour>
      <point x="164" y="265" type="curve"/>
      <point x="164" y="342"/>
      <point x="174" y="423"/>
      <point x="245" y="423" type="curve"/>
      <point x="315" y="423"/>
      <point x="326" y="344"/>
      <point x="326" y="265" type="curve"/>
      <point x="326" y="183"/>
      <point x="319" y="110"/>
      <point x="254" y="110" type="curve"/>
      <point x="173" y="111"/>
      <point x="164" y="182"/>
      <point x="164" y="265" type="curve"/>
      <point x="189" y="265"/>
      <point x="12" y="265"/>
      <point x="36" y="265" type="curve"/>
      <point x="36" y="109"/>
      <point x="103" y="-5"/>
      <point x="248" y="-5" type="curve"/>
      <point x="395" y="-5"/>
      <point x="466" y="107"/>
      <point x="466" y="265" type="curve"/>
      <point x="466" y="424"/>
      <point x="397" y="538"/>
      <point x="252" y="538" type="curve"/>
      <point x="105" y="538"/>
      <point x="36" y="424"/>
      <point x="36" y="265" type="curve"/>
      <point x="12" y="265"/>
      <point x="189" y="265"/>
    </contour>
    <contour>
      <point x="194" y="610" type="line"/>
      <point x="307" y="776" type="line"/>
      <point x="137" y="776" type="line"/>
      <point x="62" y="610" type="line"/>
    </contour>
    <contour>
      <point x="437" y="610" type="line"/>
      <point x="363" y="776" type="line"/>
      <point x="193" y="776" type="line"/>
      <point x="307" y="610" type="line"/>
    </contour>
  </outline>
</glyph>
<glyph name="otilde" format="1">
  <advance width="502"/>
  <unicode hex="00F5"/>
  <outline>
    <contour>
      <point x="164" y="265" type="curve"/>
      <point x="164" y="342"/>
      <point x="174" y="423"/>
      <point x="245" y="423" type="curve"/>
      <point x="315" y="423"/>
      <point x="326" y="344"/>
      <point x="326" y="265" type="curve"/>
      <point x="326" y="183"/>
      <point x="319" y="110"/>
      <point x="254" y="110" type="curve"/>
      <point x="173" y="111"/>
      <point x="164" y="182"/>
      <point x="164" y="265" type="curve"/>
      <point x="189" y="265"/>
      <point x="12" y="265"/>
      <point x="36" y="265" type="curve"/>
      <point x="36" y="109"/>
      <point x="103" y="-5"/>
      <point x="248" y="-5" type="curve"/>
      <point x="395" y="-5"/>
      <point x="466" y="107"/>
      <point x="466" y="265" type="curve"/>
      <point x="466" y="424"/>
      <point x="397" y="538"/>
      <point x="252" y="538" type="curve"/>
      <point x="105" y="538"/>
      <point x="36" y="424"/>
      <point x="36" y="265" type="curve"/>
      <point x="12" y="265"/>
      <point x="189" y="265"/>
    </contour>
    <contour>
      <point x="334" y="804" type="curve"/>
      <point x="315" y="769"/>
      <point x="304" y="768"/>
      <point x="293" y="768" type="curve"/>
      <point x="270" y="768"/>
      <point x="259" y="773"/>
      <point x="243" y="786" type="curve" smooth="yes"/>
      <point x="220" y="804"/>
      <point x="210" y="811"/>
      <point x="185" y="811" type="curve"/>
      <point x="120" y="811"/>
      <point x="87" y="738"/>
      <point x="68" y="679" type="curve"/>
      <point x="171" y="617"/>
      <point x="68" y="680"/>
      <point x="171" y="617" type="curve"/>
      <point x="191" y="656"/>
      <point x="207" y="659"/>
      <point x="223" y="659" type="curve"/>
      <point x="241" y="659"/>
      <point x="249" y="654"/>
      <point x="261" y="643" type="curve" smooth="yes"/>
      <point x="288" y="621"/>
      <point x="302" y="610"/>
      <point x="333" y="610" type="curve"/>
      <point x="398" y="610"/>
      <point x="419" y="677"/>
      <point x="445" y="744" type="curve"/>
      <point x="334" y="804"/>
      <point x="445" y="743"/>
    </contour>
  </outline>
</glyph>
<glyph name="cacute" format="1">
  <advance width="458"/>
  <unicode hex="0107"/>
  <outline>
    <contour>
      <point x="290" y="469" type="curve"/>
      <point x="290" y="356"/>
      <point x="290" y="469"/>
      <point x="290" y="356" type="curve"/>
      <point x="400" y="356"/>
      <point x="290" y="356"/>
      <point x="400" y="356" type="curve"/>
      <point x="400" y="469"/>
      <point x="400" y="356"/>
      <point x="400" y="469" type="curve"/>
      <point x="290" y="469"/>
      <point x="400" y="469"/>
    </contour>
    <contour>
      <point x="400" y="469" type="curve"/>
      <point x="362" y="508"/>
      <point x="310" y="538"/>
      <point x="253" y="538" type="curve"/>
      <point x="106" y="538"/>
      <point x="36" y="430"/>
      <point x="36" y="267" type="curve"/>
      <point x="36" y="105"/>
      <point x="104" y="-5"/>
      <point x="251" y="-5" type="curve"/>
      <point x="316" y="-5"/>
      <point x="379" y="25"/>
      <point x="414" y="99" type="curve"/>
      <point x="317" y="161"/>
      <point x="414" y="99"/>
      <point x="317" y="161" type="curve"/>
      <point x="302" y="138"/>
      <point x="285" y="109"/>
      <point x="258" y="109" type="curve"/>
      <point x="188" y="109"/>
      <point x="176" y="180"/>
      <point x="176" y="267" type="curve"/>
      <point x="176" y="353"/>
      <point x="184" y="424"/>
      <point x="252" y="424" type="curve"/>
      <point x="277" y="424"/>
      <point x="300" y="410"/>
      <point x="317" y="393" type="curve"/>
      <point x="400" y="469"/>
      <point x="317" y="393"/>
    </contour>
    <contour>
      <point x="310" y="609" type="line"/>
      <point x="423" y="775" type="line"/>
      <point x="253" y="775" type="line"/>
      <point x="178" y="609" type="line"/>
    </contour>
  </outline>
</glyph>
<glyph name="Dcaron" format="1">
  <advance width="646"/>
  <unicode hex="010E"/>
  <outline>
    <contour>
      <point x="194" y="109" type="curve"/>
      <point x="61" y="109"/>
      <point x="194" y="109"/>
      <point x="61" y="109" type="curve"/>
      <point x="61" y="0"/>
      <point x="61" y="109"/>
      <point x="61" y="0" type="curve"/>
      <point x="105" y="0"/>
      <point x="150" y="0"/>
      <point x="194" y="0" type="curve"/>
      <point x="194" y="109"/>
      <point x="194" y="0"/>
    </contour>
    <contour>
      <point x="194" y="722" type="curve"/>
      <point x="150" y="722"/>
      <point x="105" y="722"/>
      <point x="61" y="722" type="curve"/>
      <point x="61" y="613"/>
      <point x="61" y="722"/>
      <point x="61" y="613" type="curve"/>
      <point x="194" y="613"/>
      <point x="61" y="613"/>
      <point x="194" y="613" type="curve"/>
      <point x="194" y="722"/>
      <point x="194" y="613"/>
    </contour>
    <contour>
      <point x="122" y="722" type="curve"/>
      <point x="122" y="481"/>
      <point x="122" y="241"/>
      <point x="122" y="0" type="curve"/>
      <point x="263" y="0"/>
      <point x="122" y="0"/>
      <point x="263" y="0" type="curve"/>
      <point x="263" y="241"/>
      <point x="263" y="481"/>
      <point x="263" y="722" type="curve"/>
      <point x="122" y="722"/>
      <point x="263" y="722"/>
    </contour>
    <contour>
      <point x="194" y="0" type="curve"/>
      <point x="236" y="0"/>
      <point x="279" y="0"/>
      <point x="322" y="0" type="curve"/>
      <point x="519" y="0"/>
      <point x="600" y="140"/>
      <point x="600" y="354" type="curve"/>
      <point x="600" y="575"/>
      <point x="523" y="722"/>
      <point x="321" y="722" type="curve"/>
      <point x="279" y="722"/>
      <point x="236" y="722"/>
      <point x="194" y="722" type="curve"/>
      <point x="194" y="613"/>
      <point x="194" y="722"/>
      <point x="194" y="613" type="curve"/>
      <point x="235" y="613"/>
      <point x="274" y="613"/>
      <point x="315" y="613" type="curve"/>
      <point x="441" y="613"/>
      <point x="459" y="499"/>
      <point x="459" y="352" type="curve"/>
      <point x="459" y="217"/>
      <point x="447" y="109"/>
      <point x="335" y="109" type="curve"/>
      <point x="288" y="109"/>
      <point x="241" y="109"/>
      <point x="194" y="109" type="curve"/>
      <point x="194" y="0"/>
      <point x="194" y="109"/>
    </contour>
    <contour>
      <point x="345" y="947" type="line"/>
      <point x="232" y="781" type="line"/>
      <point x="402" y="781" type="line"/>
      <point x="477" y="947" type="line"/>
    </contour>
    <contour>
      <point x="105" y="947" type="line"/>
      <point x="180" y="781" type="line"/>
      <point x="350" y="781" type="line"/>
      <point x="236" y="947" type="line"/>
    </contour>
  </outline>
</glyph>
<glyph name="edotaccent" format="1">
  <advance width="461"/>
  <unicode hex="0117"/>
  <outline>
    <contour>
      <point x="107" y="227" type="curve"/>
      <point x="195" y="227"/>
      <point x="282" y="227"/>
      <point x="369" y="227" type="curve"/>
      <point x="429" y="227"/>
      <point x="369" y="227"/>
      <point x="429" y="227" type="curve"/>
      <point x="429" y="276"/>
      <point x="429" y="227"/>
      <point x="429" y="276" type="curve"/>
      <point x="429" y="282"/>
      <point x="429" y="289"/>
      <point x="429" y="295" type="curve"/>
      <point x="429" y="439"/>
      <point x="372" y="538"/>
      <point x="241" y="538" type="curve"/>
      <point x="101" y="538"/>
      <point x="37" y="434"/>
      <point x="37" y="278" type="curve"/>
      <point x="37" y="111"/>
      <point x="105" y="-5"/>
      <point x="255" y="-5" type="curve"/>
      <point x="320" y="-5"/>
      <point x="360" y="23"/>
      <point x="410" y="75" type="curve"/>
      <point x="321" y="150"/>
      <point x="410" y="75"/>
      <point x="321" y="150" type="curve"/>
      <point x="302" y="125"/>
      <point x="286" y="111"/>
      <point x="256" y="111" type="curve"/>
      <point x="179" y="111"/>
      <point x="176" y="187"/>
      <point x="176" y="278" type="curve"/>
      <point x="176" y="355"/>
      <point x="171" y="423"/>
      <point x="235" y="423" type="curve"/>
      <point x="288" y="423"/>
      <point x="296" y="369"/>
      <point x="296" y="303" type="curve"/>
      <point x="296" y="293"/>
      <point x="296" y="284"/>
      <point x="296" y="274" type="curve"/>
      <point x="307" y="286"/>
      <point x="319" y="295"/>
      <point x="331" y="308" type="curve"/>
      <point x="341" y="319"/>
      <point x="359" y="318"/>
      <point x="369" y="330" type="curve"/>
      <point x="282" y="330"/>
      <point x="195" y="330"/>
      <point x="107" y="330" type="curve"/>
      <point x="107" y="221"/>
      <point x="107" y="336"/>
    </contour>
    <contour>
      <point x="318" y="680" type="curve"/>
      <point x="318" y="727"/>
      <point x="288" y="751"/>
      <point x="246" y="751" type="curve"/>
      <point x="204" y="751"/>
      <point x="176" y="725"/>
      <point x="176" y="680" type="curve"/>
      <point x="318" y="680"/>
      <point x="176" y="680"/>
      <point x="318" y="680" type="curve"/>
      <point x="318" y="631"/>
      <point x="289" y="609"/>
      <point x="247" y="609" type="curve"/>
      <point x="203" y="609"/>
      <point x="176" y="633"/>
      <point x="176" y="680" type="curve"/>
      <point x="318" y="680"/>
      <point x="176" y="680"/>
    </contour>
  </outline>
</glyph>
<glyph name="Eogonek" format="1">
  <advance width="520"/>
  <unicode hex="0118"/>
  <outline>
    <contour>
      <point x="479" y="55" type="curve"/>
      <point x="479" y="175"/>
      <point x="479" y="55"/>
      <point x="479" y="175" type="curve"/>
      <point x="369" y="175"/>
      <point x="479" y="175"/>
      <point x="369" y="175" type="curve"/>
      <point x="369" y="55"/>
      <point x="369" y="175"/>
      <point x="369" y="55" type="curve"/>
      <point x="479" y="55"/>
      <point x="369" y="55"/>
    </contour>
    <contour>
      <point x="347" y="667" type="curve"/>
      <point x="347" y="547"/>
      <point x="347" y="667"/>
      <point x="347" y="547" type="curve"/>
      <point x="457" y="547"/>
      <point x="347" y="547"/>
      <point x="457" y="547" type="curve"/>
      <point x="457" y="667"/>
      <point x="457" y="547"/>
      <point x="457" y="667" type="curve"/>
      <point x="347" y="667"/>
      <point x="457" y="667"/>
    </contour>
    <contour>
      <point x="194" y="109" type="curve"/>
      <point x="61" y="109"/>
      <point x="194" y="109"/>
      <point x="61" y="109" type="curve"/>
      <point x="61" y="0"/>
      <point x="61" y="109"/>
      <point x="61" y="0" type="curve"/>
      <point x="105" y="0"/>
      <point x="150" y="0"/>
      <point x="194" y="0" type="curve"/>
      <point x="194" y="109"/>
      <point x="194" y="0"/>
    </contour>
    <contour>
      <point x="194" y="722" type="curve"/>
      <point x="150" y="722"/>
      <point x="105" y="722"/>
      <point x="61" y="722" type="curve"/>
      <point x="61" y="613"/>
      <point x="61" y="722"/>
      <point x="61" y="613" type="curve"/>
      <point x="194" y="613"/>
      <point x="61" y="613"/>
      <point x="194" y="613" type="curve"/>
      <point x="194" y="722"/>
      <point x="194" y="613"/>
    </contour>
    <contour>
      <point x="196" y="317" type="curve"/>
      <point x="268" y="317"/>
      <point x="342" y="317"/>
      <point x="415" y="317" type="curve"/>
      <point x="415" y="428"/>
      <point x="415" y="317"/>
      <point x="415" y="428" type="curve"/>
      <point x="342" y="428"/>
      <point x="268" y="428"/>
      <point x="196" y="428" type="curve"/>
      <point x="196" y="317"/>
      <point x="196" y="428"/>
    </contour>
    <contour>
      <point x="186" y="613" type="curve"/>
      <point x="277" y="613"/>
      <point x="366" y="613"/>
      <point x="457" y="613" type="curve"/>
      <point x="457" y="722"/>
      <point x="457" y="613"/>
      <point x="457" y="722" type="curve"/>
      <point x="366" y="722"/>
      <point x="277" y="722"/>
      <point x="186" y="722" type="curve"/>
      <point x="186" y="613"/>
      <point x="186" y="722"/>
    </contour>
    <contour>
      <point x="263" y="0" type="curve"/>
      <point x="263" y="722" type="line"/>
      <point x="123" y="722"/>
      <point x="263" y="722"/>
      <point x="123" y="722" type="curve"/>
      <point x="123" y="481"/>
      <point x="123" y="241"/>
      <point x="123" y="0" type="curve"/>
      <point x="263" y="0"/>
      <point x="123" y="0"/>
    </contour>
    <contour>
      <point x="186" y="0" type="curve"/>
      <point x="283" y="0"/>
      <point x="381" y="0"/>
      <point x="479" y="0" type="curve"/>
      <point x="479" y="109"/>
      <point x="479" y="0"/>
      <point x="479" y="109" type="curve"/>
      <point x="381" y="109"/>
      <point x="283" y="109"/>
      <point x="186" y="109" type="curve"/>
      <point x="186" y="0"/>
      <point x="186" y="109"/>
    </contour>
    <contour>
      <point x="425" y="78" type="curve"/>
      <point x="367" y="42"/>
      <point x="317" y="13"/>
      <point x="317" y="-54" type="curve"/>
      <point x="317" y="-128"/>
      <point x="357" y="-182"/>
      <point x="430" y="-182" type="curve"/>
      <point x="464" y="-182"/>
      <point x="488" y="-171"/>
      <point x="515" y="-149" type="curve"/>
      <point x="451" y="-61"/>
      <point x="515" y="-149"/>
      <point x="451" y="-61" type="curve"/>
      <point x="447" y="-65"/>
      <point x="441" y="-72"/>
      <point x="435" y="-72" type="curve"/>
      <point x="428" y="-72"/>
      <point x="423" y="-64"/>
      <point x="423" y="-54" type="curve"/>
      <point x="423" y="-27"/>
      <point x="454" y="-15"/>
      <point x="476" y="2" type="curve"/>
      <point x="425" y="78"/>
      <point x="476" y="2"/>
    </contour>
  </outline>
</glyph>
<glyph name="Imacron" format="1">
  <advance width="341"/>
  <unicode hex="012A"/>
  <outline>
    <contour>
      <point x="172" y="722" type="curve"/>
      <point x="128" y="722"/>
      <point x="81" y="722"/>
      <point x="38" y="722" type="curve"/>
      <point x="38" y="613"/>
      <point x="38" y="722"/>
      <point x="38" y="613" type="curve"/>
      <point x="167" y="613"/>
      <point x="42" y="613"/>
      <point x="172" y="613" type="curve"/>
      <point x="172" y="722"/>
      <point x="172" y="613"/>
    </contour>
    <contour>
      <point x="172" y="613" type="curve"/>
      <point x="300" y="613"/>
      <point x="176" y="613"/>
      <point x="305" y="613" type="curve"/>
      <point x="305" y="722"/>
      <point x="305" y="613"/>
      <point x="305" y="722" type="curve"/>
      <point x="261" y="722"/>
      <point x="214" y="722"/>
      <point x="172" y="722" type="curve"/>
      <point x="172" y="613"/>
      <point x="172" y="722"/>
    </contour>
    <contour>
      <point x="172" y="0" type="curve"/>
      <point x="214" y="0"/>
      <point x="261" y="0"/>
      <point x="305" y="0" type="curve"/>
      <point x="305" y="109"/>
      <point x="305" y="0"/>
      <point x="305" y="109" type="curve"/>
      <point x="176" y="109"/>
      <point x="300" y="109"/>
      <point x="172" y="109" type="curve"/>
      <point x="172" y="0"/>
      <point x="172" y="109"/>
    </contour>
    <contour>
      <point x="172" y="109" type="curve"/>
      <point x="42" y="109"/>
      <point x="167" y="109"/>
      <point x="38" y="109" type="curve"/>
      <point x="38" y="0"/>
      <point x="38" y="109"/>
      <point x="38" y="0" type="curve"/>
      <point x="81" y="0"/>
      <point x="128" y="0"/>
      <point x="172" y="0" type="curve"/>
      <point x="172" y="109"/>
      <point x="172" y="0"/>
    </contour>
    <contour>
      <point x="240" y="0" type="curve"/>
      <point x="240" y="241"/>
      <point x="240" y="481"/>
      <point x="240" y="722" type="curve"/>
      <point x="100" y="722"/>
      <point x="240" y="722"/>
      <point x="100" y="722" type="curve"/>
      <point x="100" y="481"/>
      <point x="100" y="241"/>
      <point x="100" y="0" type="curve"/>
      <point x="240" y="0"/>
      <point x="100" y="0"/>
    </contour>
    <contour>
      <point x="248" y="889" type="curve"/>
      <point x="198" y="889"/>
      <point x="147" y="889"/>
      <point x="98" y="889" type="curve"/>
      <point x="98" y="780"/>
      <point x="98" y="889"/>
      <point x="98" y="780" type="curve"/>
      <point x="147" y="780"/>
      <point x="198" y="780"/>
      <point x="248" y="780" type="curve"/>
      <point x="248" y="889"/>
      <point x="248" y="780"/>
    </contour>
  </outline>
</glyph>
<glyph name="iogonek" format="1">
  <advance width="302"/>
  <unicode hex="012F"/>
  <outline>
    <contour>
      <point x="159" y="109" type="curve"/>
      <point x="31" y="109"/>
      <point x="155" y="109"/>
      <point x="26" y="109" type="curve"/>
      <point x="25" y="0"/>
      <point x="26" y="109"/>
      <point x="25" y="0" type="curve"/>
      <point x="68" y="0"/>
      <point x="116" y="0"/>
      <point x="159" y="0" type="curve"/>
      <point x="159" y="109"/>
      <point x="159" y="0"/>
    </contour>
    <contour>
      <point x="159" y="0" type="curve"/>
      <point x="200" y="0"/>
      <point x="243" y="0"/>
      <point x="285" y="0" type="curve"/>
      <point x="285" y="109"/>
      <point x="285" y="0"/>
      <point x="285" y="109" type="curve"/>
      <point x="162" y="109"/>
      <point x="282" y="109"/>
      <point x="159" y="109" type="curve"/>
      <point x="159" y="0"/>
      <point x="159" y="109"/>
    </contour>
    <contour>
      <point x="159" y="533" type="curve"/>
      <point x="116" y="533"/>
      <point x="68" y="533"/>
      <point x="26" y="533" type="curve"/>
      <point x="25" y="424"/>
      <point x="26" y="533"/>
      <point x="25" y="424" type="curve"/>
      <point x="155" y="424"/>
      <point x="30" y="424"/>
      <point x="159" y="424" type="curve"/>
      <point x="159" y="533"/>
      <point x="159" y="424"/>
    </contour>
    <contour>
      <point x="233" y="0" type="curve"/>
      <point x="233" y="178"/>
      <point x="233" y="355"/>
      <point x="233" y="533" type="curve"/>
      <point x="85" y="533"/>
      <point x="233" y="533"/>
      <point x="85" y="533" type="curve"/>
      <point x="85" y="355"/>
      <point x="85" y="178"/>
      <point x="85" y="0" type="curve"/>
      <point x="233" y="0"/>
      <point x="85" y="0"/>
    </contour>
    <contour>
      <point x="226" y="677" type="curve"/>
      <point x="226" y="724"/>
      <point x="195" y="748"/>
      <point x="154" y="748" type="curve"/>
      <point x="111" y="748"/>
      <point x="84" y="722"/>
      <point x="84" y="677" type="curve"/>
      <point x="226" y="677"/>
      <point x="84" y="677"/>
      <point x="226" y="677" type="curve"/>
      <point x="226" y="628"/>
      <point x="196" y="606"/>
      <point x="154" y="606" type="curve"/>
      <point x="110" y="606"/>
      <point x="84" y="630"/>
      <point x="84" y="677" type="curve"/>
      <point x="226" y="677"/>
      <point x="84" y="677"/>
    </contour>
    <contour>
      <point x="181" y="78" type="curve"/>
      <point x="124" y="42"/>
      <point x="74" y="13"/>
      <point x="74" y="-54" type="curve"/>
      <point x="74" y="-128"/>
      <point x="113" y="-182"/>
      <point x="186" y="-182" type="curve"/>
      <point x="221" y="-182"/>
      <point x="244" y="-171"/>
      <point x="272" y="-149" type="curve"/>
      <point x="208" y="-61"/>
      <point x="272" y="-149"/>
      <point x="208" y="-61" type="curve"/>
      <point x="204" y="-65"/>
      <point x="197" y="-72"/>
      <point x="192" y="-72" type="curve"/>
      <point x="184" y="-72"/>
      <point x="179" y="-64"/>
      <point x="179" y="-54" type="curve"/>
      <point x="179" y="-27"/>
      <point x="211" y="-15"/>
      <point x="232" y="2" type="curve"/>
      <point x="181" y="78"/>
      <point x="232" y="2"/>
    </contour>
  </outline>
</glyph>
<glyph name="Kcommaaccent" format="1">
  <advance width="609"/>
  <unicode hex="0136"/>
  <outline>
    <contour>
      <point x="450" y="722" type="curve"/>
      <point x="406" y="722"/>
      <point x="370" y="722"/>
      <point x="328" y="722" type="curve"/>
      <point x="328" y="613"/>
      <point x="328" y="722"/>
      <point x="328" y="613" type="curve"/>
      <point x="457" y="613"/>
      <point x="320" y="613"/>
      <point x="450" y="613" type="curve"/>
      <point x="450" y="722"/>
      <point x="450" y="613"/>
    </contour>
    <contour>
      <point x="444" y="0" type="curve"/>
      <point x="510" y="0"/>
      <point x="517" y="0"/>
      <point x="584" y="0" type="curve"/>
      <point x="584" y="109"/>
      <point x="584" y="0"/>
      <point x="584" y="109" type="curve"/>
      <point x="387" y="109"/>
      <point x="640" y="109"/>
      <point x="444" y="109" type="curve"/>
      <point x="444" y="0"/>
      <point x="444" y="109"/>
    </contour>
    <contour>
      <point x="415" y="613" type="curve"/>
      <point x="545" y="613"/>
      <point x="429" y="613"/>
      <point x="558" y="613" type="curve"/>
      <point x="558" y="722"/>
      <point x="558" y="613"/>
      <point x="558" y="722" type="curve"/>
      <point x="516" y="722"/>
      <point x="459" y="722"/>
      <point x="415" y="722" type="curve"/>
      <point x="415" y="613"/>
      <point x="415" y="722"/>
    </contour>
    <contour>
      <point x="165" y="722" type="curve"/>
      <point x="124" y="722"/>
      <point x="78" y="722"/>
      <point x="37" y="722" type="curve"/>
      <point x="37" y="613"/>
      <point x="37" y="722"/>
      <point x="37" y="613" type="curve"/>
      <point x="161" y="613"/>
      <point x="41" y="613"/>
      <point x="165" y="613" type="curve"/>
      <point x="165" y="722"/>
      <point x="165" y="613"/>
    </contour>
    <contour>
      <point x="165" y="613" type="curve"/>
      <point x="298" y="613"/>
      <point x="126" y="613"/>
      <point x="259" y="613" type="curve"/>
      <point x="259" y="722"/>
      <point x="259" y="613"/>
      <point x="259" y="722" type="curve"/>
      <point x="215" y="722"/>
      <point x="209" y="722"/>
      <point x="165" y="722" type="curve"/>
      <point x="165" y="613"/>
      <point x="165" y="722"/>
    </contour>
    <contour>
      <point x="165" y="0" type="curve"/>
      <point x="213" y="0"/>
      <point x="127" y="0"/>
      <point x="273" y="0" type="curve"/>
      <point x="273" y="109"/>
      <point x="273" y="0"/>
      <point x="273" y="109" type="curve"/>
      <point x="127" y="109"/>
      <point x="310" y="109"/>
      <point x="165" y="109" type="curve"/>
      <point x="165" y="0"/>
      <point x="165" y="109"/>
    </contour>
    <contour>
      <point x="165" y="109" type="curve"/>
      <point x="41" y="109"/>
      <point x="161" y="109"/>
      <point x="37" y="109" type="curve"/>
      <point x="37" y="0"/>
      <point x="37" y="109"/>
      <point x="37" y="0" type="curve"/>
      <point x="78" y="0"/>
      <point x="124" y="0"/>
      <point x="165" y="0" type="curve"/>
      <point x="165" y="109"/>
      <point x="165" y="0"/>
    </contour>
    <contour>
      <point x="433" y="722" type="curve"/>
      <point x="229" y="380" type="line"/>
      <point x="373" y="380"/>
      <point x="230" y="380"/>
      <point x="374" y="380" type="curve"/>
      <point x="524" y="656" type="line"/>
      <point x="446" y="656"/>
      <point x="510" y="722"/>
    </contour>
    <contour>
      <point x="236" y="0" type="curve"/>
      <point x="236" y="722" type="line"/>
      <point x="95" y="722"/>
      <point x="236" y="722"/>
      <point x="95" y="722" type="curve"/>
      <point x="95" y="481"/>
      <point x="95" y="241"/>
      <point x="95" y="0" type="curve"/>
      <point x="236" y="0"/>
      <point x="95" y="0"/>
    </contour>
    <contour>
      <point x="555" y="52" type="curve"/>
      <point x="374" y="380" type="line"/>
      <point x="230" y="380"/>
      <point x="373" y="380"/>
      <point x="229" y="380" type="curve"/>
      <point x="448" y="0" type="line"/>
      <point x="542" y="0"/>
      <point x="461" y="52"/>
    </contour>
    <contour>
      <point x="186" y="-389" type="line"/>
      <point x="279" y="-389"/>
      <point x="340" y="-320"/>
      <point x="340" y="-214" type="curve"/>
      <point x="340" y="-123"/>
      <point x="307" y="-80"/>
      <point x="263" y="-80" type="curve"/>
      <point x="221" y="-80"/>
      <point x="193" y="-105"/>
      <point x="193" y="-152" type="curve"/>
      <point x="193" y="-188"/>
      <point x="211" y="-218"/>
      <point x="247" y="-218" type="curve"/>
      <point x="248" y="-242"/>
      <point x="248" y="-300"/>
      <point x="186" y="-312" type="curve"/>
    </contour>
  </outline>
</glyph>
<glyph name="Lcaron" format="1">
  <advance width="487"/>
  <unicode hex="013D"/>
  <outline>
    <contour>
      <point x="452" y="55" type="curve"/>
      <point x="452" y="175"/>
      <point x="452" y="55"/>
      <point x="452" y="175" type="curve"/>
      <point x="341" y="175"/>
      <point x="452" y="175"/>
      <point x="341" y="175" type="curve"/>
      <point x="341" y="55"/>
      <point x="341" y="175"/>
      <point x="341" y="55" type="curve"/>
      <point x="452" y="55"/>
      <point x="341" y="55"/>
    </contour>
    <contour>
      <point x="171" y="109" type="curve"/>
      <point x="42" y="109"/>
      <point x="166" y="109"/>
      <point x="38" y="109" type="curve"/>
      <point x="37" y="0"/>
      <point x="38" y="109"/>
      <point x="37" y="0" type="curve"/>
      <point x="80" y="0"/>
      <point x="128" y="0"/>
      <point x="171" y="0" type="curve"/>
      <point x="171" y="109"/>
      <point x="171" y="0"/>
    </contour>
    <contour>
      <point x="171" y="722" type="curve"/>
      <point x="128" y="722"/>
      <point x="80" y="722"/>
      <point x="38" y="722" type="curve"/>
      <point x="37" y="613"/>
      <point x="38" y="722"/>
      <point x="37" y="613" type="curve"/>
      <point x="166" y="613"/>
      <point x="41" y="613"/>
      <point x="171" y="613" type="curve"/>
      <point x="171" y="722"/>
      <point x="171" y="613"/>
    </contour>
    <contour>
      <point x="171" y="613" type="curve"/>
      <point x="299" y="613"/>
      <point x="175" y="613"/>
      <point x="304" y="613" type="curve"/>
      <point x="304" y="722"/>
      <point x="304" y="613"/>
      <point x="304" y="722" type="curve"/>
      <point x="261" y="722"/>
      <point x="213" y="722"/>
      <point x="171" y="722" type="curve"/>
      <point x="171" y="613"/>
      <point x="171" y="722"/>
    </contour>
    <contour>
      <point x="241" y="0" type="curve"/>
      <point x="241" y="241"/>
      <point x="241" y="481"/>
      <point x="241" y="722" type="curve"/>
      <point x="101" y="722"/>
      <point x="241" y="722"/>
      <point x="101" y="722" type="curve"/>
      <point x="101" y="481"/>
      <point x="101" y="241"/>
      <point x="101" y="0" type="curve"/>
      <point x="241" y="0"/>
      <point x="101" y="0"/>
    </contour>
    <contour>
      <point x="171" y="0" type="curve"/>
      <point x="264" y="0"/>
      <point x="359" y="0"/>
      <point x="452" y="0" type="curve"/>
      <point x="452" y="109"/>
      <point x="452" y="0"/>
      <point x="452" y="109" type="curve"/>
      <point x="359" y="109"/>
      <point x="264" y="109"/>
      <point x="171" y="109" type="curve"/>
      <point x="171" y="0"/>
      <point x="171" y="109"/>
    </contour>
    <contour>
      <point x="415" y="483" type="line"/>
      <point x="508" y="483"/>
      <point x="569" y="552"/>
      <point x="569" y="659" type="curve"/>
      <point x="569" y="749"/>
      <point x="536" y="792"/>
      <point x="492" y="792" type="curve"/>
      <point x="450" y="792"/>
      <point x="422" y="767"/>
      <point x="422" y="721" type="curve"/>
      <point x="422" y="685"/>
      <point x="440" y="654"/>
      <point x="476" y="654" type="curve"/>
      <point x="477" y="631"/>
      <point x="477" y="573"/>
      <point x="415" y="561" type="curve"/>
    </contour>
  </outline>
</glyph>
<glyph name="lcaron" format="1">
  <advance width="341"/>
  <unicode hex="013E"/>
  <outline>
    <contour>
      <point x="147" y="109" type="curve"/>
      <point x="18" y="109"/>
      <point x="147" y="109"/>
      <point x="18" y="109" type="curve"/>
      <point x="18" y="0"/>
      <point x="18" y="109"/>
      <point x="18" y="0" type="curve"/>
      <point x="61" y="0"/>
      <point x="104" y="0"/>
      <point x="147" y="0" type="curve"/>
      <point x="147" y="110"/>
      <point x="147" y="-1"/>
    </contour>
    <contour>
      <point x="149" y="800" type="curve"/>
      <point x="105" y="800"/>
      <point x="62" y="800"/>
      <point x="20" y="800" type="curve"/>
      <point x="19" y="691"/>
      <point x="20" y="800"/>
      <point x="19" y="691" type="curve"/>
      <point x="149" y="690"/>
      <point x="19" y="691"/>
      <point x="149" y="690" type="curve"/>
      <point x="149" y="799"/>
      <point x="149" y="691"/>
    </contour>
    <contour>
      <point x="147" y="0" type="curve"/>
      <point x="190" y="0"/>
      <point x="233" y="0"/>
      <point x="276" y="0" type="curve"/>
      <point x="276" y="109"/>
      <point x="276" y="0"/>
      <point x="276" y="109" type="curve"/>
      <point x="147" y="109"/>
      <point x="276" y="109"/>
      <point x="147" y="109" type="curve"/>
      <point x="147" y="-1"/>
      <point x="147" y="110"/>
    </contour>
    <contour>
      <point x="217" y="0" type="curve"/>
      <point x="217" y="267"/>
      <point x="217" y="533"/>
      <point x="217" y="800" type="curve"/>
      <point x="76" y="800"/>
      <point x="217" y="800"/>
      <point x="76" y="800" type="curve"/>
      <point x="76" y="533"/>
      <point x="76" y="267"/>
      <point x="76" y="0" type="curve"/>
      <point x="217" y="0"/>
      <point x="76" y="0"/>
    </contour>
    <contour>
      <point x="373" y="562" type="line"/>
      <point x="466" y="562"/>
      <point x="526" y="631"/>
      <point x="526" y="738" type="curve"/>
      <point x="526" y="828"/>
      <point x="494" y="871"/>
      <point x="450" y="871" type="curve"/>
      <point x="409" y="871"/>
      <point x="380" y="846"/>
      <point x="380" y="800" type="curve"/>
      <point x="380" y="764"/>
      <point x="398" y="733"/>
      <point x="434" y="733" type="curve"/>
      <point x="434" y="710"/>
      <point x="435" y="652"/>
      <point x="373" y="640" type="curve"/>
    </contour>
  </outline>
</glyph>
<glyph name="ohungarumlaut" format="1">
  <advance width="506"/>
  <unicode hex="0151"/>
  <outline>
    <contour>
      <point x="164" y="265" type="curve"/>
      <point x="164" y="342"/>
      <point x="174" y="423"/>
      <point x="245" y="423" type="curve"/>
      <point x="315" y="423"/>
      <point x="326" y="344"/>
      <point x="326" y="265" type="curve"/>
      <point x="326" y="183"/>
      <point x="319" y="110"/>
      <point x="254" y="110" type="curve"/>
      <point x="173" y="111"/>
      <point x="164" y="182"/>
      <point x="164" y="265" type="curve"/>
      <point x="189" y="265"/>
      <point x="12" y="265"/>
      <point x="36" y="265" type="curve"/>
      <point x="36" y="109"/>
      <point x="103" y="-5"/>
      <point x="248" y="-5" type="curve"/>
      <point x="395" y="-5"/>
      <point x="466" y="107"/>
      <point x="466" y="265" type="curve"/>
      <point x="466" y="424"/>
      <point x="397" y="538"/>
      <point x="252" y="538" type="curve"/>
      <point x="105" y="538"/>
      <point x="36" y="424"/>
      <point x="36" y="265" type="curve"/>
      <point x="12" y="265"/>
      <point x="189" y="265"/>
    </contour>
    <contour>
      <point x="206" y="609" type="line"/>
      <point x="319" y="775" type="line"/>
      <point x="150" y="775" type="line"/>
      <point x="75" y="609" type="line"/>
    </contour>
    <contour>
      <point x="400" y="609" type="line"/>
      <point x="514" y="775" type="line"/>
      <point x="344" y="775" type="line"/>
      <point x="269" y="609" type="line"/>
    </contour>
  </outline>
</glyph>
<glyph name="rcommaaccent" format="1">
  <advance width="362"/>
  <unicode hex="0157"/>
  <outline>
    <contour>
      <point x="179" y="0" type="curve"/>
      <point x="219" y="0"/>
      <point x="263" y="0"/>
      <point x="305" y="0" type="curve"/>
      <point x="305" y="120"/>
      <point x="305" y="-11"/>
      <point x="305" y="109" type="curve"/>
      <point x="164" y="109"/>
      <point x="319" y="109"/>
      <point x="179" y="109" type="curve"/>
      <point x="179" y="-11"/>
      <point x="179" y="120"/>
    </contour>
    <contour>
      <point x="179" y="109" type="curve"/>
      <point x="31" y="109"/>
      <point x="194" y="109"/>
      <point x="46" y="109" type="curve"/>
      <point x="45" y="-11"/>
      <point x="46" y="120"/>
      <point x="45" y="0" type="curve"/>
      <point x="88" y="0"/>
      <point x="136" y="0"/>
      <point x="179" y="0" type="curve"/>
      <point x="179" y="120"/>
      <point x="179" y="-11"/>
    </contour>
    <contour>
      <point x="178" y="533" type="curve"/>
      <point x="135" y="533"/>
      <point x="88" y="533"/>
      <point x="45" y="533" type="curve"/>
      <point x="45" y="413"/>
      <point x="45" y="544"/>
      <point x="45" y="424" type="curve"/>
      <point x="193" y="424"/>
      <point x="30" y="424"/>
      <point x="178" y="424" type="curve"/>
      <point x="178" y="544"/>
      <point x="178" y="413"/>
    </contour>
    <contour>
      <point x="249" y="0" type="curve"/>
      <point x="249" y="174"/>
      <point x="249" y="359"/>
      <point x="249" y="533" type="curve"/>
      <point x="94" y="533"/>
      <point x="264" y="533"/>
      <point x="108" y="533" type="curve"/>
      <point x="108" y="359"/>
      <point x="108" y="174"/>
      <point x="108" y="0" type="curve"/>
      <point x="264" y="0"/>
      <point x="94" y="0"/>
    </contour>
    <contour>
      <point x="221" y="288" type="curve"/>
      <point x="246" y="404"/>
      <point x="293" y="427"/>
      <point x="346" y="427" type="curve"/>
      <point x="346" y="551"/>
      <point x="346" y="414"/>
      <point x="346" y="538" type="curve"/>
      <point x="261" y="538"/>
      <point x="198" y="443"/>
      <point x="169" y="335" type="curve"/>
      <point x="223" y="278"/>
      <point x="169" y="345"/>
    </contour>
    <contour>
      <point x="108" y="-392" type="line"/>
      <point x="201" y="-392"/>
      <point x="262" y="-322"/>
      <point x="262" y="-216" type="curve"/>
      <point x="262" y="-126"/>
      <point x="229" y="-82"/>
      <point x="185" y="-82" type="curve"/>
      <point x="144" y="-82"/>
      <point x="115" y="-107"/>
      <point x="115" y="-154" type="curve"/>
      <point x="115" y="-190"/>
      <point x="133" y="-220"/>
      <point x="169" y="-220" type="curve"/>
      <point x="170" y="-244"/>
      <point x="170" y="-302"/>
      <point x="108" y="-314" type="curve"/>
    </contour>
  </outline>
</glyph>
<glyph name="Scedilla" format="1">
  <advance width="485"/>
  <unicode hex="015E"/>
  <outline>
    <contour>
      <point x="287" y="661" type="curve"/>
      <point x="287" y="541"/>
      <point x="287" y="640"/>
      <point x="287" y="520" type="curve"/>
      <point x="397" y="520"/>
      <point x="287" y="520"/>
      <point x="397" y="520" type="curve"/>
      <point x="397" y="640"/>
      <point x="397" y="541"/>
      <point x="397" y="661" type="curve"/>
      <point x="287" y="661"/>
      <point x="397" y="661"/>
    </contour>
    <contour>
      <point x="181" y="53" type="curve"/>
      <point x="181" y="173"/>
      <point x="181" y="86"/>
      <point x="181" y="206" type="curve"/>
      <point x="70" y="206"/>
      <point x="181" y="206"/>
      <point x="70" y="206" type="curve"/>
      <point x="70" y="86"/>
      <point x="70" y="173"/>
      <point x="70" y="53" type="curve"/>
      <point x="181" y="53"/>
      <point x="70" y="53"/>
    </contour>
    <contour>
      <point x="70" y="53" type="curve"/>
      <point x="119" y="11"/>
      <point x="167" y="-5"/>
      <point x="232" y="-5" type="curve"/>
      <point x="354" y="-5"/>
      <point x="443" y="72"/>
      <point x="443" y="194" type="curve"/>
      <point x="443" y="299"/>
      <point x="377" y="362"/>
      <point x="286" y="419" type="curve" smooth="yes"/>
      <point x="237" y="450"/>
      <point x="198" y="493"/>
      <point x="198" y="538" type="curve"/>
      <point x="195" y="574"/>
      <point x="213" y="612"/>
      <point x="244" y="612" type="curve"/>
      <point x="282" y="612"/>
      <point x="312" y="588"/>
      <point x="333" y="575" type="curve"/>
      <point x="397" y="661"/>
      <point x="334" y="574"/>
      <point x="397" y="661" type="curve"/>
      <point x="350" y="700"/>
      <point x="306" y="716"/>
      <point x="246" y="716" type="curve"/>
      <point x="134" y="716"/>
      <point x="58" y="644"/>
      <point x="58" y="534" type="curve"/>
      <point x="58" y="434"/>
      <point x="117" y="366"/>
      <point x="201" y="314" type="curve" smooth="yes"/>
      <point x="254" y="280"/>
      <point x="302" y="238"/>
      <point x="302" y="195" type="curve"/>
      <point x="302" y="160"/>
      <point x="280" y="110"/>
      <point x="240" y="110" type="curve"/>
      <point x="201" y="110"/>
      <point x="177" y="132"/>
      <point x="147" y="157" type="curve"/>
      <point x="70" y="53"/>
      <point x="146" y="157"/>
    </contour>
    <contour>
      <point x="199" y="94" type="curve"/>
      <point x="190" y="73"/>
      <point x="157" y="-22"/>
      <point x="148" y="-44" type="curve"/>
      <point x="244" y="-131"/>
      <point x="148" y="-44"/>
      <point x="244" y="-131" type="curve"/>
      <point x="255" y="-105"/>
      <point x="297" y="-9"/>
      <point x="307" y="17" type="curve"/>
      <point x="199" y="94"/>
      <point x="307" y="17"/>
    </contour>
    <contour>
      <point x="244" y="-131" type="curve"/>
      <point x="250" y="-127"/>
      <point x="254" y="-123"/>
      <point x="260" y="-123" type="curve"/>
      <point x="265" y="-123"/>
      <point x="271" y="-126"/>
      <point x="271" y="-135" type="curve"/>
      <point x="271" y="-148"/>
      <point x="257" y="-152"/>
      <point x="243" y="-152" type="curve"/>
      <point x="226" y="-152"/>
      <point x="213" y="-149"/>
      <point x="200" y="-140" type="curve"/>
      <point x="144" y="-218"/>
      <point x="200" y="-140"/>
      <point x="144" y="-218" type="curve"/>
      <point x="172" y="-239"/>
      <point x="201" y="-246"/>
      <point x="236" y="-246" type="curve"/>
      <point x="302" y="-246"/>
      <point x="346" y="-205"/>
      <point x="346" y="-133" type="curve"/>
      <point x="346" y="-65"/>
      <point x="306" y="-20"/>
      <point x="240" y="-20" type="curve"/>
      <point x="205" y="-20"/>
      <point x="179" y="-24"/>
      <point x="148" y="-44" type="curve"/>
      <point x="244" y="-131"/>
      <point x="148" y="-44"/>
    </contour>
  </outline>
</glyph>
<glyph name="Scaron" format="1">
  <advance width="485"/>
  <unicode hex="0160"/>
  <outline>
    <contour>
      <point x="287" y="661" type="curve"/>
      <point x="287" y="541"/>
      <point x="287" y="640"/>
      <point x="287" y="520" type="curve"/>
      <point x="397" y="520"/>
      <point x="287" y="520"/>
      <point x="397" y="520" type="curve"/>
      <point x="397" y="640"/>
      <point x="397" y="541"/>
      <point x="397" y="661" type="curve"/>
      <point x="287" y="661"/>
      <point x="397" y="661"/>
    </contour>
    <contour>
      <point x="181" y="53" type="curve"/>
      <point x="181" y="173"/>
      <point x="181" y="86"/>
      <point x="181" y="206" type="curve"/>
      <point x="70" y="206"/>
      <point x="181" y="206"/>
      <point x="70" y="206" type="curve"/>
      <point x="70" y="86"/>
      <point x="70" y="173"/>
      <point x="70" y="53" type="curve"/>
      <point x="181" y="53"/>
      <point x="70" y="53"/>
    </contour>
    <contour>
      <point x="70" y="53" type="curve"/>
      <point x="119" y="11"/>
      <point x="167" y="-5"/>
      <point x="232" y="-5" type="curve"/>
      <point x="354" y="-5"/>
      <point x="443" y="72"/>
      <point x="443" y="194" type="curve"/>
      <point x="443" y="299"/>
      <point x="377" y="362"/>
      <point x="286" y="419" type="curve" smooth="yes"/>
      <point x="237" y="450"/>
      <point x="198" y="493"/>
      <point x="198" y="538" type="curve"/>
      <point x="195" y="574"/>
      <point x="213" y="612"/>
      <point x="244" y="612" type="curve"/>
      <point x="282" y="612"/>
      <point x="312" y="588"/>
      <point x="333" y="575" type="curve"/>
      <point x="397" y="661"/>
      <point x="334" y="574"/>
      <point x="397" y="661" type="curve"/>
      <point x="350" y="700"/>
      <point x="306" y="716"/>
      <point x="246" y="716" type="curve"/>
      <point x="134" y="716"/>
      <point x="58" y="644"/>
      <point x="58" y="534" type="curve"/>
      <point x="58" y="434"/>
      <point x="117" y="366"/>
      <point x="201" y="314" type="curve" smooth="yes"/>
      <point x="254" y="280"/>
      <point x="302" y="238"/>
      <point x="302" y="195" type="curve"/>
      <point x="302" y="160"/>
      <point x="280" y="110"/>
      <point x="240" y="110" type="curve"/>
      <point x="201" y="110"/>
      <point x="177" y="132"/>
      <point x="147" y="157" type="curve"/>
      <point x="70" y="53"/>
      <point x="146" y="157"/>
    </contour>
    <contour>
      <point x="299" y="947" type="line"/>
      <point x="185" y="781" type="line"/>
      <point x="355" y="781" type="line"/>
      <point x="430" y="947" type="line"/>
    </contour>
    <contour>
      <point x="59" y="947" type="line"/>
      <point x="133" y="781" type="line"/>
      <point x="303" y="781" type="line"/>
      <point x="190" y="947" type="line"/>
    </contour>
  </outline>
</glyph>
<glyph name="tcommaaccent" format="1">
  <advance width="302"/>
  <unicode hex="0163"/>
  <outline>
    <contour>
      <point x="12" y="422" type="curve"/>
      <point x="281" y="422" type="line"/>
      <point x="281" y="532"/>
      <point x="281" y="422"/>
      <point x="281" y="532" type="curve"/>
      <point x="12" y="532" type="line"/>
      <point x="12" y="422"/>
      <point x="12" y="532"/>
    </contour>
    <contour>
      <point x="232" y="124" type="curve"/>
      <point x="223" y="115"/>
      <point x="217" y="109"/>
      <point x="207" y="109" type="curve"/>
      <point x="178" y="109"/>
      <point x="185" y="141"/>
      <point x="185" y="175" type="curve"/>
      <point x="185" y="678" type="line"/>
      <point x="20" y="574"/>
      <point x="209" y="691"/>
      <point x="44" y="587" type="curve"/>
      <point x="44" y="170" type="line"/>
      <point x="44" y="62"/>
      <point x="88" y="-6"/>
      <point x="185" y="-6" type="curve"/>
      <point x="225" y="-6"/>
      <point x="253" y="8"/>
      <point x="292" y="32" type="curve"/>
      <point x="232" y="124"/>
      <point x="292" y="32"/>
    </contour>
    <contour>
      <point x="97" y="-382" type="line"/>
      <point x="190" y="-382"/>
      <point x="251" y="-313"/>
      <point x="251" y="-206" type="curve"/>
      <point x="251" y="-116"/>
      <point x="218" y="-73"/>
      <point x="174" y="-73" type="curve"/>
      <point x="132" y="-73"/>
      <point x="104" y="-98"/>
      <point x="104" y="-144" type="curve"/>
      <point x="104" y="-180"/>
      <point x="122" y="-211"/>
      <point x="158" y="-211" type="curve"/>
      <point x="159" y="-235"/>
      <point x="159" y="-292"/>
      <point x="97" y="-305" type="curve"/>
    </contour>
  </outline>
</glyph>
<glyph name="zacute" format="1">
  <advance width="420"/>
  <unicode hex="017A"/>
  <outline>
    <contour>
      <point x="46" y="424" type="curve"/>
      <point x="143" y="424"/>
      <point x="243" y="424"/>
      <point x="342" y="424" type="curve"/>
      <point x="331" y="435"/>
      <point x="311" y="432"/>
      <point x="300" y="443" type="curve"/>
      <point x="290" y="451"/>
      <point x="294" y="470"/>
      <point x="283" y="480" type="curve"/>
      <point x="275" y="469"/>
      <point x="257" y="480"/>
      <point x="249" y="471" type="curve"/>
      <point x="36" y="110" type="line"/>
      <point x="36" y="53"/>
      <point x="36" y="110"/>
      <point x="36" y="53" type="curve"/>
      <point x="36" y="0"/>
      <point x="36" y="53"/>
      <point x="36" y="0" type="curve"/>
      <point x="87" y="0"/>
      <point x="36" y="0"/>
      <point x="87" y="0" type="curve"/>
      <point x="393" y="0"/>
      <point x="292" y="0"/>
      <point x="395" y="0" type="curve"/>
      <point x="395" y="109"/>
      <point x="395" y="0"/>
      <point x="395" y="109" type="curve"/>
      <point x="292" y="109"/>
      <point x="189" y="110"/>
      <point x="87" y="110" type="curve"/>
      <point x="96" y="101"/>
      <point x="112" y="102"/>
      <point x="122" y="94" type="curve"/>
      <point x="134" y="84"/>
      <point x="132" y="64"/>
      <point x="144" y="53" type="curve"/>
      <point x="152" y="64"/>
      <point x="171" y="53"/>
      <point x="179" y="62" type="curve"/>
      <point x="401" y="424" type="line"/>
      <point x="401" y="480"/>
      <point x="401" y="424"/>
      <point x="401" y="480" type="curve"/>
      <point x="401" y="533"/>
      <point x="401" y="480"/>
      <point x="401" y="533" type="curve"/>
      <point x="342" y="533"/>
      <point x="401" y="533"/>
      <point x="342" y="533" type="curve"/>
      <point x="243" y="533"/>
      <point x="143" y="533"/>
      <point x="46" y="533" type="curve"/>
      <point x="46" y="424"/>
      <point x="46" y="533"/>
    </contour>
    <contour>
      <point x="46" y="478" type="curve"/>
      <point x="46" y="358"/>
      <point x="46" y="478"/>
      <point x="46" y="358" type="curve"/>
      <point x="155" y="358"/>
      <point x="46" y="358"/>
      <point x="155" y="358" type="curve"/>
      <point x="155" y="478"/>
      <point x="155" y="358"/>
      <point x="155" y="478" type="curve"/>
      <point x="46" y="478"/>
      <point x="155" y="478"/>
    </contour>
    <contour>
      <point x="395" y="55" type="curve"/>
      <point x="395" y="175"/>
      <point x="395" y="55"/>
      <point x="395" y="175" type="curve"/>
      <point x="284" y="175"/>
      <point x="395" y="175"/>
      <point x="284" y="175" type="curve"/>
      <point x="284" y="55"/>
      <point x="284" y="175"/>
      <point x="284" y="55" type="curve"/>
      <point x="395" y="55"/>
      <point x="284" y="55"/>
    </contour>
    <contour>
      <point x="289" y="609" type="line"/>
      <point x="403" y="775" type="line"/>
      <point x="233" y="775" type="line"/>
      <point x="158" y="609" type="line"/>
    </contour>
  </outline>
</glyph>
<glyph name="Zdotaccent" format="1">
  <advance width="551"/>
  <unicode hex="017B"/>
  <outline>
    <contour>
      <point x="52" y="667" type="curve"/>
      <point x="52" y="547"/>
      <point x="52" y="667"/>
      <point x="52" y="547" type="curve"/>
      <point x="162" y="547"/>
      <point x="52" y="547"/>
      <point x="162" y="547" type="curve"/>
      <point x="162" y="667"/>
      <point x="162" y="547"/>
      <point x="162" y="667" type="curve"/>
      <point x="52" y="667"/>
      <point x="162" y="667"/>
    </contour>
    <contour>
      <point x="506" y="55" type="curve"/>
      <point x="506" y="175"/>
      <point x="506" y="55"/>
      <point x="506" y="175" type="curve"/>
      <point x="395" y="175"/>
      <point x="506" y="175"/>
      <point x="395" y="175" type="curve"/>
      <point x="395" y="55"/>
      <point x="395" y="175"/>
      <point x="395" y="55" type="curve"/>
      <point x="506" y="55"/>
      <point x="395" y="55"/>
    </contour>
    <contour>
      <point x="52" y="613" type="curve"/>
      <point x="160" y="613"/>
      <point x="322" y="613"/>
      <point x="431" y="613" type="curve"/>
      <point x="419" y="622"/>
      <point x="400" y="621"/>
      <point x="390" y="632" type="curve"/>
      <point x="378" y="640"/>
      <point x="382" y="659"/>
      <point x="372" y="669" type="curve"/>
      <point x="365" y="658"/>
      <point x="349" y="669"/>
      <point x="344" y="658" type="curve"/>
      <point x="30" y="109" type="line"/>
      <point x="30" y="53"/>
      <point x="30" y="109"/>
      <point x="30" y="53" type="curve"/>
      <point x="30" y="0"/>
      <point x="30" y="53"/>
      <point x="30" y="0" type="curve"/>
      <point x="82" y="0"/>
      <point x="30" y="0"/>
      <point x="82" y="0" type="curve"/>
      <point x="470" y="0"/>
      <point x="376" y="0"/>
      <point x="506" y="0" type="curve"/>
      <point x="506" y="109"/>
      <point x="506" y="0"/>
      <point x="506" y="109" type="curve"/>
      <point x="376" y="109"/>
      <point x="211" y="109"/>
      <point x="82" y="109" type="curve"/>
      <point x="92" y="101"/>
      <point x="108" y="102"/>
      <point x="117" y="94" type="curve"/>
      <point x="129" y="84"/>
      <point x="127" y="64"/>
      <point x="138" y="53" type="curve"/>
      <point x="144" y="63"/>
      <point x="158" y="55"/>
      <point x="164" y="64" type="curve"/>
      <point x="485" y="613" type="line"/>
      <point x="485" y="669"/>
      <point x="485" y="613"/>
      <point x="485" y="669" type="curve"/>
      <point x="485" y="722"/>
      <point x="485" y="669"/>
      <point x="485" y="722" type="curve"/>
      <point x="434" y="722"/>
      <point x="485" y="722"/>
      <point x="434" y="722" type="curve"/>
      <point x="324" y="722"/>
      <point x="161" y="722"/>
      <point x="52" y="722" type="curve"/>
      <point x="52" y="613"/>
      <point x="52" y="722"/>
    </contour>
    <contour>
      <point x="347" y="840" type="curve"/>
      <point x="347" y="887"/>
      <point x="316" y="911"/>
      <point x="275" y="911" type="curve"/>
      <point x="232" y="911"/>
      <point x="205" y="885"/>
      <point x="205" y="840" type="curve"/>
      <point x="347" y="840"/>
      <point x="205" y="840"/>
      <point x="347" y="840" type="curve"/>
      <point x="347" y="791"/>
      <point x="317" y="769"/>
      <point x="275" y="769" type="curve"/>
      <point x="231" y="769"/>
      <point x="205" y="793"/>
      <point x="205" y="840" type="curve"/>
      <point x="347" y="840"/>
      <point x="205" y="840"/>
    </contour>
  </outline>
</glyph>
<glyph name="dotaccent" format="1">
  <advance width="380"/>
  <unicode hex="02D9"/>
  <outline>
    <contour>
      <point x="191" y="616" type="move" name="_top"/>
    </contour>
    <contour>
      <point x="263" y="685" type="curve"/>
      <point x="263" y="733"/>
      <point x="234" y="757"/>
      <point x="191" y="757" type="curve"/>
      <point x="149" y="757"/>
      <point x="121" y="731"/>
      <point x="121" y="685" type="curve"/>
      <point x="263" y="685"/>
      <point x="121" y="685"/>
      <point x="263" y="685" type="curve"/>
      <point x="263" y="637"/>
      <point x="235" y="615"/>
      <point x="191" y="615" type="curve"/>
      <point x="149" y="615"/>
      <point x="121" y="639"/>
      <point x="121" y="685" type="curve"/>
      <point x="263" y="685"/>
      <point x="121" y="685"/>
    </contour>
  </outline>
</glyph>
<glyph name="tilde" format="1">
  <advance width="470"/>
  <unicode hex="02DC"/>
  <outline>
    <contour>
      <point x="151" y="534" type="move" name="_top"/>
    </contour>
    <contour>
      <point x="235" y="728" type="curve"/>
      <point x="217" y="693"/>
      <point x="205" y="691"/>
      <point x="194" y="691" type="curve"/>
      <point x="170" y="691"/>
      <point x="160" y="697"/>
      <point x="143" y="710" type="curve" smooth="yes"/>
      <point x="120" y="727"/>
      <point x="111" y="735"/>
      <point x="86" y="735" type="curve"/>
      <point x="21" y="735"/>
      <point x="-13" y="662"/>
      <point x="-31" y="603" type="curve"/>
      <point x="72" y="541"/>
      <point x="-31" y="604"/>
      <point x="72" y="541" type="curve"/>
      <point x="92" y="580"/>
      <point x="108" y="583"/>
      <point x="124" y="583" type="curve"/>
      <point x="141" y="583"/>
      <point x="150" y="578"/>
      <point x="162" y="567" type="curve" smooth="yes"/>
      <point x="189" y="545"/>
      <point x="202" y="534"/>
      <point x="234" y="534" type="curve"/>
      <point x="299" y="534"/>
      <point x="320" y="601"/>
      <point x="346" y="668" type="curve"/>
      <point x="235" y="728"/>
      <point x="346" y="667"/>
    </contour>
  </outline>
</glyph>
<glyph name="dvAnusvara" format="1">
  <advance width="0"/>
  <unicode hex="0902"/>
  <outline>
    <contour>
      <point x="-51" y="780" type="move" name="_abvm.e"/>
    </contour>
    <contour>
      <point x="-50" y="933" type="curve"/>
      <point x="-50" y="971"/>
      <point x="-71" y="998"/>
      <point x="-107" y="998" type="curve"/>
      <point x="-143" y="998"/>
      <point x="-165" y="972"/>
      <point x="-165" y="933" type="curve"/>
      <point x="-143" y="933"/>
      <point x="-72" y="933"/>
      <point x="-50" y="933" type="curve"/>
      <point x="-50" y="896"/>
      <point x="-71" y="868"/>
      <point x="-107" y="868" type="curve"/>
      <point x="-143" y="868"/>
      <point x="-165" y="895"/>
      <point x="-165" y="933" type="curve"/>
      <point x="-143" y="933"/>
      <point x="-72" y="933"/>
    </contour>
  </outline>
</glyph>
<glyph name="dvAA" format="1">
  <advance width="821"/>
  <unicode hex="0906"/>
  <outline>
    <contour>
      <point x="464" y="476" type="line"/>
      <point x="447" y="442"/>
      <point x="417" y="415"/>
      <point x="375" y="415" type="curve" smooth="yes"/>
      <point x="321" y="415"/>
      <point x="279" y="428"/>
      <point x="229" y="449" type="curve"/>
      <point x="217" y="424"/>
      <point x="217" y="397"/>
      <point x="204" y="371" type="curve"/>
      <point x="250" y="346"/>
      <point x="312" y="322"/>
      <point x="376" y="322" type="curve" smooth="yes"/>
      <point x="443" y="322"/>
      <point x="502" y="364"/>
      <point x="528" y="411" type="curve"/>
    </contour>
    <contour>
      <point x="486" y="0" type="curve"/>
      <point x="515" y="0"/>
      <point x="549" y="0"/>
      <point x="577" y="0" type="curve"/>
      <point x="577" y="109"/>
      <point x="577" y="0"/>
      <point x="577" y="109" type="curve"/>
      <point x="489" y="109"/>
      <point x="574" y="109"/>
      <point x="486" y="109" type="curve"/>
      <point x="486" y="0"/>
      <point x="486" y="109"/>
    </contour>
    <contour>
      <point x="486" y="109" type="curve"/>
      <point x="393" y="109"/>
      <point x="483" y="109"/>
      <point x="390" y="109" type="curve"/>
      <point x="390" y="0"/>
      <point x="390" y="109"/>
      <point x="390" y="0" type="curve"/>
      <point x="421" y="0"/>
      <point x="455" y="0"/>
      <point x="486" y="0" type="curve"/>
      <point x="486" y="109"/>
      <point x="486" y="0"/>
    </contour>
    <contour>
      <point x="556" y="0" type="curve"/>
      <point x="556" y="241"/>
      <point x="556" y="481"/>
      <point x="556" y="722" type="curve"/>
      <point x="416" y="722"/>
      <point x="556" y="722"/>
      <point x="416" y="722" type="curve"/>
      <point x="416" y="481"/>
      <point x="416" y="241"/>
      <point x="416" y="0" type="curve"/>
      <point x="556" y="0"/>
      <point x="416" y="0"/>
    </contour>
    <contour>
      <point x="478" y="601" type="curve"/>
      <point x="553" y="601"/>
      <point x="583" y="601"/>
      <point x="658" y="601" type="curve"/>
      <point x="658" y="722"/>
      <point x="658" y="601"/>
      <point x="658" y="722" type="curve"/>
      <point x="583" y="722"/>
      <point x="553" y="722"/>
      <point x="478" y="722" type="curve"/>
      <point x="478" y="601"/>
      <point x="478" y="722"/>
    </contour>
    <contour>
      <point x="128" y="567" type="curve"/>
      <point x="148" y="588"/>
      <point x="165" y="603"/>
      <point x="193" y="603" type="curve"/>
      <point x="220" y="603"/>
      <point x="230" y="575"/>
      <point x="229" y="541" type="curve"/>
      <point x="229" y="498"/>
      <point x="205" y="466"/>
      <point x="166" y="466" type="curve"/>
      <point x="166" y="429"/>
      <point x="166" y="404"/>
      <point x="166" y="368" type="curve"/>
      <point x="286" y="368"/>
      <point x="369" y="435"/>
      <point x="369" y="553" type="curve"/>
      <point x="369" y="657"/>
      <point x="310" y="727"/>
      <point x="208" y="727" type="curve"/>
      <point x="139" y="727"/>
      <point x="92" y="707"/>
      <point x="42" y="660" type="curve"/>
      <point x="74" y="625"/>
      <point x="96" y="602"/>
    </contour>
    <contour>
      <point x="27" y="151" type="curve"/>
      <point x="69" y="90"/>
      <point x="118" y="60"/>
      <point x="193" y="60" type="curve"/>
      <point x="311" y="56"/>
      <point x="386" y="133"/>
      <point x="385" y="253" type="curve"/>
      <point x="383" y="373"/>
      <point x="294" y="442"/>
      <point x="166" y="442" type="curve"/>
      <point x="166" y="408"/>
      <point x="166" y="383"/>
      <point x="166" y="350" type="curve"/>
      <point x="217" y="350"/>
      <point x="249" y="315"/>
      <point x="250" y="264" type="curve"/>
      <point x="250" y="215"/>
      <point x="238" y="173"/>
      <point x="197" y="175" type="curve"/>
      <point x="163" y="175"/>
      <point x="143" y="193"/>
      <point x="123" y="223" type="curve"/>
      <point x="88" y="196"/>
      <point x="62" y="178"/>
    </contour>
    <contour>
      <point x="692" y="0" type="curve"/>
      <point x="723" y="0"/>
      <point x="758" y="0"/>
      <point x="788" y="0" type="curve"/>
      <point x="788" y="109"/>
      <point x="788" y="0"/>
      <point x="788" y="109" type="curve"/>
      <point x="695" y="109"/>
      <point x="785" y="109"/>
      <point x="692" y="109" type="curve"/>
      <point x="692" y="0"/>
      <point x="692" y="109"/>
    </contour>
    <contour>
      <point x="692" y="109" type="curve"/>
      <point x="607" y="109"/>
      <point x="689" y="109"/>
      <point x="604" y="109" type="curve"/>
      <point x="604" y="0"/>
      <point x="604" y="109"/>
      <point x="604" y="0" type="curve"/>
      <point x="632" y="0"/>
      <point x="664" y="0"/>
      <point x="692" y="0" type="curve"/>
      <point x="692" y="109"/>
      <point x="692" y="0"/>
    </contour>
    <contour>
      <point x="762" y="0" type="curve"/>
      <point x="762" y="241"/>
      <point x="762" y="481"/>
      <point x="762" y="722" type="curve"/>
      <point x="621" y="722"/>
      <point x="762" y="722"/>
      <point x="621" y="722" type="curve"/>
      <point x="621" y="481"/>
      <point x="621" y="241"/>
      <point x="621" y="0" type="curve"/>
      <point x="762" y="0"/>
      <point x="621" y="0"/>
    </contour>
    <contour>
      <point x="684" y="601" type="curve"/>
      <point x="749" y="601"/>
      <point x="776" y="601"/>
      <point x="841" y="601" type="curve"/>
      <point x="841" y="722"/>
      <point x="841" y="601"/>
      <point x="841" y="722" type="curve"/>
      <point x="776" y="722"/>
      <point x="749" y="722"/>
      <point x="684" y="722" type="curve"/>
      <point x="684" y="601"/>
      <point x="684" y="722"/>
    </contour>
  </outline>
</glyph>
<glyph name="dvvR" format="1">
  <advance width="711"/>
  <unicode hex="090B"/>
  <outline>
    <contour>
      <point x="554" y="531" type="line"/>
      <point x="554" y="479"/>
      <point x="522" y="438"/>
      <point x="472" y="438" type="curve"/>
      <point x="428" y="438"/>
      <point x="380" y="438"/>
      <point x="337" y="438" type="curve"/>
      <point x="337" y="403"/>
      <point x="337" y="377"/>
      <point x="337" y="342" type="curve"/>
      <point x="383" y="342"/>
      <point x="432" y="342"/>
      <point x="479" y="342" type="curve"/>
      <point x="589" y="342"/>
      <point x="664" y="421"/>
      <point x="664" y="531" type="curve"/>
    </contour>
    <contour>
      <point x="443" y="0" type="curve"/>
      <point x="443" y="238"/>
      <point x="443" y="473"/>
      <point x="443" y="711" type="curve"/>
      <point x="302" y="711"/>
      <point x="443" y="711"/>
      <point x="302" y="711" type="curve"/>
      <point x="302" y="473"/>
      <point x="302" y="238"/>
      <point x="302" y="0" type="curve"/>
      <point x="443" y="0"/>
      <point x="302" y="0"/>
    </contour>
    <component base="dvmE" xScale="0.899835414679" yScale="0.899835414679" xOffset="766" yOffset="-250"/>
    <component base="dvTopbar" xScale="1.52725146033" xOffset="13"/>
    <component base="dvStroke_down" yScale="1.03722575979" xOffset="287" yOffset="231"/>
    <component base="dvmvR" xOffset="726" yOffset="220"/>
    <component base="dvRaker" xOffset="-156" yOffset="-34"/>
  </outline>
</glyph>
<glyph name="dvE" format="1">
  <advance width="439"/>
  <unicode hex="090F"/>
  <outline>
    <contour>
      <point x="292" y="221" type="curve"/>
      <point x="377" y="290"/>
      <point x="413" y="365"/>
      <point x="413" y="466" type="curve"/>
      <point x="413" y="529"/>
      <point x="413" y="596"/>
      <point x="413" y="661" type="curve"/>
      <point x="257" y="661"/>
      <point x="428" y="661"/>
      <point x="272" y="661" type="curve"/>
      <point x="272" y="591"/>
      <point x="272" y="517"/>
      <point x="272" y="447" type="curve"/>
      <point x="272" y="394"/>
      <point x="254" y="356"/>
      <point x="205" y="317" type="curve"/>
      <point x="303" y="203"/>
      <point x="194" y="335"/>
    </contour>
    <contour>
      <point x="346" y="96" type="curve"/>
      <point x="230" y="122"/>
      <point x="175" y="222"/>
      <point x="175" y="314" type="curve"/>
      <point x="175" y="429"/>
      <point x="175" y="551"/>
      <point x="175" y="666" type="curve"/>
      <point x="19" y="666"/>
      <point x="190" y="666"/>
      <point x="34" y="666" type="curve"/>
      <point x="33" y="542"/>
      <point x="33" y="413"/>
      <point x="33" y="290" type="curve"/>
      <point x="33" y="154"/>
      <point x="139" y="36"/>
      <point x="301" y="-10" type="curve"/>
      <point x="353" y="117"/>
      <point x="294" y="-30"/>
    </contour>
    <component base="dvTopbar" xScale="0.971812998805" xOffset="-1"/>
  </outline>
</glyph>
<glyph name="dvKA" format="1">
  <advance width="676"/>
  <unicode hex="0915"/>
  <outline>
    <contour>
      <point x="411" y="0" type="move" name="blwm.virama"/>
    </contour>
    <contour>
      <point x="411" y="720" type="move" name="abvm.e"/>
    </contour>
    <contour>
      <point x="411" y="0" type="move" name="blwm.u"/>
    </contour>
    <component base="dvTopbar" xScale="1.44508337456" xOffset="9"/>
    <component base="dvK_left"/>
    <component base="dvStemright" xOffset="176"/>
    <component base="dvKA_right"/>
  </outline>
</glyph>
<glyph name="dvNGA" format="1">
  <advance width="539"/>
  <unicode hex="0919"/>
  <outline>
    <contour>
      <point x="278" y="-59" type="move" name="blwm.virama"/>
    </contour>
    <contour>
      <point x="350" y="720" type="move" name="abvm.e"/>
    </contour>
    <contour>
      <point x="293" y="-144" type="move" name="blwm.u"/>
    </contour>
    <component base="dvDDA" xOffset="-1"/>
    <component base="dvAnusvara" xOffset="529" yOffset="-573"/>
    <component base="dvTopbar" xOffset="77"/>
  </outline>
</glyph>
<glyph name="dvTTHA" format="1">
  <advance width="451"/>
  <unicode hex="0920"/>
  <outline>
    <contour>
      <point x="340" y="-3" type="move" name="blwm.virama"/>
    </contour>
    <contour>
      <point x="301" y="722" type="move" name="abvm.e"/>
    </contour>
    <contour>
      <point x="360" y="-88" type="move" name="blwm.u"/>
    </contour>
    <contour>
      <point x="301" y="291" type="curve"/>
      <point x="301" y="225"/>
      <point x="289" y="166"/>
      <point x="236" y="166" type="curve"/>
      <point x="180" y="166"/>
      <point x="161" y="224"/>
      <point x="161" y="292" type="curve"/>
      <point x="161" y="353"/>
      <point x="176" y="406"/>
      <point x="226" y="406" type="curve"/>
      <point x="279" y="406"/>
      <point x="301" y="354"/>
      <point x="301" y="291" type="curve"/>
      <point x="348" y="291"/>
      <point x="382" y="291"/>
      <point x="429" y="291" type="curve"/>
      <point x="429" y="423"/>
      <point x="358" y="517"/>
      <point x="233" y="517" type="curve"/>
      <point x="107" y="517"/>
      <point x="32" y="424"/>
      <point x="32" y="292" type="curve"/>
      <point x="32" y="154"/>
      <point x="98" y="51"/>
      <point x="224" y="51" type="curve"/>
      <point x="354" y="51"/>
      <point x="429" y="151"/>
      <point x="429" y="291" type="curve"/>
      <point x="382" y="291"/>
      <point x="348" y="291"/>
    </contour>
    <component base="dvTopbar" xScale="0.995269641843" xOffset="-1"/>
    <component base="dvStem_short" xOffset="22" yOffset="-4"/>
  </outline>
</glyph>
<glyph name="dvDA" format="1">
  <advance width="459"/>
  <unicode hex="0926"/>
  <outline>
    <contour>
      <point x="383" y="-38" type="move" name="blwm.virama"/>
    </contour>
    <contour>
      <point x="370" y="719" type="move" name="abvm.e"/>
    </contour>
    <contour>
      <point x="383" y="-19" type="move" name="blwm.u"/>
    </contour>
    <component base="dvDA_base"/>
    <component base="dvTopbar"/>
    <component base="dvStroke_down" yScale="0.976512389391" xOffset="3" yOffset="-8"/>
  </outline>
</glyph>
<glyph name="dvPHA" format="1">
  <advance width="759"/>
  <unicode hex="092B"/>
  <outline>
    <contour>
      <point x="442" y="0" type="move" name="blwm.virama"/>
    </contour>
    <contour>
      <point x="442" y="722" type="move" name="abvm.e"/>
    </contour>
    <contour>
      <point x="442" y="0" type="move" name="blwm.u"/>
    </contour>
    <component base="dvTopbar" xScale="1.61474116162" xOffset="-59"/>
    <component base="dvKA_right" xOffset="9" yOffset="-29"/>
    <component base="dvPA"/>
  </outline>
</glyph>
<glyph name="dvBA" format="1">
  <advance width="456"/>
  <unicode hex="092C"/>
  <outline>
    <contour>
      <point x="299" y="283" type="curve"/>
      <point x="282" y="233"/>
      <point x="266" y="184"/>
      <point x="221" y="184" type="curve"/>
      <point x="167" y="184"/>
      <point x="142" y="246"/>
      <point x="142" y="318" type="curve"/>
      <point x="142" y="383"/>
      <point x="160" y="443"/>
      <point x="218" y="443" type="curve"/>
      <point x="261" y="443"/>
      <point x="282" y="409"/>
      <point x="310" y="362" type="curve"/>
      <point x="379" y="448"/>
      <point x="301" y="357"/>
      <point x="370" y="443" type="curve"/>
      <point x="337" y="513"/>
      <point x="283" y="553"/>
      <point x="203" y="553" type="curve"/>
      <point x="93" y="553"/>
      <point x="16" y="457"/>
      <point x="16" y="317" type="curve"/>
      <point x="16" y="177"/>
      <point x="85" y="68"/>
      <point x="200" y="68" type="curve"/>
      <point x="300" y="68"/>
      <point x="366" y="137"/>
      <point x="394" y="238" type="curve"/>
      <point x="288" y="287"/>
      <point x="404" y="235"/>
    </contour>
    <component base="dvDiagonal" xOffset="-4" yOffset="4"/>
    <component base="dvTopbar" xScale="0.783069522761" xOffset="-2"/>
    <component base="dvStemright" xOffset="171"/>
  </outline>
</glyph>
<glyph name="dvLLA" format="1">
  <advance width="629"/>
  <unicode hex="0933"/>
  <outline>
    <contour>
      <point x="524" y="-11" type="move" name="blwm.virama"/>
    </contour>
    <contour>
      <point x="495" y="720" type="move" name="abvm.e"/>
    </contour>
    <contour>
      <point x="524" y="-82" type="move" name="blwm.u"/>
    </contour>
    <component base="dvLL"/>
    <component base="dvStem_short" xOffset="229" yOffset="-26"/>
  </outline>
</glyph>
<glyph name="dvmI" format="1">
  <advance width="214"/>
  <unicode hex="093F"/>
  <outline>
    <contour>
      <point x="188" y="689" type="curve"/>
      <point x="179" y="722"/>
      <point x="174" y="746"/>
      <point x="174" y="780" type="curve"/>
      <point x="174" y="861"/>
      <point x="220" y="884"/>
      <point x="267" y="884" type="curve"/>
      <point x="397" y="884"/>
      <point x="491" y="786"/>
      <point x="557" y="644" type="curve"/>
      <point x="584" y="673"/>
      <point x="619" y="677"/>
      <point x="650" y="708" type="curve"/>
      <point x="557" y="885"/>
      <point x="442" y="1001"/>
      <point x="269" y="1001" type="curve"/>
      <point x="152" y="1001"/>
      <point x="51" y="954"/>
      <point x="51" y="770" type="curve"/>
      <point x="51" y="714"/>
      <point x="65" y="679"/>
      <point x="84" y="633" type="curve"/>
      <point x="120" y="658"/>
      <point x="154" y="663"/>
    </contour>
    <component base="dvmAA"/>
  </outline>
</glyph>
<glyph name="dvmU" format="1">
  <advance width="0"/>
  <unicode hex="0941"/>
  <outline>
    <contour>
      <point x="-37" y="-3" type="move" name="_blwm.u"/>
    </contour>
    <contour>
      <point x="-140" y="-61" type="line"/>
      <point x="-106" y="-61"/>
      <point x="-89" y="-95"/>
      <point x="-89" y="-134" type="curve"/>
      <point x="-89" y="-165"/>
      <point x="-98" y="-195"/>
      <point x="-125" y="-195" type="curve"/>
      <point x="-171" y="-195"/>
      <point x="-183" y="-145"/>
      <point x="-199" y="-98" type="curve"/>
      <point x="-313" y="-147" type="line"/>
      <point x="-280" y="-244"/>
      <point x="-235" y="-329"/>
      <point x="-139" y="-329" type="curve"/>
      <point x="-29" y="-329"/>
      <point x="44" y="-248"/>
      <point x="44" y="-137" type="curve"/>
      <point x="44" y="-25"/>
      <point x="-30" y="55"/>
      <point x="-140" y="55" type="curve"/>
    </contour>
  </outline>
</glyph>
<glyph name="dvmUU" format="1">
  <advance width="0"/>
  <unicode hex="0942"/>
  <outline>
    <contour>
      <point x="-64" y="-3" type="move" name="_blwm.u"/>
    </contour>
    <contour>
      <point x="-131" y="-205" type="line"/>
      <point x="-166" y="-205"/>
      <point x="-186" y="-172"/>
      <point x="-186" y="-135" type="curve"/>
      <point x="-186" y="-100"/>
      <point x="-162" y="-76"/>
      <point x="-127" y="-76" type="curve"/>
      <point x="-39" y="-76"/>
      <point x="-43" y="-183"/>
      <point x="-47" y="-291" type="curve"/>
      <point x="70" y="-289" type="line"/>
      <point x="85" y="-113"/>
      <point x="30" y="41"/>
      <point x="-127" y="41" type="curve"/>
      <point x="-229" y="41"/>
      <point x="-298" y="-32"/>
      <point x="-298" y="-135" type="curve"/>
      <point x="-298" y="-241"/>
      <point x="-233" y="-321"/>
      <point x="-131" y="-321" type="curve"/>
    </contour>
  </outline>
</glyph>
<glyph name="dvmE" format="1">
  <advance width="0"/>
  <unicode hex="0947"/>
  <outline>
    <contour>
      <point x="-29" y="683" type="move" name="_abvm.e"/>
    </contour>
    <contour>
      <point x="-365" y="869" type="line"/>
      <point x="-345" y="877"/>
      <point x="-326" y="884"/>
      <point x="-309" y="884" type="curve"/>
      <point x="-218" y="884"/>
      <point x="-199" y="751"/>
      <point x="-156" y="636" type="curve"/>
      <point x="-28" y="677" type="line"/>
      <point x="-87" y="841"/>
      <point x="-122" y="1004"/>
      <point x="-290" y="1004" type="curve"/>
      <point x="-335" y="1004"/>
      <point x="-381" y="992"/>
      <point x="-421" y="970" type="curve"/>
    </contour>
  </outline>
</glyph>
<glyph name="dvmAI" format="1">
  <advance width="0"/>
  <unicode hex="0948"/>
  <outline>
    <contour>
      <point x="-20" y="723" type="move" name="_abvm.e"/>
    </contour>
    <contour>
      <point x="-284" y="785" type="line"/>
      <point x="-279" y="792"/>
      <point x="-271" y="796"/>
      <point x="-265" y="796" type="curve"/>
      <point x="-199" y="796"/>
      <point x="-167" y="728"/>
      <point x="-147" y="683" type="curve"/>
      <point x="-25" y="711" type="line"/>
      <point x="-68" y="821"/>
      <point x="-128" y="916"/>
      <point x="-252" y="916" type="curve"/>
      <point x="-290" y="916"/>
      <point x="-330" y="903"/>
      <point x="-361" y="876" type="curve"/>
    </contour>
    <contour>
      <point x="-253" y="924" type="line"/>
      <point x="-245" y="930"/>
      <point x="-237" y="936"/>
      <point x="-226" y="936" type="curve"/>
      <point x="-122" y="936"/>
      <point x="-167" y="768"/>
      <point x="-147" y="683" type="curve"/>
      <point x="-25" y="711" type="line"/>
      <point x="-57" y="882"/>
      <point x="-66" y="1057"/>
      <point x="-221" y="1057" type="curve"/>
      <point x="-260" y="1057"/>
      <point x="-298" y="1044"/>
      <point x="-328" y="1018" type="curve"/>
    </contour>
  </outline>
</glyph>
<glyph name="dvVirama" format="1">
  <advance width="0"/>
  <unicode hex="094D"/>
  <outline>
    <contour>
      <point x="-43" y="0" type="move" name="_blwm.virama"/>
    </contour>
    <contour>
      <point x="69" y="-237" type="line"/>
      <point x="-42" y="-81" type="line"/>
      <point x="-160" y="-81" type="line"/>
      <point x="-59" y="-237" type="line"/>
    </contour>
  </outline>
</glyph>
<glyph name="dvDDxA" format="1">
  <advance width="406"/>
  <unicode hex="095C"/>
  <outline>
    <contour>
      <point x="275" y="-303" type="move" name="blwm.virama"/>
    </contour>
    <contour>
      <point x="351" y="714" type="move" name="abvm.e"/>
    </contour>
    <contour>
      <point x="260" y="-386" type="move" name="blwm.u"/>
    </contour>
    <component base="dvDDA" xOffset="1"/>
    <component base="dvAnusvara" xOffset="319" yOffset="-1090"/>
  </outline>
</glyph>
